<?xml version="1.0" encoding="utf-8" standalone="no"?>
<!DOCTYPE svg PUBLIC "-//W3C//DTD SVG 1.1//EN"
  "http://www.w3.org/Graphics/SVG/1.1/DTD/svg11.dtd">
<svg xmlns:xlink="http://www.w3.org/1999/xlink" width="402.500323pt" height="348.774844pt" viewBox="0 0 402.500323 348.774844" xmlns="http://www.w3.org/2000/svg" version="1.1">
 <metadata>
  <rdf:RDF xmlns:dc="http://purl.org/dc/elements/1.1/" xmlns:cc="http://creativecommons.org/ns#" xmlns:rdf="http://www.w3.org/1999/02/22-rdf-syntax-ns#">
   <cc:Work>
    <dc:type rdf:resource="http://purl.org/dc/dcmitype/StillImage"/>
    <dc:date>2024-04-25T15:47:46.070553</dc:date>
    <dc:format>image/svg+xml</dc:format>
    <dc:creator>
     <cc:Agent>
      <dc:title>Matplotlib v3.8.3, https://matplotlib.org/</dc:title>
     </cc:Agent>
    </dc:creator>
   </cc:Work>
  </rdf:RDF>
 </metadata>
 <defs>
  <style type="text/css">*{stroke-linejoin: round; stroke-linecap: butt}</style>
 </defs>
 <g id="figure_1">
  <g id="patch_1">
   <path d="M 0 348.774844 
L 402.500323 348.774844 
L 402.500323 0 
L 0 0 
z
" style="fill: #ffffff"/>
  </g>
  <g id="axes_1">
   <g id="patch_2">
    <path d="M 44.195313 306.9 
L 343.135023 306.9 
L 343.135023 7.2 
L 44.195313 7.2 
z
" style="fill: #ffffff"/>
   </g>
   <g id="matplotlib.axis_1">
    <g id="xtick_1">
     <g id="line2d_1">
      <path d="M 45.430601 306.9 
L 45.430601 7.2 
" clip-path="url(#p4d540114b7)" style="fill: none; stroke: #cccccc; stroke-linecap: round"/>
     </g>
     <g id="text_1">
      <!-- 20 -->
      <g style="fill: #262626" transform="translate(39.313569 324.273594) scale(0.11 -0.11)">
       <defs>
        <path id="ArialMT-32" d="M 3222 541 
L 3222 0 
L 194 0 
Q 188 203 259 391 
Q 375 700 629 1000 
Q 884 1300 1366 1694 
Q 2113 2306 2375 2664 
Q 2638 3022 2638 3341 
Q 2638 3675 2398 3904 
Q 2159 4134 1775 4134 
Q 1369 4134 1125 3890 
Q 881 3647 878 3216 
L 300 3275 
Q 359 3922 746 4261 
Q 1134 4600 1788 4600 
Q 2447 4600 2831 4234 
Q 3216 3869 3216 3328 
Q 3216 3053 3103 2787 
Q 2991 2522 2730 2228 
Q 2469 1934 1863 1422 
Q 1356 997 1212 845 
Q 1069 694 975 541 
L 3222 541 
z
" transform="scale(0.015625)"/>
        <path id="ArialMT-30" d="M 266 2259 
Q 266 3072 433 3567 
Q 600 4063 929 4331 
Q 1259 4600 1759 4600 
Q 2128 4600 2406 4451 
Q 2684 4303 2865 4023 
Q 3047 3744 3150 3342 
Q 3253 2941 3253 2259 
Q 3253 1453 3087 958 
Q 2922 463 2592 192 
Q 2263 -78 1759 -78 
Q 1097 -78 719 397 
Q 266 969 266 2259 
z
M 844 2259 
Q 844 1131 1108 757 
Q 1372 384 1759 384 
Q 2147 384 2411 759 
Q 2675 1134 2675 2259 
Q 2675 3391 2411 3762 
Q 2147 4134 1753 4134 
Q 1366 4134 1134 3806 
Q 844 3388 844 2259 
z
" transform="scale(0.015625)"/>
       </defs>
       <use xlink:href="#ArialMT-32"/>
       <use xlink:href="#ArialMT-30" x="55.615234"/>
      </g>
     </g>
    </g>
    <g id="xtick_2">
     <g id="line2d_2">
      <path d="M 107.195004 306.9 
L 107.195004 7.2 
" clip-path="url(#p4d540114b7)" style="fill: none; stroke: #cccccc; stroke-linecap: round"/>
     </g>
     <g id="text_2">
      <!-- 30 -->
      <g style="fill: #262626" transform="translate(101.077972 324.273594) scale(0.11 -0.11)">
       <defs>
        <path id="ArialMT-33" d="M 269 1209 
L 831 1284 
Q 928 806 1161 595 
Q 1394 384 1728 384 
Q 2125 384 2398 659 
Q 2672 934 2672 1341 
Q 2672 1728 2419 1979 
Q 2166 2231 1775 2231 
Q 1616 2231 1378 2169 
L 1441 2663 
Q 1497 2656 1531 2656 
Q 1891 2656 2178 2843 
Q 2466 3031 2466 3422 
Q 2466 3731 2256 3934 
Q 2047 4138 1716 4138 
Q 1388 4138 1169 3931 
Q 950 3725 888 3313 
L 325 3413 
Q 428 3978 793 4289 
Q 1159 4600 1703 4600 
Q 2078 4600 2393 4439 
Q 2709 4278 2876 4000 
Q 3044 3722 3044 3409 
Q 3044 3113 2884 2869 
Q 2725 2625 2413 2481 
Q 2819 2388 3044 2092 
Q 3269 1797 3269 1353 
Q 3269 753 2831 336 
Q 2394 -81 1725 -81 
Q 1122 -81 723 278 
Q 325 638 269 1209 
z
" transform="scale(0.015625)"/>
       </defs>
       <use xlink:href="#ArialMT-33"/>
       <use xlink:href="#ArialMT-30" x="55.615234"/>
      </g>
     </g>
    </g>
    <g id="xtick_3">
     <g id="line2d_3">
      <path d="M 168.959407 306.9 
L 168.959407 7.2 
" clip-path="url(#p4d540114b7)" style="fill: none; stroke: #cccccc; stroke-linecap: round"/>
     </g>
     <g id="text_3">
      <!-- 40 -->
      <g style="fill: #262626" transform="translate(162.842375 324.273594) scale(0.11 -0.11)">
       <defs>
        <path id="ArialMT-34" d="M 2069 0 
L 2069 1097 
L 81 1097 
L 81 1613 
L 2172 4581 
L 2631 4581 
L 2631 1613 
L 3250 1613 
L 3250 1097 
L 2631 1097 
L 2631 0 
L 2069 0 
z
M 2069 1613 
L 2069 3678 
L 634 1613 
L 2069 1613 
z
" transform="scale(0.015625)"/>
       </defs>
       <use xlink:href="#ArialMT-34"/>
       <use xlink:href="#ArialMT-30" x="55.615234"/>
      </g>
     </g>
    </g>
    <g id="xtick_4">
     <g id="line2d_4">
      <path d="M 230.72381 306.9 
L 230.72381 7.2 
" clip-path="url(#p4d540114b7)" style="fill: none; stroke: #cccccc; stroke-linecap: round"/>
     </g>
     <g id="text_4">
      <!-- 50 -->
      <g style="fill: #262626" transform="translate(224.606779 324.273594) scale(0.11 -0.11)">
       <defs>
        <path id="ArialMT-35" d="M 266 1200 
L 856 1250 
Q 922 819 1161 601 
Q 1400 384 1738 384 
Q 2144 384 2425 690 
Q 2706 997 2706 1503 
Q 2706 1984 2436 2262 
Q 2166 2541 1728 2541 
Q 1456 2541 1237 2417 
Q 1019 2294 894 2097 
L 366 2166 
L 809 4519 
L 3088 4519 
L 3088 3981 
L 1259 3981 
L 1013 2750 
Q 1425 3038 1878 3038 
Q 2478 3038 2890 2622 
Q 3303 2206 3303 1553 
Q 3303 931 2941 478 
Q 2500 -78 1738 -78 
Q 1113 -78 717 272 
Q 322 622 266 1200 
z
" transform="scale(0.015625)"/>
       </defs>
       <use xlink:href="#ArialMT-35"/>
       <use xlink:href="#ArialMT-30" x="55.615234"/>
      </g>
     </g>
    </g>
    <g id="xtick_5">
     <g id="line2d_5">
      <path d="M 292.488213 306.9 
L 292.488213 7.2 
" clip-path="url(#p4d540114b7)" style="fill: none; stroke: #cccccc; stroke-linecap: round"/>
     </g>
     <g id="text_5">
      <!-- 60 -->
      <g style="fill: #262626" transform="translate(286.371182 324.273594) scale(0.11 -0.11)">
       <defs>
        <path id="ArialMT-36" d="M 3184 3459 
L 2625 3416 
Q 2550 3747 2413 3897 
Q 2184 4138 1850 4138 
Q 1581 4138 1378 3988 
Q 1113 3794 959 3422 
Q 806 3050 800 2363 
Q 1003 2672 1297 2822 
Q 1591 2972 1913 2972 
Q 2475 2972 2870 2558 
Q 3266 2144 3266 1488 
Q 3266 1056 3080 686 
Q 2894 316 2569 119 
Q 2244 -78 1831 -78 
Q 1128 -78 684 439 
Q 241 956 241 2144 
Q 241 3472 731 4075 
Q 1159 4600 1884 4600 
Q 2425 4600 2770 4297 
Q 3116 3994 3184 3459 
z
M 888 1484 
Q 888 1194 1011 928 
Q 1134 663 1356 523 
Q 1578 384 1822 384 
Q 2178 384 2434 671 
Q 2691 959 2691 1453 
Q 2691 1928 2437 2201 
Q 2184 2475 1800 2475 
Q 1419 2475 1153 2201 
Q 888 1928 888 1484 
z
" transform="scale(0.015625)"/>
       </defs>
       <use xlink:href="#ArialMT-36"/>
       <use xlink:href="#ArialMT-30" x="55.615234"/>
      </g>
     </g>
    </g>
    <g id="text_6">
     <!-- Age -->
     <g style="fill: #262626" transform="translate(182.989855 339.049219) scale(0.12 -0.12)">
      <defs>
       <path id="ArialMT-41" d="M -9 0 
L 1750 4581 
L 2403 4581 
L 4278 0 
L 3588 0 
L 3053 1388 
L 1138 1388 
L 634 0 
L -9 0 
z
M 1313 1881 
L 2866 1881 
L 2388 3150 
Q 2169 3728 2063 4100 
Q 1975 3659 1816 3225 
L 1313 1881 
z
" transform="scale(0.015625)"/>
       <path id="ArialMT-67" d="M 319 -275 
L 866 -356 
Q 900 -609 1056 -725 
Q 1266 -881 1628 -881 
Q 2019 -881 2231 -725 
Q 2444 -569 2519 -288 
Q 2563 -116 2559 434 
Q 2191 0 1641 0 
Q 956 0 581 494 
Q 206 988 206 1678 
Q 206 2153 378 2554 
Q 550 2956 876 3175 
Q 1203 3394 1644 3394 
Q 2231 3394 2613 2919 
L 2613 3319 
L 3131 3319 
L 3131 450 
Q 3131 -325 2973 -648 
Q 2816 -972 2473 -1159 
Q 2131 -1347 1631 -1347 
Q 1038 -1347 672 -1080 
Q 306 -813 319 -275 
z
M 784 1719 
Q 784 1066 1043 766 
Q 1303 466 1694 466 
Q 2081 466 2343 764 
Q 2606 1063 2606 1700 
Q 2606 2309 2336 2618 
Q 2066 2928 1684 2928 
Q 1309 2928 1046 2623 
Q 784 2319 784 1719 
z
" transform="scale(0.015625)"/>
       <path id="ArialMT-65" d="M 2694 1069 
L 3275 997 
Q 3138 488 2766 206 
Q 2394 -75 1816 -75 
Q 1088 -75 661 373 
Q 234 822 234 1631 
Q 234 2469 665 2931 
Q 1097 3394 1784 3394 
Q 2450 3394 2872 2941 
Q 3294 2488 3294 1666 
Q 3294 1616 3291 1516 
L 816 1516 
Q 847 969 1125 678 
Q 1403 388 1819 388 
Q 2128 388 2347 550 
Q 2566 713 2694 1069 
z
M 847 1978 
L 2700 1978 
Q 2663 2397 2488 2606 
Q 2219 2931 1791 2931 
Q 1403 2931 1139 2672 
Q 875 2413 847 1978 
z
" transform="scale(0.015625)"/>
      </defs>
      <use xlink:href="#ArialMT-41"/>
      <use xlink:href="#ArialMT-67" x="66.699219"/>
      <use xlink:href="#ArialMT-65" x="122.314453"/>
     </g>
    </g>
   </g>
   <g id="matplotlib.axis_2">
    <g id="ytick_1">
     <g id="line2d_6">
      <path d="M 44.195313 273.841306 
L 343.135023 273.841306 
" clip-path="url(#p4d540114b7)" style="fill: none; stroke: #cccccc; stroke-linecap: round"/>
     </g>
     <g id="text_7">
      <!-- 7 -->
      <g style="fill: #262626" transform="translate(28.578281 277.778103) scale(0.11 -0.11)">
       <defs>
        <path id="ArialMT-37" d="M 303 3981 
L 303 4522 
L 3269 4522 
L 3269 4084 
Q 2831 3619 2401 2847 
Q 1972 2075 1738 1259 
Q 1569 684 1522 0 
L 944 0 
Q 953 541 1156 1306 
Q 1359 2072 1739 2783 
Q 2119 3494 2547 3981 
L 303 3981 
z
" transform="scale(0.015625)"/>
       </defs>
       <use xlink:href="#ArialMT-37"/>
      </g>
     </g>
    </g>
    <g id="ytick_2">
     <g id="line2d_7">
      <path d="M 44.195313 229.170483 
L 343.135023 229.170483 
" clip-path="url(#p4d540114b7)" style="fill: none; stroke: #cccccc; stroke-linecap: round"/>
     </g>
     <g id="text_8">
      <!-- 8 -->
      <g style="fill: #262626" transform="translate(28.578281 233.10728) scale(0.11 -0.11)">
       <defs>
        <path id="ArialMT-38" d="M 1131 2484 
Q 781 2613 612 2850 
Q 444 3088 444 3419 
Q 444 3919 803 4259 
Q 1163 4600 1759 4600 
Q 2359 4600 2725 4251 
Q 3091 3903 3091 3403 
Q 3091 3084 2923 2848 
Q 2756 2613 2416 2484 
Q 2838 2347 3058 2040 
Q 3278 1734 3278 1309 
Q 3278 722 2862 322 
Q 2447 -78 1769 -78 
Q 1091 -78 675 323 
Q 259 725 259 1325 
Q 259 1772 486 2073 
Q 713 2375 1131 2484 
z
M 1019 3438 
Q 1019 3113 1228 2906 
Q 1438 2700 1772 2700 
Q 2097 2700 2305 2904 
Q 2513 3109 2513 3406 
Q 2513 3716 2298 3927 
Q 2084 4138 1766 4138 
Q 1444 4138 1231 3931 
Q 1019 3725 1019 3438 
z
M 838 1322 
Q 838 1081 952 856 
Q 1066 631 1291 507 
Q 1516 384 1775 384 
Q 2178 384 2440 643 
Q 2703 903 2703 1303 
Q 2703 1709 2433 1975 
Q 2163 2241 1756 2241 
Q 1359 2241 1098 1978 
Q 838 1716 838 1322 
z
" transform="scale(0.015625)"/>
       </defs>
       <use xlink:href="#ArialMT-38"/>
      </g>
     </g>
    </g>
    <g id="ytick_3">
     <g id="line2d_8">
      <path d="M 44.195313 184.49966 
L 343.135023 184.49966 
" clip-path="url(#p4d540114b7)" style="fill: none; stroke: #cccccc; stroke-linecap: round"/>
     </g>
     <g id="text_9">
      <!-- 9 -->
      <g style="fill: #262626" transform="translate(28.578281 188.436457) scale(0.11 -0.11)">
       <defs>
        <path id="ArialMT-39" d="M 350 1059 
L 891 1109 
Q 959 728 1153 556 
Q 1347 384 1650 384 
Q 1909 384 2104 503 
Q 2300 622 2425 820 
Q 2550 1019 2634 1356 
Q 2719 1694 2719 2044 
Q 2719 2081 2716 2156 
Q 2547 1888 2255 1720 
Q 1963 1553 1622 1553 
Q 1053 1553 659 1965 
Q 266 2378 266 3053 
Q 266 3750 677 4175 
Q 1088 4600 1706 4600 
Q 2153 4600 2523 4359 
Q 2894 4119 3086 3673 
Q 3278 3228 3278 2384 
Q 3278 1506 3087 986 
Q 2897 466 2520 194 
Q 2144 -78 1638 -78 
Q 1100 -78 759 220 
Q 419 519 350 1059 
z
M 2653 3081 
Q 2653 3566 2395 3850 
Q 2138 4134 1775 4134 
Q 1400 4134 1122 3828 
Q 844 3522 844 3034 
Q 844 2597 1108 2323 
Q 1372 2050 1759 2050 
Q 2150 2050 2401 2323 
Q 2653 2597 2653 3081 
z
" transform="scale(0.015625)"/>
       </defs>
       <use xlink:href="#ArialMT-39"/>
      </g>
     </g>
    </g>
    <g id="ytick_4">
     <g id="line2d_9">
      <path d="M 44.195313 139.828837 
L 343.135023 139.828837 
" clip-path="url(#p4d540114b7)" style="fill: none; stroke: #cccccc; stroke-linecap: round"/>
     </g>
     <g id="text_10">
      <!-- 10 -->
      <g style="fill: #262626" transform="translate(22.46125 143.765634) scale(0.11 -0.11)">
       <defs>
        <path id="ArialMT-31" d="M 2384 0 
L 1822 0 
L 1822 3584 
Q 1619 3391 1289 3197 
Q 959 3003 697 2906 
L 697 3450 
Q 1169 3672 1522 3987 
Q 1875 4303 2022 4600 
L 2384 4600 
L 2384 0 
z
" transform="scale(0.015625)"/>
       </defs>
       <use xlink:href="#ArialMT-31"/>
       <use xlink:href="#ArialMT-30" x="55.615234"/>
      </g>
     </g>
    </g>
    <g id="ytick_5">
     <g id="line2d_10">
      <path d="M 44.195313 95.158015 
L 343.135023 95.158015 
" clip-path="url(#p4d540114b7)" style="fill: none; stroke: #cccccc; stroke-linecap: round"/>
     </g>
     <g id="text_11">
      <!-- 11 -->
      <g style="fill: #262626" transform="translate(23.2725 99.094811) scale(0.11 -0.11)">
       <use xlink:href="#ArialMT-31"/>
       <use xlink:href="#ArialMT-31" x="48.240234"/>
      </g>
     </g>
    </g>
    <g id="ytick_6">
     <g id="line2d_11">
      <path d="M 44.195313 50.487192 
L 343.135023 50.487192 
" clip-path="url(#p4d540114b7)" style="fill: none; stroke: #cccccc; stroke-linecap: round"/>
     </g>
     <g id="text_12">
      <!-- 12 -->
      <g style="fill: #262626" transform="translate(22.46125 54.423989) scale(0.11 -0.11)">
       <use xlink:href="#ArialMT-31"/>
       <use xlink:href="#ArialMT-32" x="55.615234"/>
      </g>
     </g>
    </g>
    <g id="text_13">
     <!-- How informal you can be -->
     <g style="fill: #262626" transform="translate(15.935625 223.078125) rotate(-90) scale(0.12 -0.12)">
      <defs>
       <path id="ArialMT-48" d="M 513 0 
L 513 4581 
L 1119 4581 
L 1119 2700 
L 3500 2700 
L 3500 4581 
L 4106 4581 
L 4106 0 
L 3500 0 
L 3500 2159 
L 1119 2159 
L 1119 0 
L 513 0 
z
" transform="scale(0.015625)"/>
       <path id="ArialMT-6f" d="M 213 1659 
Q 213 2581 725 3025 
Q 1153 3394 1769 3394 
Q 2453 3394 2887 2945 
Q 3322 2497 3322 1706 
Q 3322 1066 3130 698 
Q 2938 331 2570 128 
Q 2203 -75 1769 -75 
Q 1072 -75 642 372 
Q 213 819 213 1659 
z
M 791 1659 
Q 791 1022 1069 705 
Q 1347 388 1769 388 
Q 2188 388 2466 706 
Q 2744 1025 2744 1678 
Q 2744 2294 2464 2611 
Q 2184 2928 1769 2928 
Q 1347 2928 1069 2612 
Q 791 2297 791 1659 
z
" transform="scale(0.015625)"/>
       <path id="ArialMT-77" d="M 1034 0 
L 19 3319 
L 600 3319 
L 1128 1403 
L 1325 691 
Q 1338 744 1497 1375 
L 2025 3319 
L 2603 3319 
L 3100 1394 
L 3266 759 
L 3456 1400 
L 4025 3319 
L 4572 3319 
L 3534 0 
L 2950 0 
L 2422 1988 
L 2294 2553 
L 1622 0 
L 1034 0 
z
" transform="scale(0.015625)"/>
       <path id="ArialMT-20" transform="scale(0.015625)"/>
       <path id="ArialMT-69" d="M 425 3934 
L 425 4581 
L 988 4581 
L 988 3934 
L 425 3934 
z
M 425 0 
L 425 3319 
L 988 3319 
L 988 0 
L 425 0 
z
" transform="scale(0.015625)"/>
       <path id="ArialMT-6e" d="M 422 0 
L 422 3319 
L 928 3319 
L 928 2847 
Q 1294 3394 1984 3394 
Q 2284 3394 2536 3286 
Q 2788 3178 2913 3003 
Q 3038 2828 3088 2588 
Q 3119 2431 3119 2041 
L 3119 0 
L 2556 0 
L 2556 2019 
Q 2556 2363 2490 2533 
Q 2425 2703 2258 2804 
Q 2091 2906 1866 2906 
Q 1506 2906 1245 2678 
Q 984 2450 984 1813 
L 984 0 
L 422 0 
z
" transform="scale(0.015625)"/>
       <path id="ArialMT-66" d="M 556 0 
L 556 2881 
L 59 2881 
L 59 3319 
L 556 3319 
L 556 3672 
Q 556 4006 616 4169 
Q 697 4388 901 4523 
Q 1106 4659 1475 4659 
Q 1713 4659 2000 4603 
L 1916 4113 
Q 1741 4144 1584 4144 
Q 1328 4144 1222 4034 
Q 1116 3925 1116 3625 
L 1116 3319 
L 1763 3319 
L 1763 2881 
L 1116 2881 
L 1116 0 
L 556 0 
z
" transform="scale(0.015625)"/>
       <path id="ArialMT-72" d="M 416 0 
L 416 3319 
L 922 3319 
L 922 2816 
Q 1116 3169 1280 3281 
Q 1444 3394 1641 3394 
Q 1925 3394 2219 3213 
L 2025 2691 
Q 1819 2813 1613 2813 
Q 1428 2813 1281 2702 
Q 1134 2591 1072 2394 
Q 978 2094 978 1738 
L 978 0 
L 416 0 
z
" transform="scale(0.015625)"/>
       <path id="ArialMT-6d" d="M 422 0 
L 422 3319 
L 925 3319 
L 925 2853 
Q 1081 3097 1340 3245 
Q 1600 3394 1931 3394 
Q 2300 3394 2536 3241 
Q 2772 3088 2869 2813 
Q 3263 3394 3894 3394 
Q 4388 3394 4653 3120 
Q 4919 2847 4919 2278 
L 4919 0 
L 4359 0 
L 4359 2091 
Q 4359 2428 4304 2576 
Q 4250 2725 4106 2815 
Q 3963 2906 3769 2906 
Q 3419 2906 3187 2673 
Q 2956 2441 2956 1928 
L 2956 0 
L 2394 0 
L 2394 2156 
Q 2394 2531 2256 2718 
Q 2119 2906 1806 2906 
Q 1569 2906 1367 2781 
Q 1166 2656 1075 2415 
Q 984 2175 984 1722 
L 984 0 
L 422 0 
z
" transform="scale(0.015625)"/>
       <path id="ArialMT-61" d="M 2588 409 
Q 2275 144 1986 34 
Q 1697 -75 1366 -75 
Q 819 -75 525 192 
Q 231 459 231 875 
Q 231 1119 342 1320 
Q 453 1522 633 1644 
Q 813 1766 1038 1828 
Q 1203 1872 1538 1913 
Q 2219 1994 2541 2106 
Q 2544 2222 2544 2253 
Q 2544 2597 2384 2738 
Q 2169 2928 1744 2928 
Q 1347 2928 1158 2789 
Q 969 2650 878 2297 
L 328 2372 
Q 403 2725 575 2942 
Q 747 3159 1072 3276 
Q 1397 3394 1825 3394 
Q 2250 3394 2515 3294 
Q 2781 3194 2906 3042 
Q 3031 2891 3081 2659 
Q 3109 2516 3109 2141 
L 3109 1391 
Q 3109 606 3145 398 
Q 3181 191 3288 0 
L 2700 0 
Q 2613 175 2588 409 
z
M 2541 1666 
Q 2234 1541 1622 1453 
Q 1275 1403 1131 1340 
Q 988 1278 909 1158 
Q 831 1038 831 891 
Q 831 666 1001 516 
Q 1172 366 1500 366 
Q 1825 366 2078 508 
Q 2331 650 2450 897 
Q 2541 1088 2541 1459 
L 2541 1666 
z
" transform="scale(0.015625)"/>
       <path id="ArialMT-6c" d="M 409 0 
L 409 4581 
L 972 4581 
L 972 0 
L 409 0 
z
" transform="scale(0.015625)"/>
       <path id="ArialMT-79" d="M 397 -1278 
L 334 -750 
Q 519 -800 656 -800 
Q 844 -800 956 -737 
Q 1069 -675 1141 -563 
Q 1194 -478 1313 -144 
Q 1328 -97 1363 -6 
L 103 3319 
L 709 3319 
L 1400 1397 
Q 1534 1031 1641 628 
Q 1738 1016 1872 1384 
L 2581 3319 
L 3144 3319 
L 1881 -56 
Q 1678 -603 1566 -809 
Q 1416 -1088 1222 -1217 
Q 1028 -1347 759 -1347 
Q 597 -1347 397 -1278 
z
" transform="scale(0.015625)"/>
       <path id="ArialMT-75" d="M 2597 0 
L 2597 488 
Q 2209 -75 1544 -75 
Q 1250 -75 995 37 
Q 741 150 617 320 
Q 494 491 444 738 
Q 409 903 409 1263 
L 409 3319 
L 972 3319 
L 972 1478 
Q 972 1038 1006 884 
Q 1059 663 1231 536 
Q 1403 409 1656 409 
Q 1909 409 2131 539 
Q 2353 669 2445 892 
Q 2538 1116 2538 1541 
L 2538 3319 
L 3100 3319 
L 3100 0 
L 2597 0 
z
" transform="scale(0.015625)"/>
       <path id="ArialMT-63" d="M 2588 1216 
L 3141 1144 
Q 3050 572 2676 248 
Q 2303 -75 1759 -75 
Q 1078 -75 664 370 
Q 250 816 250 1647 
Q 250 2184 428 2587 
Q 606 2991 970 3192 
Q 1334 3394 1763 3394 
Q 2303 3394 2647 3120 
Q 2991 2847 3088 2344 
L 2541 2259 
Q 2463 2594 2264 2762 
Q 2066 2931 1784 2931 
Q 1359 2931 1093 2626 
Q 828 2322 828 1663 
Q 828 994 1084 691 
Q 1341 388 1753 388 
Q 2084 388 2306 591 
Q 2528 794 2588 1216 
z
" transform="scale(0.015625)"/>
       <path id="ArialMT-62" d="M 941 0 
L 419 0 
L 419 4581 
L 981 4581 
L 981 2947 
Q 1338 3394 1891 3394 
Q 2197 3394 2470 3270 
Q 2744 3147 2920 2923 
Q 3097 2700 3197 2384 
Q 3297 2069 3297 1709 
Q 3297 856 2875 390 
Q 2453 -75 1863 -75 
Q 1275 -75 941 416 
L 941 0 
z
M 934 1684 
Q 934 1088 1097 822 
Q 1363 388 1816 388 
Q 2184 388 2453 708 
Q 2722 1028 2722 1663 
Q 2722 2313 2464 2622 
Q 2206 2931 1841 2931 
Q 1472 2931 1203 2611 
Q 934 2291 934 1684 
z
" transform="scale(0.015625)"/>
      </defs>
      <use xlink:href="#ArialMT-48"/>
      <use xlink:href="#ArialMT-6f" x="72.216797"/>
      <use xlink:href="#ArialMT-77" x="127.832031"/>
      <use xlink:href="#ArialMT-20" x="200.048828"/>
      <use xlink:href="#ArialMT-69" x="227.832031"/>
      <use xlink:href="#ArialMT-6e" x="250.048828"/>
      <use xlink:href="#ArialMT-66" x="305.664062"/>
      <use xlink:href="#ArialMT-6f" x="333.447266"/>
      <use xlink:href="#ArialMT-72" x="389.0625"/>
      <use xlink:href="#ArialMT-6d" x="422.363281"/>
      <use xlink:href="#ArialMT-61" x="505.664062"/>
      <use xlink:href="#ArialMT-6c" x="561.279297"/>
      <use xlink:href="#ArialMT-20" x="583.496094"/>
      <use xlink:href="#ArialMT-79" x="611.279297"/>
      <use xlink:href="#ArialMT-6f" x="661.279297"/>
      <use xlink:href="#ArialMT-75" x="716.894531"/>
      <use xlink:href="#ArialMT-20" x="772.509766"/>
      <use xlink:href="#ArialMT-63" x="800.292969"/>
      <use xlink:href="#ArialMT-61" x="850.292969"/>
      <use xlink:href="#ArialMT-6e" x="905.908203"/>
      <use xlink:href="#ArialMT-20" x="961.523438"/>
      <use xlink:href="#ArialMT-62" x="989.306641"/>
      <use xlink:href="#ArialMT-65" x="1044.921875"/>
     </g>
    </g>
   </g>
   <g id="PathCollection_1">
    <defs>
     <path id="m4aa0971f80" d="M 0 3 
C 0.795609 3 1.55874 2.683901 2.12132 2.12132 
C 2.683901 1.55874 3 0.795609 3 0 
C 3 -0.795609 2.683901 -1.55874 2.12132 -2.12132 
C 1.55874 -2.683901 0.795609 -3 0 -3 
C -0.795609 -3 -1.55874 -2.683901 -2.12132 -2.12132 
C -2.683901 -1.55874 -3 -0.795609 -3 0 
C -3 0.795609 -2.683901 1.55874 -2.12132 2.12132 
C -1.55874 2.683901 -0.795609 3 0 3 
z
" style="stroke: #443983; stroke-opacity: 0.8"/>
    </defs>
    <g clip-path="url(#p4d540114b7)">
     <use xlink:href="#m4aa0971f80" x="329.546855" y="98.041915" style="fill: #443983; fill-opacity: 0.8; stroke: #443983; stroke-opacity: 0.8"/>
     <use xlink:href="#m4aa0971f80" x="82.489242" y="131.005145" style="fill: #443983; fill-opacity: 0.8; stroke: #443983; stroke-opacity: 0.8"/>
     <use xlink:href="#m4aa0971f80" x="298.664653" y="206.744922" style="fill: #443983; fill-opacity: 0.8; stroke: #443983; stroke-opacity: 0.8"/>
     <use xlink:href="#m4aa0971f80" x="88.665683" y="159.785782" style="fill: #443983; fill-opacity: 0.8; stroke: #443983; stroke-opacity: 0.8"/>
     <use xlink:href="#m4aa0971f80" x="273.958892" y="107.254985" style="fill: #443983; fill-opacity: 0.8; stroke: #443983; stroke-opacity: 0.8"/>
     <use xlink:href="#m4aa0971f80" x="119.547884" y="169.705127" style="fill: #443983; fill-opacity: 0.8; stroke: #443983; stroke-opacity: 0.8"/>
     <use xlink:href="#m4aa0971f80" x="131.900765" y="88.182365" style="fill: #443983; fill-opacity: 0.8; stroke: #443983; stroke-opacity: 0.8"/>
     <use xlink:href="#m4aa0971f80" x="113.371444" y="166.914857" style="fill: #443983; fill-opacity: 0.8; stroke: #443983; stroke-opacity: 0.8"/>
     <use xlink:href="#m4aa0971f80" x="199.841608" y="151.978966" style="fill: #443983; fill-opacity: 0.8; stroke: #443983; stroke-opacity: 0.8"/>
     <use xlink:href="#m4aa0971f80" x="94.842123" y="146.490724" style="fill: #443983; fill-opacity: 0.8; stroke: #443983; stroke-opacity: 0.8"/>
     <use xlink:href="#m4aa0971f80" x="292.488213" y="159.602771" style="fill: #443983; fill-opacity: 0.8; stroke: #443983; stroke-opacity: 0.8"/>
     <use xlink:href="#m4aa0971f80" x="206.018049" y="101.482633" style="fill: #443983; fill-opacity: 0.8; stroke: #443983; stroke-opacity: 0.8"/>
     <use xlink:href="#m4aa0971f80" x="206.018049" y="89.982493" style="fill: #443983; fill-opacity: 0.8; stroke: #443983; stroke-opacity: 0.8"/>
     <use xlink:href="#m4aa0971f80" x="261.606011" y="116.6088" style="fill: #443983; fill-opacity: 0.8; stroke: #443983; stroke-opacity: 0.8"/>
     <use xlink:href="#m4aa0971f80" x="218.370929" y="293.277273" style="fill: #443983; fill-opacity: 0.8; stroke: #443983; stroke-opacity: 0.8"/>
     <use xlink:href="#m4aa0971f80" x="107.195004" y="117.206513" style="fill: #443983; fill-opacity: 0.8; stroke: #443983; stroke-opacity: 0.8"/>
     <use xlink:href="#m4aa0971f80" x="156.606526" y="131.485732" style="fill: #443983; fill-opacity: 0.8; stroke: #443983; stroke-opacity: 0.8"/>
     <use xlink:href="#m4aa0971f80" x="156.606526" y="100.811676" style="fill: #443983; fill-opacity: 0.8; stroke: #443983; stroke-opacity: 0.8"/>
     <use xlink:href="#m4aa0971f80" x="206.018049" y="157.070553" style="fill: #443983; fill-opacity: 0.8; stroke: #443983; stroke-opacity: 0.8"/>
     <use xlink:href="#m4aa0971f80" x="298.664653" y="165.311968" style="fill: #443983; fill-opacity: 0.8; stroke: #443983; stroke-opacity: 0.8"/>
     <use xlink:href="#m4aa0971f80" x="162.782966" y="146.879122" style="fill: #443983; fill-opacity: 0.8; stroke: #443983; stroke-opacity: 0.8"/>
    </g>
   </g>
   <g id="PolyCollection_1">
    <defs>
     <path id="mea3968cd4b" d="M 82.489242 -234.473387 
L 82.489242 -188.031314 
L 84.984774 -188.270823 
L 87.480305 -188.32537 
L 89.975837 -188.452809 
L 92.471368 -188.684519 
L 94.9669 -188.882774 
L 97.462431 -189.06725 
L 99.957962 -189.166909 
L 102.453494 -188.828705 
L 104.949025 -188.442679 
L 107.444557 -188.317066 
L 109.940088 -188.436558 
L 112.43562 -188.799669 
L 114.931151 -189.175064 
L 117.426683 -189.55046 
L 119.922214 -189.443829 
L 122.417745 -189.194243 
L 124.913277 -189.357058 
L 127.408808 -189.222701 
L 129.90434 -188.898742 
L 132.399871 -188.572736 
L 134.895403 -188.246729 
L 137.390934 -188.006686 
L 139.886465 -188.096847 
L 142.381997 -188.250574 
L 144.877528 -187.998566 
L 147.37306 -187.736883 
L 149.868591 -187.450362 
L 152.364123 -187.065822 
L 154.859654 -186.976897 
L 157.355186 -186.540518 
L 159.850717 -186.099318 
L 162.346248 -185.652139 
L 164.84178 -185.198834 
L 167.337311 -184.706007 
L 169.832843 -184.581559 
L 172.328374 -184.171253 
L 174.823906 -183.832684 
L 177.319437 -183.913543 
L 179.814968 -183.787939 
L 182.3105 -183.544123 
L 184.806031 -183.155606 
L 187.301563 -182.957331 
L 189.797094 -182.555815 
L 192.292626 -182.214569 
L 194.788157 -182.387213 
L 197.283689 -182.008455 
L 199.77922 -181.345859 
L 202.274751 -180.683263 
L 204.770283 -179.892776 
L 207.265814 -179.367227 
L 209.761346 -179.268253 
L 212.256877 -178.640893 
L 214.752409 -178.057199 
L 217.24794 -177.495911 
L 219.743471 -177.162518 
L 222.239003 -176.815957 
L 224.734534 -176.279472 
L 227.230066 -175.742987 
L 229.725597 -175.194563 
L 232.221129 -174.645145 
L 234.71666 -174.106415 
L 237.212192 -173.567685 
L 239.707723 -172.931775 
L 242.203254 -172.384371 
L 244.698786 -171.796734 
L 247.194317 -171.198772 
L 249.689849 -170.572855 
L 252.18538 -170.017615 
L 254.680912 -169.421413 
L 257.176443 -168.830781 
L 259.671974 -168.269278 
L 262.167506 -167.644298 
L 264.663037 -167.048459 
L 267.158569 -166.455966 
L 269.6541 -165.858902 
L 272.149632 -165.160877 
L 274.645163 -164.02833 
L 277.140695 -163.167607 
L 279.636226 -162.531456 
L 282.131757 -162.045646 
L 284.627289 -161.559835 
L 287.12282 -161.074024 
L 289.618352 -160.517527 
L 292.113883 -159.831358 
L 294.609415 -159.148968 
L 297.104946 -158.471344 
L 299.600478 -157.79372 
L 302.096009 -157.116096 
L 304.59154 -156.540327 
L 307.087072 -156.134358 
L 309.582603 -155.198507 
L 312.078135 -154.505578 
L 314.573666 -153.894393 
L 317.069198 -153.033171 
L 319.564729 -152.427554 
L 322.06026 -151.858809 
L 324.555792 -151.290063 
L 327.051323 -150.721318 
L 329.546855 -150.042018 
L 329.546855 -239.172551 
L 329.546855 -239.172551 
L 327.051323 -238.899416 
L 324.555792 -238.659353 
L 322.06026 -238.41929 
L 319.564729 -238.179227 
L 317.069198 -237.939164 
L 314.573666 -237.699101 
L 312.078135 -237.348025 
L 309.582603 -236.927545 
L 307.087072 -236.507066 
L 304.59154 -236.086586 
L 302.096009 -235.666107 
L 299.600478 -235.245627 
L 297.104946 -234.824329 
L 294.609415 -234.401389 
L 292.113883 -233.977258 
L 289.618352 -233.552176 
L 287.12282 -233.127095 
L 284.627289 -232.828252 
L 282.131757 -232.598025 
L 279.636226 -232.367798 
L 277.140695 -232.137571 
L 274.645163 -231.907344 
L 272.149632 -231.677117 
L 269.6541 -231.443685 
L 267.158569 -231.223357 
L 264.663037 -230.961079 
L 262.167506 -230.641602 
L 259.671974 -230.404333 
L 257.176443 -230.16314 
L 254.680912 -229.928076 
L 252.18538 -229.606817 
L 249.689849 -229.417042 
L 247.194317 -229.182698 
L 244.698786 -228.882308 
L 242.203254 -228.739679 
L 239.707723 -228.506183 
L 237.212192 -228.268867 
L 234.71666 -228.025371 
L 232.221129 -227.571639 
L 229.725597 -227.09758 
L 227.230066 -226.629327 
L 224.734534 -226.178309 
L 222.239003 -225.973358 
L 219.743471 -226.113524 
L 217.24794 -226.085869 
L 214.752409 -225.858654 
L 212.256877 -225.802248 
L 209.761346 -225.756768 
L 207.265814 -225.414663 
L 204.770283 -225.176996 
L 202.274751 -224.937111 
L 199.77922 -224.635455 
L 197.283689 -224.307856 
L 194.788157 -224.226024 
L 192.292626 -223.988192 
L 189.797094 -223.698439 
L 187.301563 -223.698672 
L 184.806031 -223.789166 
L 182.3105 -223.703553 
L 179.814968 -223.702985 
L 177.319437 -223.648485 
L 174.823906 -223.575548 
L 172.328374 -223.590351 
L 169.832843 -223.628985 
L 167.337311 -223.524481 
L 164.84178 -223.556461 
L 162.346248 -223.516993 
L 159.850717 -223.65432 
L 157.355186 -223.717329 
L 154.859654 -223.86284 
L 152.364123 -223.888382 
L 149.868591 -224.169415 
L 147.37306 -224.610384 
L 144.877528 -224.621183 
L 142.381997 -224.591397 
L 139.886465 -224.82909 
L 137.390934 -225.153622 
L 134.895403 -225.488922 
L 132.399871 -225.824578 
L 129.90434 -226.054187 
L 127.408808 -226.494158 
L 124.913277 -226.831519 
L 122.417745 -227.227299 
L 119.922214 -227.502258 
L 117.426683 -227.943534 
L 114.931151 -228.557582 
L 112.43562 -229.071586 
L 109.940088 -229.6592 
L 107.444557 -230.142988 
L 104.949025 -230.458208 
L 102.453494 -231.097978 
L 99.957962 -231.542868 
L 97.462431 -231.85483 
L 94.9669 -232.166792 
L 92.471368 -232.478753 
L 89.975837 -232.828985 
L 87.480305 -233.377119 
L 84.984774 -233.925253 
L 82.489242 -234.473387 
z
" style="stroke: #ffffff; stroke-opacity: 0.15"/>
    </defs>
    <g clip-path="url(#p4d540114b7)">
     <use xlink:href="#mea3968cd4b" x="0" y="348.774844" style="fill: #443983; fill-opacity: 0.15; stroke: #ffffff; stroke-opacity: 0.15"/>
    </g>
   </g>
   <g id="PathCollection_2">
    <defs>
     <path id="m6aea3a9084" d="M 0 3 
C 0.795609 3 1.55874 2.683901 2.12132 2.12132 
C 2.683901 1.55874 3 0.795609 3 0 
C 3 -0.795609 2.683901 -1.55874 2.12132 -2.12132 
C 1.55874 -2.683901 0.795609 -3 0 -3 
C -0.795609 -3 -1.55874 -2.683901 -2.12132 -2.12132 
C -2.683901 -1.55874 -3 -0.795609 -3 0 
C -3 0.795609 -2.683901 1.55874 -2.12132 2.12132 
C -1.55874 2.683901 -0.795609 3 0 3 
z
" style="stroke: #31688e; stroke-opacity: 0.8"/>
    </defs>
    <g clip-path="url(#p4d540114b7)">
     <use xlink:href="#m6aea3a9084" x="255.429571" y="233.698171" style="fill: #31688e; fill-opacity: 0.8; stroke: #31688e; stroke-opacity: 0.8"/>
     <use xlink:href="#m6aea3a9084" x="187.488728" y="131.315655" style="fill: #31688e; fill-opacity: 0.8; stroke: #31688e; stroke-opacity: 0.8"/>
     <use xlink:href="#m6aea3a9084" x="101.018563" y="218.617961" style="fill: #31688e; fill-opacity: 0.8; stroke: #31688e; stroke-opacity: 0.8"/>
     <use xlink:href="#m6aea3a9084" x="144.253645" y="170.13967" style="fill: #31688e; fill-opacity: 0.8; stroke: #31688e; stroke-opacity: 0.8"/>
     <use xlink:href="#m6aea3a9084" x="212.194489" y="191.935401" style="fill: #31688e; fill-opacity: 0.8; stroke: #31688e; stroke-opacity: 0.8"/>
     <use xlink:href="#m6aea3a9084" x="199.841608" y="107.721208" style="fill: #31688e; fill-opacity: 0.8; stroke: #31688e; stroke-opacity: 0.8"/>
     <use xlink:href="#m6aea3a9084" x="317.193974" y="160.67857" style="fill: #31688e; fill-opacity: 0.8; stroke: #31688e; stroke-opacity: 0.8"/>
     <use xlink:href="#m6aea3a9084" x="286.311773" y="107.273088" style="fill: #31688e; fill-opacity: 0.8; stroke: #31688e; stroke-opacity: 0.8"/>
     <use xlink:href="#m6aea3a9084" x="94.842123" y="90.302916" style="fill: #31688e; fill-opacity: 0.8; stroke: #31688e; stroke-opacity: 0.8"/>
     <use xlink:href="#m6aea3a9084" x="206.018049" y="150.132632" style="fill: #31688e; fill-opacity: 0.8; stroke: #31688e; stroke-opacity: 0.8"/>
     <use xlink:href="#m6aea3a9084" x="267.782452" y="112.040804" style="fill: #31688e; fill-opacity: 0.8; stroke: #31688e; stroke-opacity: 0.8"/>
     <use xlink:href="#m6aea3a9084" x="236.90025" y="152.226937" style="fill: #31688e; fill-opacity: 0.8; stroke: #31688e; stroke-opacity: 0.8"/>
     <use xlink:href="#m6aea3a9084" x="125.724325" y="179.095899" style="fill: #31688e; fill-opacity: 0.8; stroke: #31688e; stroke-opacity: 0.8"/>
     <use xlink:href="#m6aea3a9084" x="261.606011" y="220.009533" style="fill: #31688e; fill-opacity: 0.8; stroke: #31688e; stroke-opacity: 0.8"/>
     <use xlink:href="#m6aea3a9084" x="144.253645" y="153.015914" style="fill: #31688e; fill-opacity: 0.8; stroke: #31688e; stroke-opacity: 0.8"/>
     <use xlink:href="#m6aea3a9084" x="57.783481" y="59.233796" style="fill: #31688e; fill-opacity: 0.8; stroke: #31688e; stroke-opacity: 0.8"/>
     <use xlink:href="#m6aea3a9084" x="76.312802" y="203.028199" style="fill: #31688e; fill-opacity: 0.8; stroke: #31688e; stroke-opacity: 0.8"/>
     <use xlink:href="#m6aea3a9084" x="243.07669" y="111.631227" style="fill: #31688e; fill-opacity: 0.8; stroke: #31688e; stroke-opacity: 0.8"/>
     <use xlink:href="#m6aea3a9084" x="292.488213" y="154.576732" style="fill: #31688e; fill-opacity: 0.8; stroke: #31688e; stroke-opacity: 0.8"/>
     <use xlink:href="#m6aea3a9084" x="193.665168" y="136.446673" style="fill: #31688e; fill-opacity: 0.8; stroke: #31688e; stroke-opacity: 0.8"/>
    </g>
   </g>
   <g id="PolyCollection_2">
    <defs>
     <path id="m0b3d1fa3b0" d="M 57.783481 -257.946531 
L 57.783481 -150.116229 
L 60.403789 -150.610889 
L 63.024097 -151.139541 
L 65.644405 -151.681868 
L 68.264713 -152.202915 
L 70.885021 -152.730527 
L 73.505329 -153.26114 
L 76.125637 -153.683963 
L 78.745945 -154.32894 
L 81.366253 -155.02953 
L 83.986561 -155.869681 
L 86.606869 -156.632666 
L 89.227177 -157.253852 
L 91.847485 -157.868371 
L 94.467793 -158.522005 
L 97.088101 -159.109751 
L 99.708409 -159.706604 
L 102.328717 -160.280957 
L 104.949025 -161.096296 
L 107.569333 -161.528062 
L 110.189641 -162.123647 
L 112.809949 -162.892153 
L 115.430257 -163.794729 
L 118.050565 -164.550209 
L 120.670873 -165.20422 
L 123.291181 -165.617736 
L 125.911489 -166.237599 
L 128.531797 -166.93093 
L 131.152105 -167.604738 
L 133.772413 -167.846743 
L 136.392721 -168.300377 
L 139.013029 -168.762008 
L 141.633337 -169.580779 
L 144.253645 -170.26933 
L 146.873954 -170.741779 
L 149.494262 -171.21516 
L 152.11457 -171.688542 
L 154.734878 -172.172239 
L 157.355186 -172.636828 
L 159.975494 -173.36599 
L 162.595802 -173.733306 
L 165.21611 -174.094709 
L 167.836418 -174.517651 
L 170.456726 -174.98619 
L 173.077034 -175.180885 
L 175.697342 -175.428748 
L 178.31765 -175.901391 
L 180.937958 -176.26451 
L 183.558266 -176.545407 
L 186.178574 -176.951791 
L 188.798882 -176.93127 
L 191.41919 -176.875703 
L 194.039498 -176.428579 
L 196.659806 -176.117045 
L 199.280114 -175.65221 
L 201.900422 -175.988908 
L 204.52073 -175.838249 
L 207.141038 -175.696255 
L 209.761346 -175.907713 
L 212.381654 -175.975813 
L 215.001962 -175.839619 
L 217.62227 -175.469603 
L 220.242578 -175.099058 
L 222.862886 -174.793994 
L 225.483194 -174.251183 
L 228.103502 -174.146222 
L 230.72381 -173.81776 
L 233.344118 -173.328359 
L 235.964426 -172.824232 
L 238.584734 -172.242531 
L 241.205042 -171.711302 
L 243.82535 -171.332844 
L 246.445658 -170.866088 
L 249.065966 -170.428184 
L 251.686274 -169.78518 
L 254.306582 -169.337315 
L 256.92689 -168.737975 
L 259.547198 -168.020003 
L 262.167506 -167.298537 
L 264.787814 -166.579057 
L 267.408122 -165.781828 
L 270.02843 -164.915854 
L 272.648738 -164.049881 
L 275.269046 -163.218461 
L 277.889354 -162.420782 
L 280.509662 -161.623103 
L 283.12997 -160.705267 
L 285.750278 -159.704103 
L 288.370586 -158.825302 
L 290.990894 -157.965549 
L 293.611202 -157.046805 
L 296.23151 -156.220186 
L 298.851818 -155.339592 
L 301.472126 -154.458998 
L 304.092434 -153.584426 
L 306.712742 -152.714002 
L 309.33305 -151.844513 
L 311.953358 -150.983016 
L 314.573666 -150.121519 
L 317.193974 -149.260022 
L 317.193974 -228.858874 
L 317.193974 -228.858874 
L 314.573666 -228.116632 
L 311.953358 -227.370319 
L 309.33305 -226.624809 
L 306.712742 -225.909458 
L 304.092434 -225.31636 
L 301.472126 -224.734354 
L 298.851818 -224.136001 
L 296.23151 -223.778632 
L 293.611202 -223.252976 
L 290.990894 -222.370609 
L 288.370586 -221.782146 
L 285.750278 -221.180512 
L 283.12997 -220.581984 
L 280.509662 -219.99764 
L 277.889354 -219.652759 
L 275.269046 -218.953093 
L 272.648738 -218.227737 
L 270.02843 -217.90012 
L 267.408122 -217.253032 
L 264.787814 -216.863668 
L 262.167506 -216.582673 
L 259.547198 -216.039062 
L 256.92689 -215.603283 
L 254.306582 -215.444374 
L 251.686274 -215.261635 
L 249.065966 -215.22253 
L 246.445658 -215.070566 
L 243.82535 -214.78131 
L 241.205042 -214.325609 
L 238.584734 -213.881458 
L 235.964426 -213.551905 
L 233.344118 -213.353455 
L 230.72381 -213.526635 
L 228.103502 -213.321763 
L 225.483194 -213.808111 
L 222.862886 -214.002093 
L 220.242578 -214.40272 
L 217.62227 -214.666456 
L 215.001962 -214.743334 
L 212.381654 -215.19986 
L 209.761346 -215.69477 
L 207.141038 -215.988192 
L 204.52073 -216.622778 
L 201.900422 -217.23106 
L 199.280114 -217.435831 
L 196.659806 -217.748988 
L 194.039498 -218.148921 
L 191.41919 -218.679798 
L 188.798882 -219.22037 
L 186.178574 -219.766314 
L 183.558266 -220.293816 
L 180.937958 -220.821318 
L 178.31765 -221.359661 
L 175.697342 -221.893806 
L 173.077034 -222.169821 
L 170.456726 -222.395439 
L 167.836418 -223.072128 
L 165.21611 -223.380669 
L 162.595802 -223.921911 
L 159.975494 -224.748598 
L 157.355186 -225.537649 
L 154.734878 -226.349171 
L 152.11457 -227.167076 
L 149.494262 -228.365552 
L 146.873954 -229.370719 
L 144.253645 -230.089936 
L 141.633337 -230.791086 
L 139.013029 -231.344909 
L 136.392721 -232.249068 
L 133.772413 -232.960387 
L 131.152105 -233.609073 
L 128.531797 -234.468965 
L 125.911489 -235.288188 
L 123.291181 -236.373724 
L 120.670873 -236.921316 
L 118.050565 -237.875046 
L 115.430257 -238.811569 
L 112.809949 -239.768202 
L 110.189641 -240.432861 
L 107.569333 -241.225848 
L 104.949025 -241.912093 
L 102.328717 -242.598338 
L 99.708409 -243.40684 
L 97.088101 -244.214987 
L 94.467793 -245.023134 
L 91.847485 -245.836132 
L 89.227177 -246.652044 
L 86.606869 -247.536066 
L 83.986561 -248.616068 
L 81.366253 -249.635924 
L 78.745945 -250.549765 
L 76.125637 -251.465178 
L 73.505329 -252.489376 
L 70.885021 -253.511921 
L 68.264713 -254.533313 
L 65.644405 -255.554571 
L 63.024097 -256.481207 
L 60.403789 -257.214134 
L 57.783481 -257.946531 
z
" style="stroke: #ffffff; stroke-opacity: 0.15"/>
    </defs>
    <g clip-path="url(#p4d540114b7)">
     <use xlink:href="#m0b3d1fa3b0" x="0" y="348.774844" style="fill: #31688e; fill-opacity: 0.15; stroke: #ffffff; stroke-opacity: 0.15"/>
    </g>
   </g>
   <g id="PathCollection_3">
    <defs>
     <path id="m656e3bf4e5" d="M 0 3 
C 0.795609 3 1.55874 2.683901 2.12132 2.12132 
C 2.683901 1.55874 3 0.795609 3 0 
C 3 -0.795609 2.683901 -1.55874 2.12132 -2.12132 
C 1.55874 -2.683901 0.795609 -3 0 -3 
C -0.795609 -3 -1.55874 -2.683901 -2.12132 -2.12132 
C -2.683901 -1.55874 -3 -0.795609 -3 0 
C -3 0.795609 -2.683901 1.55874 -2.12132 2.12132 
C -1.55874 2.683901 -0.795609 3 0 3 
z
" style="stroke: #21918c; stroke-opacity: 0.8"/>
    </defs>
    <g clip-path="url(#p4d540114b7)">
     <use xlink:href="#m656e3bf4e5" x="261.606011" y="152.47646" style="fill: #21918c; fill-opacity: 0.8; stroke: #21918c; stroke-opacity: 0.8"/>
     <use xlink:href="#m656e3bf4e5" x="76.312802" y="218.645049" style="fill: #21918c; fill-opacity: 0.8; stroke: #21918c; stroke-opacity: 0.8"/>
     <use xlink:href="#m656e3bf4e5" x="144.253645" y="157.495013" style="fill: #21918c; fill-opacity: 0.8; stroke: #21918c; stroke-opacity: 0.8"/>
     <use xlink:href="#m656e3bf4e5" x="267.782452" y="212.383921" style="fill: #21918c; fill-opacity: 0.8; stroke: #21918c; stroke-opacity: 0.8"/>
     <use xlink:href="#m656e3bf4e5" x="193.665168" y="182.054258" style="fill: #21918c; fill-opacity: 0.8; stroke: #21918c; stroke-opacity: 0.8"/>
     <use xlink:href="#m656e3bf4e5" x="243.07669" y="148.001627" style="fill: #21918c; fill-opacity: 0.8; stroke: #21918c; stroke-opacity: 0.8"/>
     <use xlink:href="#m656e3bf4e5" x="150.430086" y="147.929275" style="fill: #21918c; fill-opacity: 0.8; stroke: #21918c; stroke-opacity: 0.8"/>
     <use xlink:href="#m656e3bf4e5" x="267.782452" y="117.131549" style="fill: #21918c; fill-opacity: 0.8; stroke: #21918c; stroke-opacity: 0.8"/>
     <use xlink:href="#m656e3bf4e5" x="156.606526" y="20.822727" style="fill: #21918c; fill-opacity: 0.8; stroke: #21918c; stroke-opacity: 0.8"/>
     <use xlink:href="#m656e3bf4e5" x="286.311773" y="195.04033" style="fill: #21918c; fill-opacity: 0.8; stroke: #21918c; stroke-opacity: 0.8"/>
     <use xlink:href="#m656e3bf4e5" x="187.488728" y="160.353417" style="fill: #21918c; fill-opacity: 0.8; stroke: #21918c; stroke-opacity: 0.8"/>
     <use xlink:href="#m656e3bf4e5" x="82.489242" y="125.625842" style="fill: #21918c; fill-opacity: 0.8; stroke: #21918c; stroke-opacity: 0.8"/>
     <use xlink:href="#m656e3bf4e5" x="199.841608" y="115.841402" style="fill: #21918c; fill-opacity: 0.8; stroke: #21918c; stroke-opacity: 0.8"/>
     <use xlink:href="#m656e3bf4e5" x="156.606526" y="183.010399" style="fill: #21918c; fill-opacity: 0.8; stroke: #21918c; stroke-opacity: 0.8"/>
     <use xlink:href="#m656e3bf4e5" x="298.664653" y="132.954953" style="fill: #21918c; fill-opacity: 0.8; stroke: #21918c; stroke-opacity: 0.8"/>
     <use xlink:href="#m656e3bf4e5" x="82.489242" y="126.583516" style="fill: #21918c; fill-opacity: 0.8; stroke: #21918c; stroke-opacity: 0.8"/>
     <use xlink:href="#m656e3bf4e5" x="76.312802" y="161.223629" style="fill: #21918c; fill-opacity: 0.8; stroke: #21918c; stroke-opacity: 0.8"/>
     <use xlink:href="#m656e3bf4e5" x="261.606011" y="146.94218" style="fill: #21918c; fill-opacity: 0.8; stroke: #21918c; stroke-opacity: 0.8"/>
     <use xlink:href="#m656e3bf4e5" x="138.077205" y="157.835794" style="fill: #21918c; fill-opacity: 0.8; stroke: #21918c; stroke-opacity: 0.8"/>
     <use xlink:href="#m656e3bf4e5" x="125.724325" y="227.802836" style="fill: #21918c; fill-opacity: 0.8; stroke: #21918c; stroke-opacity: 0.8"/>
     <use xlink:href="#m656e3bf4e5" x="298.664653" y="150.837395" style="fill: #21918c; fill-opacity: 0.8; stroke: #21918c; stroke-opacity: 0.8"/>
     <use xlink:href="#m656e3bf4e5" x="119.547884" y="172.726193" style="fill: #21918c; fill-opacity: 0.8; stroke: #21918c; stroke-opacity: 0.8"/>
     <use xlink:href="#m656e3bf4e5" x="94.842123" y="150.807226" style="fill: #21918c; fill-opacity: 0.8; stroke: #21918c; stroke-opacity: 0.8"/>
     <use xlink:href="#m656e3bf4e5" x="76.312802" y="218.7635" style="fill: #21918c; fill-opacity: 0.8; stroke: #21918c; stroke-opacity: 0.8"/>
    </g>
   </g>
   <g id="PolyCollection_3">
    <defs>
     <path id="m753c953139" d="M 76.312802 -214.985923 
L 76.312802 -157.719449 
L 78.55878 -158.119642 
L 80.804759 -158.519835 
L 83.050737 -158.984148 
L 85.296715 -159.572875 
L 87.542694 -160.267853 
L 89.788672 -160.962831 
L 92.03465 -161.397663 
L 94.280628 -161.779857 
L 96.526607 -162.162052 
L 98.772585 -162.544247 
L 101.018563 -162.926441 
L 103.264542 -163.336859 
L 105.51052 -163.845388 
L 107.756498 -164.352381 
L 110.002477 -164.838191 
L 112.248455 -165.324 
L 114.494433 -165.685817 
L 116.740411 -165.966476 
L 118.98639 -166.293721 
L 121.232368 -166.635218 
L 123.478346 -167.132044 
L 125.724325 -167.638302 
L 127.970303 -168.014004 
L 130.216281 -168.363455 
L 132.462259 -168.750904 
L 134.708238 -169.30453 
L 136.954216 -169.669005 
L 139.200194 -170.131877 
L 141.446173 -170.593789 
L 143.692151 -170.959218 
L 145.938129 -171.30791 
L 148.184108 -171.843392 
L 150.430086 -172.289788 
L 152.676064 -172.787152 
L 154.922042 -172.988717 
L 157.168021 -173.356252 
L 159.413999 -173.636125 
L 161.659977 -173.835521 
L 163.905956 -174.131179 
L 166.151934 -174.367142 
L 168.397912 -174.536953 
L 170.64389 -174.977789 
L 172.889869 -175.416659 
L 175.135847 -175.449179 
L 177.381825 -175.852463 
L 179.627804 -176.208302 
L 181.873782 -176.584751 
L 184.11976 -176.822669 
L 186.365739 -177.0287 
L 188.611717 -177.348683 
L 190.857695 -177.447634 
L 193.103673 -177.65442 
L 195.349652 -177.720952 
L 197.59563 -177.709726 
L 199.841608 -178.050383 
L 202.087587 -178.39104 
L 204.333565 -178.518853 
L 206.579543 -178.768293 
L 208.825521 -178.849264 
L 211.0715 -178.717423 
L 213.317478 -178.530583 
L 215.563456 -178.630828 
L 217.809435 -178.827468 
L 220.055413 -178.850665 
L 222.301391 -178.947813 
L 224.54737 -178.854759 
L 226.793348 -178.786614 
L 229.039326 -178.732942 
L 231.285304 -178.815357 
L 233.531283 -179.008621 
L 235.777261 -178.967352 
L 238.023239 -178.923143 
L 240.269218 -178.882062 
L 242.515196 -178.811735 
L 244.761174 -178.677528 
L 247.007152 -178.543321 
L 249.253131 -178.496856 
L 251.499109 -178.564556 
L 253.745087 -178.47927 
L 255.991066 -178.379066 
L 258.237044 -178.335016 
L 260.483022 -178.294992 
L 262.729001 -178.198595 
L 264.974979 -177.956139 
L 267.220957 -178.126576 
L 269.466935 -177.893021 
L 271.712914 -177.558753 
L 273.958892 -177.22487 
L 276.20487 -176.893793 
L 278.450849 -176.628213 
L 280.696827 -176.424125 
L 282.942805 -176.347042 
L 285.188783 -176.206143 
L 287.434762 -176.07159 
L 289.68074 -175.937038 
L 291.926718 -175.802486 
L 294.172697 -175.667933 
L 296.418675 -175.49386 
L 298.664653 -175.360122 
L 298.664653 -221.982378 
L 298.664653 -221.982378 
L 296.418675 -221.549381 
L 294.172697 -221.102555 
L 291.926718 -220.614148 
L 289.68074 -220.125741 
L 287.434762 -219.640436 
L 285.188783 -219.248192 
L 282.942805 -218.855948 
L 280.696827 -218.463704 
L 278.450849 -218.07146 
L 276.20487 -217.679217 
L 273.958892 -217.286892 
L 271.712914 -216.728632 
L 269.466935 -216.236264 
L 267.220957 -215.877621 
L 264.974979 -215.517107 
L 262.729001 -215.127076 
L 260.483022 -214.802507 
L 258.237044 -214.511159 
L 255.991066 -214.158331 
L 253.745087 -213.925735 
L 251.499109 -213.824569 
L 249.253131 -213.402756 
L 247.007152 -213.113249 
L 244.761174 -212.570827 
L 242.515196 -212.264235 
L 240.269218 -212.190279 
L 238.023239 -212.112563 
L 235.777261 -211.793104 
L 233.531283 -211.579952 
L 231.285304 -211.425931 
L 229.039326 -211.101943 
L 226.793348 -210.797638 
L 224.54737 -210.649089 
L 222.301391 -210.581909 
L 220.055413 -210.413218 
L 217.809435 -210.44718 
L 215.563456 -210.269933 
L 213.317478 -210.231721 
L 211.0715 -210.247907 
L 208.825521 -210.181622 
L 206.579543 -210.030139 
L 204.333565 -209.839278 
L 202.087587 -209.659196 
L 199.841608 -209.453817 
L 197.59563 -209.30066 
L 195.349652 -209.600122 
L 193.103673 -209.506314 
L 190.857695 -209.607452 
L 188.611717 -209.430476 
L 186.365739 -209.113607 
L 184.11976 -208.958212 
L 181.873782 -208.95373 
L 179.627804 -208.929292 
L 177.381825 -208.68841 
L 175.135847 -208.575989 
L 172.889869 -208.468492 
L 170.64389 -208.355517 
L 168.397912 -208.369998 
L 166.151934 -208.492483 
L 163.905956 -208.333456 
L 161.659977 -208.429458 
L 159.413999 -208.572961 
L 157.168021 -208.681358 
L 154.922042 -208.827729 
L 152.676064 -209.172064 
L 150.430086 -209.277818 
L 148.184108 -209.303655 
L 145.938129 -209.393 
L 143.692151 -209.541333 
L 141.446173 -209.686076 
L 139.200194 -209.957977 
L 136.954216 -209.97295 
L 134.708238 -210.06485 
L 132.462259 -210.120159 
L 130.216281 -210.172422 
L 127.970303 -210.276113 
L 125.724325 -210.399989 
L 123.478346 -210.702086 
L 121.232368 -210.934474 
L 118.98639 -210.90431 
L 116.740411 -211.220541 
L 114.494433 -211.433038 
L 112.248455 -211.580451 
L 110.002477 -211.860919 
L 107.756498 -212.169026 
L 105.51052 -212.246732 
L 103.264542 -212.343876 
L 101.018563 -212.572 
L 98.772585 -212.819591 
L 96.526607 -213.066237 
L 94.280628 -213.199403 
L 92.03465 -213.383515 
L 89.788672 -213.641905 
L 87.542694 -213.936461 
L 85.296715 -214.257196 
L 83.050737 -214.524836 
L 80.804759 -214.750339 
L 78.55878 -214.879476 
L 76.312802 -214.985923 
z
" style="stroke: #ffffff; stroke-opacity: 0.15"/>
    </defs>
    <g clip-path="url(#p4d540114b7)">
     <use xlink:href="#m753c953139" x="0" y="348.774844" style="fill: #21918c; fill-opacity: 0.15; stroke: #ffffff; stroke-opacity: 0.15"/>
    </g>
   </g>
   <g id="PathCollection_4">
    <defs>
     <path id="m2583b3aca3" d="M 0 3 
C 0.795609 3 1.55874 2.683901 2.12132 2.12132 
C 2.683901 1.55874 3 0.795609 3 0 
C 3 -0.795609 2.683901 -1.55874 2.12132 -2.12132 
C 1.55874 -2.683901 0.795609 -3 0 -3 
C -0.795609 -3 -1.55874 -2.683901 -2.12132 -2.12132 
C -2.683901 -1.55874 -3 -0.795609 -3 0 
C -3 0.795609 -2.683901 1.55874 -2.12132 2.12132 
C -1.55874 2.683901 -0.795609 3 0 3 
z
" style="stroke: #35b779; stroke-opacity: 0.8"/>
    </defs>
    <g clip-path="url(#p4d540114b7)">
     <use xlink:href="#m2583b3aca3" x="131.900765" y="88.684985" style="fill: #35b779; fill-opacity: 0.8; stroke: #35b779; stroke-opacity: 0.8"/>
     <use xlink:href="#m2583b3aca3" x="218.370929" y="41.01167" style="fill: #35b779; fill-opacity: 0.8; stroke: #35b779; stroke-opacity: 0.8"/>
     <use xlink:href="#m2583b3aca3" x="175.135847" y="140.497021" style="fill: #35b779; fill-opacity: 0.8; stroke: #35b779; stroke-opacity: 0.8"/>
     <use xlink:href="#m2583b3aca3" x="125.724325" y="181.754012" style="fill: #35b779; fill-opacity: 0.8; stroke: #35b779; stroke-opacity: 0.8"/>
     <use xlink:href="#m2583b3aca3" x="88.665683" y="81.480331" style="fill: #35b779; fill-opacity: 0.8; stroke: #35b779; stroke-opacity: 0.8"/>
     <use xlink:href="#m2583b3aca3" x="230.72381" y="119.004891" style="fill: #35b779; fill-opacity: 0.8; stroke: #35b779; stroke-opacity: 0.8"/>
     <use xlink:href="#m2583b3aca3" x="236.90025" y="134.972751" style="fill: #35b779; fill-opacity: 0.8; stroke: #35b779; stroke-opacity: 0.8"/>
     <use xlink:href="#m2583b3aca3" x="323.370414" y="141.335114" style="fill: #35b779; fill-opacity: 0.8; stroke: #35b779; stroke-opacity: 0.8"/>
     <use xlink:href="#m2583b3aca3" x="162.782966" y="83.304128" style="fill: #35b779; fill-opacity: 0.8; stroke: #35b779; stroke-opacity: 0.8"/>
     <use xlink:href="#m2583b3aca3" x="267.782452" y="190.910066" style="fill: #35b779; fill-opacity: 0.8; stroke: #35b779; stroke-opacity: 0.8"/>
     <use xlink:href="#m2583b3aca3" x="70.136362" y="142.18355" style="fill: #35b779; fill-opacity: 0.8; stroke: #35b779; stroke-opacity: 0.8"/>
     <use xlink:href="#m2583b3aca3" x="280.135332" y="109.021632" style="fill: #35b779; fill-opacity: 0.8; stroke: #35b779; stroke-opacity: 0.8"/>
     <use xlink:href="#m2583b3aca3" x="107.195004" y="113.079973" style="fill: #35b779; fill-opacity: 0.8; stroke: #35b779; stroke-opacity: 0.8"/>
     <use xlink:href="#m2583b3aca3" x="243.07669" y="98.252399" style="fill: #35b779; fill-opacity: 0.8; stroke: #35b779; stroke-opacity: 0.8"/>
     <use xlink:href="#m2583b3aca3" x="249.253131" y="137.944217" style="fill: #35b779; fill-opacity: 0.8; stroke: #35b779; stroke-opacity: 0.8"/>
     <use xlink:href="#m2583b3aca3" x="181.312287" y="185.941282" style="fill: #35b779; fill-opacity: 0.8; stroke: #35b779; stroke-opacity: 0.8"/>
     <use xlink:href="#m2583b3aca3" x="175.135847" y="120.261837" style="fill: #35b779; fill-opacity: 0.8; stroke: #35b779; stroke-opacity: 0.8"/>
     <use xlink:href="#m2583b3aca3" x="156.606526" y="231.726715" style="fill: #35b779; fill-opacity: 0.8; stroke: #35b779; stroke-opacity: 0.8"/>
     <use xlink:href="#m2583b3aca3" x="144.253645" y="143.181607" style="fill: #35b779; fill-opacity: 0.8; stroke: #35b779; stroke-opacity: 0.8"/>
    </g>
   </g>
   <g id="PolyCollection_4">
    <defs>
     <path id="m1b20acbef1" d="M 70.136362 -254.544987 
L 70.136362 -181.339237 
L 72.694282 -182.171117 
L 75.252201 -182.532621 
L 77.810121 -183.471209 
L 80.368041 -183.927327 
L 82.92596 -184.294129 
L 85.48388 -184.657039 
L 88.0418 -185.01995 
L 90.59972 -185.38286 
L 93.157639 -185.74577 
L 95.715559 -186.128436 
L 98.273479 -186.930074 
L 100.831398 -187.362041 
L 103.389318 -187.640563 
L 105.947238 -187.905895 
L 108.505158 -188.549434 
L 111.063077 -189.062662 
L 113.620997 -189.537182 
L 116.178917 -189.967232 
L 118.736837 -190.397282 
L 121.294756 -190.832523 
L 123.852676 -191.09781 
L 126.410596 -191.552114 
L 128.968515 -192.137805 
L 131.526435 -192.721907 
L 134.084355 -193.27232 
L 136.642275 -193.889305 
L 139.200194 -194.033835 
L 141.758114 -194.303643 
L 144.316034 -194.740986 
L 146.873954 -195.227012 
L 149.431873 -195.375244 
L 151.989793 -195.509563 
L 154.547713 -195.975368 
L 157.105632 -196.441172 
L 159.663552 -196.281928 
L 162.221472 -196.008065 
L 164.779392 -196.259035 
L 167.337311 -196.540627 
L 169.895231 -197.289779 
L 172.453151 -197.146358 
L 175.01107 -197.000077 
L 177.56899 -196.576738 
L 180.12691 -196.599426 
L 182.68483 -196.936525 
L 185.242749 -197.275759 
L 187.800669 -197.329085 
L 190.358589 -197.391713 
L 192.916509 -197.216658 
L 195.474428 -197.211606 
L 198.032348 -196.735425 
L 200.590268 -196.356019 
L 203.148187 -196.647473 
L 205.706107 -196.314056 
L 208.264027 -196.111943 
L 210.821947 -196.162909 
L 213.379866 -195.883107 
L 215.937786 -195.239634 
L 218.495706 -195.207926 
L 221.053625 -194.875273 
L 223.611545 -195.113051 
L 226.169465 -194.941736 
L 228.727385 -194.527673 
L 231.285304 -194.391993 
L 233.843224 -193.884271 
L 236.401144 -193.476209 
L 238.959064 -193.116347 
L 241.516983 -192.775396 
L 244.074903 -192.406227 
L 246.632823 -191.875439 
L 249.190742 -191.442221 
L 251.748662 -190.730905 
L 254.306582 -189.983023 
L 256.864502 -189.864458 
L 259.422421 -189.514355 
L 261.980341 -188.837535 
L 264.538261 -188.543281 
L 267.096181 -188.249028 
L 269.6541 -187.87559 
L 272.21202 -187.339615 
L 274.76994 -186.704533 
L 277.327859 -186.335151 
L 279.885779 -186.003919 
L 282.443699 -185.672686 
L 285.001619 -185.341454 
L 287.559538 -185.010222 
L 290.117458 -184.67899 
L 292.675378 -184.347758 
L 295.233297 -184.016525 
L 297.791217 -183.336824 
L 300.349137 -182.686596 
L 302.907057 -182.405435 
L 305.464976 -182.006743 
L 308.022896 -181.60805 
L 310.580816 -181.21395 
L 313.138736 -180.828644 
L 315.696655 -180.443337 
L 318.254575 -180.056524 
L 320.812495 -179.429008 
L 323.370414 -178.687313 
L 323.370414 -260.055478 
L 323.370414 -260.055478 
L 320.812495 -259.474311 
L 318.254575 -258.879856 
L 315.696655 -258.315487 
L 313.138736 -257.646368 
L 310.580816 -256.914197 
L 308.022896 -256.163189 
L 305.464976 -255.596833 
L 302.907057 -255.011799 
L 300.349137 -254.518919 
L 297.791217 -253.865923 
L 295.233297 -253.141996 
L 292.675378 -252.625914 
L 290.117458 -252.348321 
L 287.559538 -251.933397 
L 285.001619 -251.299046 
L 282.443699 -250.593924 
L 279.885779 -249.888801 
L 277.327859 -249.183679 
L 274.76994 -248.761935 
L 272.21202 -248.372954 
L 269.6541 -247.885298 
L 267.096181 -247.385181 
L 264.538261 -247.038699 
L 261.980341 -246.692216 
L 259.422421 -246.134631 
L 256.864502 -245.887705 
L 254.306582 -245.620468 
L 251.748662 -245.121094 
L 249.190742 -244.623128 
L 246.632823 -244.124459 
L 244.074903 -243.681061 
L 241.516983 -243.192176 
L 238.959064 -242.823159 
L 236.401144 -242.629128 
L 233.843224 -242.306667 
L 231.285304 -241.964214 
L 228.727385 -241.61741 
L 226.169465 -241.270606 
L 223.611545 -240.923803 
L 221.053625 -240.637621 
L 218.495706 -240.303044 
L 215.937786 -239.883391 
L 213.379866 -239.27304 
L 210.821947 -239.153357 
L 208.264027 -238.672275 
L 205.706107 -238.482754 
L 203.148187 -238.169084 
L 200.590268 -237.817236 
L 198.032348 -237.660424 
L 195.474428 -237.340425 
L 192.916509 -237.385797 
L 190.358589 -237.499107 
L 187.800669 -237.55731 
L 185.242749 -237.671344 
L 182.68483 -237.615371 
L 180.12691 -237.715339 
L 177.56899 -237.811115 
L 175.01107 -238.066783 
L 172.453151 -237.967328 
L 169.895231 -238.283583 
L 167.337311 -238.466578 
L 164.779392 -238.58015 
L 162.221472 -238.693087 
L 159.663552 -238.807294 
L 157.105632 -238.847303 
L 154.547713 -239.034439 
L 151.989793 -239.223502 
L 149.431873 -239.63069 
L 146.873954 -240.00584 
L 144.316034 -240.396702 
L 141.758114 -240.787564 
L 139.200194 -241.178426 
L 136.642275 -241.543433 
L 134.084355 -241.928414 
L 131.526435 -242.351013 
L 128.968515 -242.517495 
L 126.410596 -242.895533 
L 123.852676 -243.219064 
L 121.294756 -243.506565 
L 118.736837 -243.783977 
L 116.178917 -244.061389 
L 113.620997 -244.565869 
L 111.063077 -245.111584 
L 108.505158 -245.561189 
L 105.947238 -246.200142 
L 103.389318 -246.603888 
L 100.831398 -246.985081 
L 98.273479 -247.437007 
L 95.715559 -248.185311 
L 93.157639 -248.750141 
L 90.59972 -249.271762 
L 88.0418 -249.951514 
L 85.48388 -250.706773 
L 82.92596 -251.581788 
L 80.368041 -252.035446 
L 77.810121 -252.745266 
L 75.252201 -253.479605 
L 72.694282 -254.205776 
L 70.136362 -254.544987 
z
" style="stroke: #ffffff; stroke-opacity: 0.15"/>
    </defs>
    <g clip-path="url(#p4d540114b7)">
     <use xlink:href="#m1b20acbef1" x="0" y="348.774844" style="fill: #35b779; fill-opacity: 0.15; stroke: #ffffff; stroke-opacity: 0.15"/>
    </g>
   </g>
   <g id="PathCollection_5">
    <defs>
     <path id="mf7f779bc9f" d="M 0 3 
C 0.795609 3 1.55874 2.683901 2.12132 2.12132 
C 2.683901 1.55874 3 0.795609 3 0 
C 3 -0.795609 2.683901 -1.55874 2.12132 -2.12132 
C 1.55874 -2.683901 0.795609 -3 0 -3 
C -0.795609 -3 -1.55874 -2.683901 -2.12132 -2.12132 
C -2.683901 -1.55874 -3 -0.795609 -3 0 
C -3 0.795609 -2.683901 1.55874 -2.12132 2.12132 
C -1.55874 2.683901 -0.795609 3 0 3 
z
" style="stroke: #90d743; stroke-opacity: 0.8"/>
    </defs>
    <g clip-path="url(#p4d540114b7)">
     <use xlink:href="#mf7f779bc9f" x="119.547884" y="181.872432" style="fill: #90d743; fill-opacity: 0.8; stroke: #90d743; stroke-opacity: 0.8"/>
     <use xlink:href="#mf7f779bc9f" x="144.253645" y="105.671" style="fill: #90d743; fill-opacity: 0.8; stroke: #90d743; stroke-opacity: 0.8"/>
     <use xlink:href="#mf7f779bc9f" x="323.370414" y="52.965598" style="fill: #90d743; fill-opacity: 0.8; stroke: #90d743; stroke-opacity: 0.8"/>
     <use xlink:href="#mf7f779bc9f" x="76.312802" y="163.662863" style="fill: #90d743; fill-opacity: 0.8; stroke: #90d743; stroke-opacity: 0.8"/>
     <use xlink:href="#mf7f779bc9f" x="273.958892" y="89.193135" style="fill: #90d743; fill-opacity: 0.8; stroke: #90d743; stroke-opacity: 0.8"/>
     <use xlink:href="#mf7f779bc9f" x="286.311773" y="132.977613" style="fill: #90d743; fill-opacity: 0.8; stroke: #90d743; stroke-opacity: 0.8"/>
     <use xlink:href="#mf7f779bc9f" x="82.489242" y="133.082271" style="fill: #90d743; fill-opacity: 0.8; stroke: #90d743; stroke-opacity: 0.8"/>
     <use xlink:href="#mf7f779bc9f" x="261.606011" y="154.477786" style="fill: #90d743; fill-opacity: 0.8; stroke: #90d743; stroke-opacity: 0.8"/>
     <use xlink:href="#mf7f779bc9f" x="311.017534" y="114.50639" style="fill: #90d743; fill-opacity: 0.8; stroke: #90d743; stroke-opacity: 0.8"/>
     <use xlink:href="#mf7f779bc9f" x="70.136362" y="128.631258" style="fill: #90d743; fill-opacity: 0.8; stroke: #90d743; stroke-opacity: 0.8"/>
     <use xlink:href="#mf7f779bc9f" x="249.253131" y="207.137088" style="fill: #90d743; fill-opacity: 0.8; stroke: #90d743; stroke-opacity: 0.8"/>
     <use xlink:href="#mf7f779bc9f" x="230.72381" y="104.288217" style="fill: #90d743; fill-opacity: 0.8; stroke: #90d743; stroke-opacity: 0.8"/>
     <use xlink:href="#mf7f779bc9f" x="230.72381" y="160.281323" style="fill: #90d743; fill-opacity: 0.8; stroke: #90d743; stroke-opacity: 0.8"/>
     <use xlink:href="#mf7f779bc9f" x="230.72381" y="152.263829" style="fill: #90d743; fill-opacity: 0.8; stroke: #90d743; stroke-opacity: 0.8"/>
     <use xlink:href="#mf7f779bc9f" x="224.54737" y="158.231418" style="fill: #90d743; fill-opacity: 0.8; stroke: #90d743; stroke-opacity: 0.8"/>
     <use xlink:href="#mf7f779bc9f" x="125.724325" y="78.908444" style="fill: #90d743; fill-opacity: 0.8; stroke: #90d743; stroke-opacity: 0.8"/>
    </g>
   </g>
   <g id="PolyCollection_5">
    <defs>
     <path id="m27e41fd5fc" d="M 70.136362 -238.275151 
L 70.136362 -167.054331 
L 72.694282 -167.950759 
L 75.252201 -168.85328 
L 77.810121 -169.755801 
L 80.368041 -170.658322 
L 82.92596 -171.560843 
L 85.48388 -172.463364 
L 88.0418 -173.133585 
L 90.59972 -173.761007 
L 93.157639 -174.388429 
L 95.715559 -175.015852 
L 98.273479 -175.643274 
L 100.831398 -176.330245 
L 103.389318 -177.09962 
L 105.947238 -177.868994 
L 108.505158 -178.639644 
L 111.063077 -179.164264 
L 113.620997 -179.990833 
L 116.178917 -180.890342 
L 118.736837 -181.707113 
L 121.294756 -182.272881 
L 123.852676 -182.844911 
L 126.410596 -183.416941 
L 128.968515 -184.190985 
L 131.526435 -185.002392 
L 134.084355 -185.75417 
L 136.642275 -186.034243 
L 139.200194 -186.314317 
L 141.758114 -186.812129 
L 144.316034 -187.714452 
L 146.873954 -188.623599 
L 149.431873 -189.533714 
L 151.989793 -190.214447 
L 154.547713 -190.538588 
L 157.105632 -191.304806 
L 159.663552 -191.829173 
L 162.221472 -191.99035 
L 164.779392 -192.206567 
L 167.337311 -192.557926 
L 169.895231 -193.450673 
L 172.453151 -193.731299 
L 175.01107 -194.265017 
L 177.56899 -194.424092 
L 180.12691 -194.554028 
L 182.68483 -194.685329 
L 185.242749 -194.635176 
L 187.800669 -194.712862 
L 190.358589 -194.992329 
L 192.916509 -195.377332 
L 195.474428 -195.535695 
L 198.032348 -195.81992 
L 200.590268 -195.80893 
L 203.148187 -195.431315 
L 205.706107 -195.642653 
L 208.264027 -195.549007 
L 210.821947 -195.514692 
L 213.379866 -195.528133 
L 215.937786 -195.0954 
L 218.495706 -194.99645 
L 221.053625 -195.040893 
L 223.611545 -195.148091 
L 226.169465 -195.588134 
L 228.727385 -195.705795 
L 231.285304 -195.737782 
L 233.843224 -195.999135 
L 236.401144 -195.853952 
L 238.959064 -195.483695 
L 241.516983 -195.04271 
L 244.074903 -194.780187 
L 246.632823 -194.202873 
L 249.190742 -193.980979 
L 251.748662 -193.841062 
L 254.306582 -193.319605 
L 256.864502 -192.798148 
L 259.422421 -192.28796 
L 261.980341 -191.881269 
L 264.538261 -191.348719 
L 267.096181 -191.142267 
L 269.6541 -190.935204 
L 272.21202 -190.618566 
L 274.76994 -190.301928 
L 277.327859 -189.98529 
L 279.885779 -189.669769 
L 282.443699 -189.354415 
L 285.001619 -189.03906 
L 287.559538 -188.723706 
L 290.117458 -188.408352 
L 292.675378 -188.092997 
L 295.233297 -187.777643 
L 297.791217 -187.433473 
L 300.349137 -186.963109 
L 302.907057 -186.685227 
L 305.464976 -186.029655 
L 308.022896 -185.546017 
L 310.580816 -185.220087 
L 313.138736 -184.557461 
L 315.696655 -183.825501 
L 318.254575 -183.090498 
L 320.812495 -182.547756 
L 323.370414 -181.988925 
L 323.370414 -260.27094 
L 323.370414 -260.27094 
L 320.812495 -259.745745 
L 318.254575 -259.22055 
L 315.696655 -258.695355 
L 313.138736 -258.158923 
L 310.580816 -257.647722 
L 308.022896 -257.126396 
L 305.464976 -256.605069 
L 302.907057 -256.081331 
L 300.349137 -255.411171 
L 297.791217 -254.475298 
L 295.233297 -253.860103 
L 292.675378 -253.05038 
L 290.117458 -252.470459 
L 287.559538 -251.973182 
L 285.001619 -251.385347 
L 282.443699 -250.88552 
L 279.885779 -250.147813 
L 277.327859 -249.532522 
L 274.76994 -248.91723 
L 272.21202 -248.301938 
L 269.6541 -247.801634 
L 267.096181 -247.261113 
L 264.538261 -246.688195 
L 261.980341 -246.105373 
L 259.422421 -245.519962 
L 256.864502 -244.810828 
L 254.306582 -244.362609 
L 251.748662 -243.789482 
L 249.190742 -243.280887 
L 246.632823 -242.808547 
L 244.074903 -242.430858 
L 241.516983 -241.914371 
L 238.959064 -241.253827 
L 236.401144 -240.713288 
L 233.843224 -240.202272 
L 231.285304 -239.927721 
L 228.727385 -239.624699 
L 226.169465 -239.202364 
L 223.611545 -238.822455 
L 221.053625 -238.386766 
L 218.495706 -237.951077 
L 215.937786 -237.507044 
L 213.379866 -237.112985 
L 210.821947 -236.798568 
L 208.264027 -236.683904 
L 205.706107 -236.213661 
L 203.148187 -235.806197 
L 200.590268 -235.485734 
L 198.032348 -234.946707 
L 195.474428 -234.371787 
L 192.916509 -234.182718 
L 190.358589 -233.794127 
L 187.800669 -233.673797 
L 185.242749 -233.546261 
L 182.68483 -233.138789 
L 180.12691 -233.144696 
L 177.56899 -232.69689 
L 175.01107 -232.68486 
L 172.453151 -232.667294 
L 169.895231 -232.273421 
L 167.337311 -232.014905 
L 164.779392 -232.106502 
L 162.221472 -231.721949 
L 159.663552 -231.846222 
L 157.105632 -231.965053 
L 154.547713 -231.941624 
L 151.989793 -231.784077 
L 149.431873 -231.803535 
L 146.873954 -231.978852 
L 144.316034 -231.897297 
L 141.758114 -232.223324 
L 139.200194 -232.345212 
L 136.642275 -232.154415 
L 134.084355 -232.501353 
L 131.526435 -232.508146 
L 128.968515 -232.803565 
L 126.410596 -232.992193 
L 123.852676 -233.136614 
L 121.294756 -233.527219 
L 118.736837 -233.533148 
L 116.178917 -233.493817 
L 113.620997 -233.484904 
L 111.063077 -233.461365 
L 108.505158 -233.585923 
L 105.947238 -233.828507 
L 103.389318 -234.027357 
L 100.831398 -234.615762 
L 98.273479 -234.841017 
L 95.715559 -235.063324 
L 93.157639 -235.376623 
L 90.59972 -235.739477 
L 88.0418 -235.890875 
L 85.48388 -236.009567 
L 82.92596 -236.255446 
L 80.368041 -236.63909 
L 77.810121 -237.019932 
L 75.252201 -237.442153 
L 72.694282 -237.961561 
L 70.136362 -238.275151 
z
" style="stroke: #ffffff; stroke-opacity: 0.15"/>
    </defs>
    <g clip-path="url(#p4d540114b7)">
     <use xlink:href="#m27e41fd5fc" x="0" y="348.774844" style="fill: #90d743; fill-opacity: 0.15; stroke: #ffffff; stroke-opacity: 0.15"/>
    </g>
   </g>
   <g id="line2d_12">
    <path d="M 82.489242 138.268963 
L 84.984774 138.381146 
L 87.480305 138.493329 
L 89.975837 138.605511 
L 92.471368 138.717694 
L 94.9669 138.829877 
L 97.462431 138.94206 
L 99.957962 139.054243 
L 102.453494 139.166425 
L 104.949025 139.278608 
L 107.444557 139.390791 
L 109.940088 139.502974 
L 112.43562 139.615157 
L 114.931151 139.727339 
L 117.426683 139.839522 
L 119.922214 139.951705 
L 122.417745 140.063888 
L 124.913277 140.176071 
L 127.408808 140.288253 
L 129.90434 140.400436 
L 132.399871 140.512619 
L 134.895403 140.624802 
L 137.390934 140.736985 
L 139.886465 140.849167 
L 142.381997 140.96135 
L 144.877528 141.073533 
L 147.37306 141.185716 
L 149.868591 141.297899 
L 152.364123 141.410082 
L 154.859654 141.522264 
L 157.355186 141.634447 
L 159.850717 141.74663 
L 162.346248 141.858813 
L 164.84178 141.970996 
L 167.337311 142.083178 
L 169.832843 142.195361 
L 172.328374 142.307544 
L 174.823906 142.419727 
L 177.319437 142.53191 
L 179.814968 142.644092 
L 182.3105 142.756275 
L 184.806031 142.868458 
L 187.301563 142.980641 
L 189.797094 143.092824 
L 192.292626 143.205006 
L 194.788157 143.317189 
L 197.283689 143.429372 
L 199.77922 143.541555 
L 202.274751 143.653738 
L 204.770283 143.76592 
L 207.265814 143.878103 
L 209.761346 143.990286 
L 212.256877 144.102469 
L 214.752409 144.214652 
L 217.24794 144.326834 
L 219.743471 144.439017 
L 222.239003 144.5512 
L 224.734534 144.663383 
L 227.230066 144.775566 
L 229.725597 144.887748 
L 232.221129 144.999931 
L 234.71666 145.112114 
L 237.212192 145.224297 
L 239.707723 145.33648 
L 242.203254 145.448662 
L 244.698786 145.560845 
L 247.194317 145.673028 
L 249.689849 145.785211 
L 252.18538 145.897394 
L 254.680912 146.009577 
L 257.176443 146.121759 
L 259.671974 146.233942 
L 262.167506 146.346125 
L 264.663037 146.458308 
L 267.158569 146.570491 
L 269.6541 146.682673 
L 272.149632 146.794856 
L 274.645163 146.907039 
L 277.140695 147.019222 
L 279.636226 147.131405 
L 282.131757 147.243587 
L 284.627289 147.35577 
L 287.12282 147.467953 
L 289.618352 147.580136 
L 292.113883 147.692319 
L 294.609415 147.804501 
L 297.104946 147.916684 
L 299.600478 148.028867 
L 302.096009 148.14105 
L 304.59154 148.253233 
L 307.087072 148.365415 
L 309.582603 148.477598 
L 312.078135 148.589781 
L 314.573666 148.701964 
L 317.069198 148.814147 
L 319.564729 148.926329 
L 322.06026 149.038512 
L 324.555792 149.150695 
L 327.051323 149.262878 
L 329.546855 149.375061 
" clip-path="url(#p4d540114b7)" style="fill: none; stroke: #443983; stroke-width: 2.25; stroke-linecap: round"/>
   </g>
   <g id="line2d_13">
    <path d="M 57.783481 144.549709 
L 60.403789 144.69474 
L 63.024097 144.839771 
L 65.644405 144.984801 
L 68.264713 145.129832 
L 70.885021 145.274863 
L 73.505329 145.419893 
L 76.125637 145.564924 
L 78.745945 145.709955 
L 81.366253 145.854985 
L 83.986561 146.000016 
L 86.606869 146.145047 
L 89.227177 146.290077 
L 91.847485 146.435108 
L 94.467793 146.580139 
L 97.088101 146.725169 
L 99.708409 146.8702 
L 102.328717 147.01523 
L 104.949025 147.160261 
L 107.569333 147.305292 
L 110.189641 147.450322 
L 112.809949 147.595353 
L 115.430257 147.740384 
L 118.050565 147.885414 
L 120.670873 148.030445 
L 123.291181 148.175476 
L 125.911489 148.320506 
L 128.531797 148.465537 
L 131.152105 148.610568 
L 133.772413 148.755598 
L 136.392721 148.900629 
L 139.013029 149.04566 
L 141.633337 149.19069 
L 144.253645 149.335721 
L 146.873954 149.480752 
L 149.494262 149.625782 
L 152.11457 149.770813 
L 154.734878 149.915844 
L 157.355186 150.060874 
L 159.975494 150.205905 
L 162.595802 150.350936 
L 165.21611 150.495966 
L 167.836418 150.640997 
L 170.456726 150.786028 
L 173.077034 150.931058 
L 175.697342 151.076089 
L 178.31765 151.22112 
L 180.937958 151.36615 
L 183.558266 151.511181 
L 186.178574 151.656212 
L 188.798882 151.801242 
L 191.41919 151.946273 
L 194.039498 152.091304 
L 196.659806 152.236334 
L 199.280114 152.381365 
L 201.900422 152.526395 
L 204.52073 152.671426 
L 207.141038 152.816457 
L 209.761346 152.961487 
L 212.381654 153.106518 
L 215.001962 153.251549 
L 217.62227 153.396579 
L 220.242578 153.54161 
L 222.862886 153.686641 
L 225.483194 153.831671 
L 228.103502 153.976702 
L 230.72381 154.121733 
L 233.344118 154.266763 
L 235.964426 154.411794 
L 238.584734 154.556825 
L 241.205042 154.701855 
L 243.82535 154.846886 
L 246.445658 154.991917 
L 249.065966 155.136947 
L 251.686274 155.281978 
L 254.306582 155.427009 
L 256.92689 155.572039 
L 259.547198 155.71707 
L 262.167506 155.862101 
L 264.787814 156.007131 
L 267.408122 156.152162 
L 270.02843 156.297193 
L 272.648738 156.442223 
L 275.269046 156.587254 
L 277.889354 156.732285 
L 280.509662 156.877315 
L 283.12997 157.022346 
L 285.750278 157.167377 
L 288.370586 157.312407 
L 290.990894 157.457438 
L 293.611202 157.602468 
L 296.23151 157.747499 
L 298.851818 157.89253 
L 301.472126 158.03756 
L 304.092434 158.182591 
L 306.712742 158.327622 
L 309.33305 158.472652 
L 311.953358 158.617683 
L 314.573666 158.762714 
L 317.193974 158.907744 
" clip-path="url(#p4d540114b7)" style="fill: none; stroke: #31688e; stroke-width: 2.25; stroke-linecap: round"/>
   </g>
   <g id="line2d_14">
    <path d="M 76.312802 163.997217 
L 78.55878 163.855255 
L 80.804759 163.713293 
L 83.050737 163.571331 
L 85.296715 163.429369 
L 87.542694 163.287407 
L 89.788672 163.145445 
L 92.03465 163.003482 
L 94.280628 162.86152 
L 96.526607 162.719558 
L 98.772585 162.577596 
L 101.018563 162.435634 
L 103.264542 162.293672 
L 105.51052 162.15171 
L 107.756498 162.009748 
L 110.002477 161.867786 
L 112.248455 161.725824 
L 114.494433 161.583862 
L 116.740411 161.4419 
L 118.98639 161.299938 
L 121.232368 161.157976 
L 123.478346 161.016013 
L 125.724325 160.874051 
L 127.970303 160.732089 
L 130.216281 160.590127 
L 132.462259 160.448165 
L 134.708238 160.306203 
L 136.954216 160.164241 
L 139.200194 160.022279 
L 141.446173 159.880317 
L 143.692151 159.738355 
L 145.938129 159.596393 
L 148.184108 159.454431 
L 150.430086 159.312469 
L 152.676064 159.170507 
L 154.922042 159.028544 
L 157.168021 158.886582 
L 159.413999 158.74462 
L 161.659977 158.602658 
L 163.905956 158.460696 
L 166.151934 158.318734 
L 168.397912 158.176772 
L 170.64389 158.03481 
L 172.889869 157.892848 
L 175.135847 157.750886 
L 177.381825 157.608924 
L 179.627804 157.466962 
L 181.873782 157.325 
L 184.11976 157.183038 
L 186.365739 157.041075 
L 188.611717 156.899113 
L 190.857695 156.757151 
L 193.103673 156.615189 
L 195.349652 156.473227 
L 197.59563 156.331265 
L 199.841608 156.189303 
L 202.087587 156.047341 
L 204.333565 155.905379 
L 206.579543 155.763417 
L 208.825521 155.621455 
L 211.0715 155.479493 
L 213.317478 155.337531 
L 215.563456 155.195569 
L 217.809435 155.053606 
L 220.055413 154.911644 
L 222.301391 154.769682 
L 224.54737 154.62772 
L 226.793348 154.485758 
L 229.039326 154.343796 
L 231.285304 154.201834 
L 233.531283 154.059872 
L 235.777261 153.91791 
L 238.023239 153.775948 
L 240.269218 153.633986 
L 242.515196 153.492024 
L 244.761174 153.350062 
L 247.007152 153.2081 
L 249.253131 153.066137 
L 251.499109 152.924175 
L 253.745087 152.782213 
L 255.991066 152.640251 
L 258.237044 152.498289 
L 260.483022 152.356327 
L 262.729001 152.214365 
L 264.974979 152.072403 
L 267.220957 151.930441 
L 269.466935 151.788479 
L 271.712914 151.646517 
L 273.958892 151.504555 
L 276.20487 151.362593 
L 278.450849 151.220631 
L 280.696827 151.078668 
L 282.942805 150.936706 
L 285.188783 150.794744 
L 287.434762 150.652782 
L 289.68074 150.51082 
L 291.926718 150.368858 
L 294.172697 150.226896 
L 296.418675 150.084934 
L 298.664653 149.942972 
" clip-path="url(#p4d540114b7)" style="fill: none; stroke: #21918c; stroke-width: 2.25; stroke-linecap: round"/>
   </g>
   <g id="line2d_15">
    <path d="M 70.136362 129.209346 
L 72.694282 129.243176 
L 75.252201 129.277006 
L 77.810121 129.310836 
L 80.368041 129.344666 
L 82.92596 129.378496 
L 85.48388 129.412326 
L 88.0418 129.446155 
L 90.59972 129.479985 
L 93.157639 129.513815 
L 95.715559 129.547645 
L 98.273479 129.581475 
L 100.831398 129.615305 
L 103.389318 129.649135 
L 105.947238 129.682964 
L 108.505158 129.716794 
L 111.063077 129.750624 
L 113.620997 129.784454 
L 116.178917 129.818284 
L 118.736837 129.852114 
L 121.294756 129.885944 
L 123.852676 129.919774 
L 126.410596 129.953603 
L 128.968515 129.987433 
L 131.526435 130.021263 
L 134.084355 130.055093 
L 136.642275 130.088923 
L 139.200194 130.122753 
L 141.758114 130.156583 
L 144.316034 130.190412 
L 146.873954 130.224242 
L 149.431873 130.258072 
L 151.989793 130.291902 
L 154.547713 130.325732 
L 157.105632 130.359562 
L 159.663552 130.393392 
L 162.221472 130.427221 
L 164.779392 130.461051 
L 167.337311 130.494881 
L 169.895231 130.528711 
L 172.453151 130.562541 
L 175.01107 130.596371 
L 177.56899 130.630201 
L 180.12691 130.664031 
L 182.68483 130.69786 
L 185.242749 130.73169 
L 187.800669 130.76552 
L 190.358589 130.79935 
L 192.916509 130.83318 
L 195.474428 130.86701 
L 198.032348 130.90084 
L 200.590268 130.934669 
L 203.148187 130.968499 
L 205.706107 131.002329 
L 208.264027 131.036159 
L 210.821947 131.069989 
L 213.379866 131.103819 
L 215.937786 131.137649 
L 218.495706 131.171479 
L 221.053625 131.205308 
L 223.611545 131.239138 
L 226.169465 131.272968 
L 228.727385 131.306798 
L 231.285304 131.340628 
L 233.843224 131.374458 
L 236.401144 131.408288 
L 238.959064 131.442117 
L 241.516983 131.475947 
L 244.074903 131.509777 
L 246.632823 131.543607 
L 249.190742 131.577437 
L 251.748662 131.611267 
L 254.306582 131.645097 
L 256.864502 131.678926 
L 259.422421 131.712756 
L 261.980341 131.746586 
L 264.538261 131.780416 
L 267.096181 131.814246 
L 269.6541 131.848076 
L 272.21202 131.881906 
L 274.76994 131.915736 
L 277.327859 131.949565 
L 279.885779 131.983395 
L 282.443699 132.017225 
L 285.001619 132.051055 
L 287.559538 132.084885 
L 290.117458 132.118715 
L 292.675378 132.152545 
L 295.233297 132.186374 
L 297.791217 132.220204 
L 300.349137 132.254034 
L 302.907057 132.287864 
L 305.464976 132.321694 
L 308.022896 132.355524 
L 310.580816 132.389354 
L 313.138736 132.423183 
L 315.696655 132.457013 
L 318.254575 132.490843 
L 320.812495 132.524673 
L 323.370414 132.558503 
" clip-path="url(#p4d540114b7)" style="fill: none; stroke: #35b779; stroke-width: 2.25; stroke-linecap: round"/>
   </g>
   <g id="line2d_16">
    <path d="M 70.136362 145.051744 
L 72.694282 144.807029 
L 75.252201 144.562315 
L 77.810121 144.317601 
L 80.368041 144.072886 
L 82.92596 143.828172 
L 85.48388 143.583457 
L 88.0418 143.338743 
L 90.59972 143.094029 
L 93.157639 142.849314 
L 95.715559 142.6046 
L 98.273479 142.359886 
L 100.831398 142.115171 
L 103.389318 141.870457 
L 105.947238 141.625742 
L 108.505158 141.381028 
L 111.063077 141.136314 
L 113.620997 140.891599 
L 116.178917 140.646885 
L 118.736837 140.40217 
L 121.294756 140.157456 
L 123.852676 139.912742 
L 126.410596 139.668027 
L 128.968515 139.423313 
L 131.526435 139.178598 
L 134.084355 138.933884 
L 136.642275 138.68917 
L 139.200194 138.444455 
L 141.758114 138.199741 
L 144.316034 137.955026 
L 146.873954 137.710312 
L 149.431873 137.465598 
L 151.989793 137.220883 
L 154.547713 136.976169 
L 157.105632 136.731454 
L 159.663552 136.48674 
L 162.221472 136.242026 
L 164.779392 135.997311 
L 167.337311 135.752597 
L 169.895231 135.507882 
L 172.453151 135.263168 
L 175.01107 135.018454 
L 177.56899 134.773739 
L 180.12691 134.529025 
L 182.68483 134.28431 
L 185.242749 134.039596 
L 187.800669 133.794882 
L 190.358589 133.550167 
L 192.916509 133.305453 
L 195.474428 133.060738 
L 198.032348 132.816024 
L 200.590268 132.57131 
L 203.148187 132.326595 
L 205.706107 132.081881 
L 208.264027 131.837166 
L 210.821947 131.592452 
L 213.379866 131.347738 
L 215.937786 131.103023 
L 218.495706 130.858309 
L 221.053625 130.613594 
L 223.611545 130.36888 
L 226.169465 130.124166 
L 228.727385 129.879451 
L 231.285304 129.634737 
L 233.843224 129.390022 
L 236.401144 129.145308 
L 238.959064 128.900594 
L 241.516983 128.655879 
L 244.074903 128.411165 
L 246.632823 128.166451 
L 249.190742 127.921736 
L 251.748662 127.677022 
L 254.306582 127.432307 
L 256.864502 127.187593 
L 259.422421 126.942879 
L 261.980341 126.698164 
L 264.538261 126.45345 
L 267.096181 126.208735 
L 269.6541 125.964021 
L 272.21202 125.719307 
L 274.76994 125.474592 
L 277.327859 125.229878 
L 279.885779 124.985163 
L 282.443699 124.740449 
L 285.001619 124.495735 
L 287.559538 124.25102 
L 290.117458 124.006306 
L 292.675378 123.761591 
L 295.233297 123.516877 
L 297.791217 123.272163 
L 300.349137 123.027448 
L 302.907057 122.782734 
L 305.464976 122.538019 
L 308.022896 122.293305 
L 310.580816 122.048591 
L 313.138736 121.803876 
L 315.696655 121.559162 
L 318.254575 121.314447 
L 320.812495 121.069733 
L 323.370414 120.825019 
" clip-path="url(#p4d540114b7)" style="fill: none; stroke: #90d743; stroke-width: 2.25; stroke-linecap: round"/>
   </g>
   <g id="patch_3">
    <path d="M 44.195313 306.9 
L 44.195313 7.2 
" style="fill: none; stroke: #cccccc; stroke-width: 1.25; stroke-linejoin: miter; stroke-linecap: square"/>
   </g>
   <g id="patch_4">
    <path d="M 44.195312 306.9 
L 343.135023 306.9 
" style="fill: none; stroke: #cccccc; stroke-width: 1.25; stroke-linejoin: miter; stroke-linecap: square"/>
   </g>
  </g>
  <g id="legend_1">
   <g id="text_14">
    <!-- seniority -->
    <g style="fill: #262626" transform="translate(347.919073 138.519687) scale(0.12 -0.12)">
     <defs>
      <path id="ArialMT-73" d="M 197 991 
L 753 1078 
Q 800 744 1014 566 
Q 1228 388 1613 388 
Q 2000 388 2187 545 
Q 2375 703 2375 916 
Q 2375 1106 2209 1216 
Q 2094 1291 1634 1406 
Q 1016 1563 777 1677 
Q 538 1791 414 1992 
Q 291 2194 291 2438 
Q 291 2659 392 2848 
Q 494 3038 669 3163 
Q 800 3259 1026 3326 
Q 1253 3394 1513 3394 
Q 1903 3394 2198 3281 
Q 2494 3169 2634 2976 
Q 2775 2784 2828 2463 
L 2278 2388 
Q 2241 2644 2061 2787 
Q 1881 2931 1553 2931 
Q 1166 2931 1000 2803 
Q 834 2675 834 2503 
Q 834 2394 903 2306 
Q 972 2216 1119 2156 
Q 1203 2125 1616 2013 
Q 2213 1853 2448 1751 
Q 2684 1650 2818 1456 
Q 2953 1263 2953 975 
Q 2953 694 2789 445 
Q 2625 197 2315 61 
Q 2006 -75 1616 -75 
Q 969 -75 630 194 
Q 291 463 197 991 
z
" transform="scale(0.015625)"/>
      <path id="ArialMT-74" d="M 1650 503 
L 1731 6 
Q 1494 -44 1306 -44 
Q 1000 -44 831 53 
Q 663 150 594 308 
Q 525 466 525 972 
L 525 2881 
L 113 2881 
L 113 3319 
L 525 3319 
L 525 4141 
L 1084 4478 
L 1084 3319 
L 1650 3319 
L 1650 2881 
L 1084 2881 
L 1084 941 
Q 1084 700 1114 631 
Q 1144 563 1211 522 
Q 1278 481 1403 481 
Q 1497 481 1650 503 
z
" transform="scale(0.015625)"/>
     </defs>
     <use xlink:href="#ArialMT-73"/>
     <use xlink:href="#ArialMT-65" x="50"/>
     <use xlink:href="#ArialMT-6e" x="105.615234"/>
     <use xlink:href="#ArialMT-69" x="161.230469"/>
     <use xlink:href="#ArialMT-6f" x="183.447266"/>
     <use xlink:href="#ArialMT-72" x="239.0625"/>
     <use xlink:href="#ArialMT-69" x="272.363281"/>
     <use xlink:href="#ArialMT-74" x="294.580078"/>
     <use xlink:href="#ArialMT-79" x="322.363281"/>
    </g>
   </g>
   <g id="PathCollection_6">
    <g>
     <use xlink:href="#m4aa0971f80" x="362.801183" y="151.531406" style="fill: #443983; fill-opacity: 0.8; stroke: #443983; stroke-opacity: 0.8"/>
    </g>
   </g>
   <g id="text_15">
    <!-- 0 -->
    <g style="fill: #262626" transform="translate(382.601183 154.418906) scale(0.11 -0.11)">
     <use xlink:href="#ArialMT-30"/>
    </g>
   </g>
   <g id="PathCollection_7">
    <g>
     <use xlink:href="#m6aea3a9084" x="362.801183" y="167.09125" style="fill: #31688e; fill-opacity: 0.8; stroke: #31688e; stroke-opacity: 0.8"/>
    </g>
   </g>
   <g id="text_16">
    <!-- 1 -->
    <g style="fill: #262626" transform="translate(382.601183 169.97875) scale(0.11 -0.11)">
     <use xlink:href="#ArialMT-31"/>
    </g>
   </g>
   <g id="PathCollection_8">
    <g>
     <use xlink:href="#m656e3bf4e5" x="362.801183" y="182.651094" style="fill: #21918c; fill-opacity: 0.8; stroke: #21918c; stroke-opacity: 0.8"/>
    </g>
   </g>
   <g id="text_17">
    <!-- 2 -->
    <g style="fill: #262626" transform="translate(382.601183 185.538594) scale(0.11 -0.11)">
     <use xlink:href="#ArialMT-32"/>
    </g>
   </g>
   <g id="PathCollection_9">
    <g>
     <use xlink:href="#m2583b3aca3" x="362.801183" y="198.210938" style="fill: #35b779; fill-opacity: 0.8; stroke: #35b779; stroke-opacity: 0.8"/>
    </g>
   </g>
   <g id="text_18">
    <!-- 3 -->
    <g style="fill: #262626" transform="translate(382.601183 201.098437) scale(0.11 -0.11)">
     <use xlink:href="#ArialMT-33"/>
    </g>
   </g>
   <g id="PathCollection_10">
    <g>
     <use xlink:href="#mf7f779bc9f" x="362.801183" y="213.770781" style="fill: #90d743; fill-opacity: 0.8; stroke: #90d743; stroke-opacity: 0.8"/>
    </g>
   </g>
   <g id="text_19">
    <!-- 4 -->
    <g style="fill: #262626" transform="translate(382.601183 216.658281) scale(0.11 -0.11)">
     <use xlink:href="#ArialMT-34"/>
    </g>
   </g>
  </g>
 </g>
 <defs>
  <clipPath id="p4d540114b7">
   <rect x="44.195313" y="7.2" width="298.939711" height="299.7"/>
  </clipPath>
 </defs>
</svg>
