<?xml version="1.0" encoding="utf-8" standalone="no"?>
<!DOCTYPE svg PUBLIC "-//W3C//DTD SVG 1.1//EN"
  "http://www.w3.org/Graphics/SVG/1.1/DTD/svg11.dtd">
<svg xmlns:xlink="http://www.w3.org/1999/xlink" width="408.515312pt" height="315.186844pt" viewBox="0 0 408.515312 315.186844" xmlns="http://www.w3.org/2000/svg" version="1.1">
 <metadata>
  <rdf:RDF xmlns:dc="http://purl.org/dc/elements/1.1/" xmlns:cc="http://creativecommons.org/ns#" xmlns:rdf="http://www.w3.org/1999/02/22-rdf-syntax-ns#">
   <cc:Work>
    <dc:type rdf:resource="http://purl.org/dc/dcmitype/StillImage"/>
    <dc:date>2024-04-25T15:47:43.913185</dc:date>
    <dc:format>image/svg+xml</dc:format>
    <dc:creator>
     <cc:Agent>
      <dc:title>Matplotlib v3.8.3, https://matplotlib.org/</dc:title>
     </cc:Agent>
    </dc:creator>
   </cc:Work>
  </rdf:RDF>
 </metadata>
 <defs>
  <style type="text/css">*{stroke-linejoin: round; stroke-linecap: butt}</style>
 </defs>
 <g id="figure_1">
  <g id="patch_1">
   <path d="M 0 315.186844 
L 408.515313 315.186844 
L 408.515313 0 
L 0 0 
z
" style="fill: #ffffff"/>
  </g>
  <g id="axes_1">
   <g id="patch_2">
    <path d="M 44.195313 273.312 
L 401.315313 273.312 
L 401.315313 7.2 
L 44.195313 7.2 
z
" style="fill: #ffffff"/>
   </g>
   <g id="matplotlib.axis_1">
    <g id="xtick_1">
     <g id="line2d_1">
      <path d="M 45.671015 273.312 
L 45.671015 7.2 
" clip-path="url(#pb0f89aa716)" style="fill: none; stroke: #cccccc; stroke-linecap: round"/>
     </g>
     <g id="text_1">
      <!-- 20 -->
      <g style="fill: #262626" transform="translate(39.553984 290.685594) scale(0.11 -0.11)">
       <defs>
        <path id="ArialMT-32" d="M 3222 541 
L 3222 0 
L 194 0 
Q 188 203 259 391 
Q 375 700 629 1000 
Q 884 1300 1366 1694 
Q 2113 2306 2375 2664 
Q 2638 3022 2638 3341 
Q 2638 3675 2398 3904 
Q 2159 4134 1775 4134 
Q 1369 4134 1125 3890 
Q 881 3647 878 3216 
L 300 3275 
Q 359 3922 746 4261 
Q 1134 4600 1788 4600 
Q 2447 4600 2831 4234 
Q 3216 3869 3216 3328 
Q 3216 3053 3103 2787 
Q 2991 2522 2730 2228 
Q 2469 1934 1863 1422 
Q 1356 997 1212 845 
Q 1069 694 975 541 
L 3222 541 
z
" transform="scale(0.015625)"/>
        <path id="ArialMT-30" d="M 266 2259 
Q 266 3072 433 3567 
Q 600 4063 929 4331 
Q 1259 4600 1759 4600 
Q 2128 4600 2406 4451 
Q 2684 4303 2865 4023 
Q 3047 3744 3150 3342 
Q 3253 2941 3253 2259 
Q 3253 1453 3087 958 
Q 2922 463 2592 192 
Q 2263 -78 1759 -78 
Q 1097 -78 719 397 
Q 266 969 266 2259 
z
M 844 2259 
Q 844 1131 1108 757 
Q 1372 384 1759 384 
Q 2147 384 2411 759 
Q 2675 1134 2675 2259 
Q 2675 3391 2411 3762 
Q 2147 4134 1753 4134 
Q 1366 4134 1134 3806 
Q 844 3388 844 2259 
z
" transform="scale(0.015625)"/>
       </defs>
       <use xlink:href="#ArialMT-32"/>
       <use xlink:href="#ArialMT-30" x="55.615234"/>
      </g>
     </g>
    </g>
    <g id="xtick_2">
     <g id="line2d_2">
      <path d="M 119.456139 273.312 
L 119.456139 7.2 
" clip-path="url(#pb0f89aa716)" style="fill: none; stroke: #cccccc; stroke-linecap: round"/>
     </g>
     <g id="text_2">
      <!-- 30 -->
      <g style="fill: #262626" transform="translate(113.339108 290.685594) scale(0.11 -0.11)">
       <defs>
        <path id="ArialMT-33" d="M 269 1209 
L 831 1284 
Q 928 806 1161 595 
Q 1394 384 1728 384 
Q 2125 384 2398 659 
Q 2672 934 2672 1341 
Q 2672 1728 2419 1979 
Q 2166 2231 1775 2231 
Q 1616 2231 1378 2169 
L 1441 2663 
Q 1497 2656 1531 2656 
Q 1891 2656 2178 2843 
Q 2466 3031 2466 3422 
Q 2466 3731 2256 3934 
Q 2047 4138 1716 4138 
Q 1388 4138 1169 3931 
Q 950 3725 888 3313 
L 325 3413 
Q 428 3978 793 4289 
Q 1159 4600 1703 4600 
Q 2078 4600 2393 4439 
Q 2709 4278 2876 4000 
Q 3044 3722 3044 3409 
Q 3044 3113 2884 2869 
Q 2725 2625 2413 2481 
Q 2819 2388 3044 2092 
Q 3269 1797 3269 1353 
Q 3269 753 2831 336 
Q 2394 -81 1725 -81 
Q 1122 -81 723 278 
Q 325 638 269 1209 
z
" transform="scale(0.015625)"/>
       </defs>
       <use xlink:href="#ArialMT-33"/>
       <use xlink:href="#ArialMT-30" x="55.615234"/>
      </g>
     </g>
    </g>
    <g id="xtick_3">
     <g id="line2d_3">
      <path d="M 193.241263 273.312 
L 193.241263 7.2 
" clip-path="url(#pb0f89aa716)" style="fill: none; stroke: #cccccc; stroke-linecap: round"/>
     </g>
     <g id="text_3">
      <!-- 40 -->
      <g style="fill: #262626" transform="translate(187.124232 290.685594) scale(0.11 -0.11)">
       <defs>
        <path id="ArialMT-34" d="M 2069 0 
L 2069 1097 
L 81 1097 
L 81 1613 
L 2172 4581 
L 2631 4581 
L 2631 1613 
L 3250 1613 
L 3250 1097 
L 2631 1097 
L 2631 0 
L 2069 0 
z
M 2069 1613 
L 2069 3678 
L 634 1613 
L 2069 1613 
z
" transform="scale(0.015625)"/>
       </defs>
       <use xlink:href="#ArialMT-34"/>
       <use xlink:href="#ArialMT-30" x="55.615234"/>
      </g>
     </g>
    </g>
    <g id="xtick_4">
     <g id="line2d_4">
      <path d="M 267.026387 273.312 
L 267.026387 7.2 
" clip-path="url(#pb0f89aa716)" style="fill: none; stroke: #cccccc; stroke-linecap: round"/>
     </g>
     <g id="text_4">
      <!-- 50 -->
      <g style="fill: #262626" transform="translate(260.909356 290.685594) scale(0.11 -0.11)">
       <defs>
        <path id="ArialMT-35" d="M 266 1200 
L 856 1250 
Q 922 819 1161 601 
Q 1400 384 1738 384 
Q 2144 384 2425 690 
Q 2706 997 2706 1503 
Q 2706 1984 2436 2262 
Q 2166 2541 1728 2541 
Q 1456 2541 1237 2417 
Q 1019 2294 894 2097 
L 366 2166 
L 809 4519 
L 3088 4519 
L 3088 3981 
L 1259 3981 
L 1013 2750 
Q 1425 3038 1878 3038 
Q 2478 3038 2890 2622 
Q 3303 2206 3303 1553 
Q 3303 931 2941 478 
Q 2500 -78 1738 -78 
Q 1113 -78 717 272 
Q 322 622 266 1200 
z
" transform="scale(0.015625)"/>
       </defs>
       <use xlink:href="#ArialMT-35"/>
       <use xlink:href="#ArialMT-30" x="55.615234"/>
      </g>
     </g>
    </g>
    <g id="xtick_5">
     <g id="line2d_5">
      <path d="M 340.811511 273.312 
L 340.811511 7.2 
" clip-path="url(#pb0f89aa716)" style="fill: none; stroke: #cccccc; stroke-linecap: round"/>
     </g>
     <g id="text_5">
      <!-- 60 -->
      <g style="fill: #262626" transform="translate(334.69448 290.685594) scale(0.11 -0.11)">
       <defs>
        <path id="ArialMT-36" d="M 3184 3459 
L 2625 3416 
Q 2550 3747 2413 3897 
Q 2184 4138 1850 4138 
Q 1581 4138 1378 3988 
Q 1113 3794 959 3422 
Q 806 3050 800 2363 
Q 1003 2672 1297 2822 
Q 1591 2972 1913 2972 
Q 2475 2972 2870 2558 
Q 3266 2144 3266 1488 
Q 3266 1056 3080 686 
Q 2894 316 2569 119 
Q 2244 -78 1831 -78 
Q 1128 -78 684 439 
Q 241 956 241 2144 
Q 241 3472 731 4075 
Q 1159 4600 1884 4600 
Q 2425 4600 2770 4297 
Q 3116 3994 3184 3459 
z
M 888 1484 
Q 888 1194 1011 928 
Q 1134 663 1356 523 
Q 1578 384 1822 384 
Q 2178 384 2434 671 
Q 2691 959 2691 1453 
Q 2691 1928 2437 2201 
Q 2184 2475 1800 2475 
Q 1419 2475 1153 2201 
Q 888 1928 888 1484 
z
" transform="scale(0.015625)"/>
       </defs>
       <use xlink:href="#ArialMT-36"/>
       <use xlink:href="#ArialMT-30" x="55.615234"/>
      </g>
     </g>
    </g>
    <g id="text_6">
     <!-- Age -->
     <g style="fill: #262626" transform="translate(212.08 305.461219) scale(0.12 -0.12)">
      <defs>
       <path id="ArialMT-41" d="M -9 0 
L 1750 4581 
L 2403 4581 
L 4278 0 
L 3588 0 
L 3053 1388 
L 1138 1388 
L 634 0 
L -9 0 
z
M 1313 1881 
L 2866 1881 
L 2388 3150 
Q 2169 3728 2063 4100 
Q 1975 3659 1816 3225 
L 1313 1881 
z
" transform="scale(0.015625)"/>
       <path id="ArialMT-67" d="M 319 -275 
L 866 -356 
Q 900 -609 1056 -725 
Q 1266 -881 1628 -881 
Q 2019 -881 2231 -725 
Q 2444 -569 2519 -288 
Q 2563 -116 2559 434 
Q 2191 0 1641 0 
Q 956 0 581 494 
Q 206 988 206 1678 
Q 206 2153 378 2554 
Q 550 2956 876 3175 
Q 1203 3394 1644 3394 
Q 2231 3394 2613 2919 
L 2613 3319 
L 3131 3319 
L 3131 450 
Q 3131 -325 2973 -648 
Q 2816 -972 2473 -1159 
Q 2131 -1347 1631 -1347 
Q 1038 -1347 672 -1080 
Q 306 -813 319 -275 
z
M 784 1719 
Q 784 1066 1043 766 
Q 1303 466 1694 466 
Q 2081 466 2343 764 
Q 2606 1063 2606 1700 
Q 2606 2309 2336 2618 
Q 2066 2928 1684 2928 
Q 1309 2928 1046 2623 
Q 784 2319 784 1719 
z
" transform="scale(0.015625)"/>
       <path id="ArialMT-65" d="M 2694 1069 
L 3275 997 
Q 3138 488 2766 206 
Q 2394 -75 1816 -75 
Q 1088 -75 661 373 
Q 234 822 234 1631 
Q 234 2469 665 2931 
Q 1097 3394 1784 3394 
Q 2450 3394 2872 2941 
Q 3294 2488 3294 1666 
Q 3294 1616 3291 1516 
L 816 1516 
Q 847 969 1125 678 
Q 1403 388 1819 388 
Q 2128 388 2347 550 
Q 2566 713 2694 1069 
z
M 847 1978 
L 2700 1978 
Q 2663 2397 2488 2606 
Q 2219 2931 1791 2931 
Q 1403 2931 1139 2672 
Q 875 2413 847 1978 
z
" transform="scale(0.015625)"/>
      </defs>
      <use xlink:href="#ArialMT-41"/>
      <use xlink:href="#ArialMT-67" x="66.699219"/>
      <use xlink:href="#ArialMT-65" x="122.314453"/>
     </g>
    </g>
   </g>
   <g id="matplotlib.axis_2">
    <g id="ytick_1">
     <g id="line2d_6">
      <path d="M 44.195313 273.312 
L 401.315313 273.312 
" clip-path="url(#pb0f89aa716)" style="fill: none; stroke: #cccccc; stroke-linecap: round"/>
     </g>
     <g id="text_7">
      <!-- 0 -->
      <g style="fill: #262626" transform="translate(28.578281 277.248797) scale(0.11 -0.11)">
       <use xlink:href="#ArialMT-30"/>
      </g>
     </g>
    </g>
    <g id="ytick_2">
     <g id="line2d_7">
      <path d="M 44.195313 232.273915 
L 401.315313 232.273915 
" clip-path="url(#pb0f89aa716)" style="fill: none; stroke: #cccccc; stroke-linecap: round"/>
     </g>
     <g id="text_8">
      <!-- 2 -->
      <g style="fill: #262626" transform="translate(28.578281 236.210711) scale(0.11 -0.11)">
       <use xlink:href="#ArialMT-32"/>
      </g>
     </g>
    </g>
    <g id="ytick_3">
     <g id="line2d_8">
      <path d="M 44.195313 191.235829 
L 401.315313 191.235829 
" clip-path="url(#pb0f89aa716)" style="fill: none; stroke: #cccccc; stroke-linecap: round"/>
     </g>
     <g id="text_9">
      <!-- 4 -->
      <g style="fill: #262626" transform="translate(28.578281 195.172626) scale(0.11 -0.11)">
       <use xlink:href="#ArialMT-34"/>
      </g>
     </g>
    </g>
    <g id="ytick_4">
     <g id="line2d_9">
      <path d="M 44.195313 150.197744 
L 401.315313 150.197744 
" clip-path="url(#pb0f89aa716)" style="fill: none; stroke: #cccccc; stroke-linecap: round"/>
     </g>
     <g id="text_10">
      <!-- 6 -->
      <g style="fill: #262626" transform="translate(28.578281 154.13454) scale(0.11 -0.11)">
       <use xlink:href="#ArialMT-36"/>
      </g>
     </g>
    </g>
    <g id="ytick_5">
     <g id="line2d_10">
      <path d="M 44.195313 109.159658 
L 401.315313 109.159658 
" clip-path="url(#pb0f89aa716)" style="fill: none; stroke: #cccccc; stroke-linecap: round"/>
     </g>
     <g id="text_11">
      <!-- 8 -->
      <g style="fill: #262626" transform="translate(28.578281 113.096455) scale(0.11 -0.11)">
       <defs>
        <path id="ArialMT-38" d="M 1131 2484 
Q 781 2613 612 2850 
Q 444 3088 444 3419 
Q 444 3919 803 4259 
Q 1163 4600 1759 4600 
Q 2359 4600 2725 4251 
Q 3091 3903 3091 3403 
Q 3091 3084 2923 2848 
Q 2756 2613 2416 2484 
Q 2838 2347 3058 2040 
Q 3278 1734 3278 1309 
Q 3278 722 2862 322 
Q 2447 -78 1769 -78 
Q 1091 -78 675 323 
Q 259 725 259 1325 
Q 259 1772 486 2073 
Q 713 2375 1131 2484 
z
M 1019 3438 
Q 1019 3113 1228 2906 
Q 1438 2700 1772 2700 
Q 2097 2700 2305 2904 
Q 2513 3109 2513 3406 
Q 2513 3716 2298 3927 
Q 2084 4138 1766 4138 
Q 1444 4138 1231 3931 
Q 1019 3725 1019 3438 
z
M 838 1322 
Q 838 1081 952 856 
Q 1066 631 1291 507 
Q 1516 384 1775 384 
Q 2178 384 2440 643 
Q 2703 903 2703 1303 
Q 2703 1709 2433 1975 
Q 2163 2241 1756 2241 
Q 1359 2241 1098 1978 
Q 838 1716 838 1322 
z
" transform="scale(0.015625)"/>
       </defs>
       <use xlink:href="#ArialMT-38"/>
      </g>
     </g>
    </g>
    <g id="ytick_6">
     <g id="line2d_11">
      <path d="M 44.195313 68.121573 
L 401.315313 68.121573 
" clip-path="url(#pb0f89aa716)" style="fill: none; stroke: #cccccc; stroke-linecap: round"/>
     </g>
     <g id="text_12">
      <!-- 10 -->
      <g style="fill: #262626" transform="translate(22.46125 72.05837) scale(0.11 -0.11)">
       <defs>
        <path id="ArialMT-31" d="M 2384 0 
L 1822 0 
L 1822 3584 
Q 1619 3391 1289 3197 
Q 959 3003 697 2906 
L 697 3450 
Q 1169 3672 1522 3987 
Q 1875 4303 2022 4600 
L 2384 4600 
L 2384 0 
z
" transform="scale(0.015625)"/>
       </defs>
       <use xlink:href="#ArialMT-31"/>
       <use xlink:href="#ArialMT-30" x="55.615234"/>
      </g>
     </g>
    </g>
    <g id="ytick_7">
     <g id="line2d_12">
      <path d="M 44.195313 27.083487 
L 401.315313 27.083487 
" clip-path="url(#pb0f89aa716)" style="fill: none; stroke: #cccccc; stroke-linecap: round"/>
     </g>
     <g id="text_13">
      <!-- 12 -->
      <g style="fill: #262626" transform="translate(22.46125 31.020284) scale(0.11 -0.11)">
       <use xlink:href="#ArialMT-31"/>
       <use xlink:href="#ArialMT-32" x="55.615234"/>
      </g>
     </g>
    </g>
    <g id="text_14">
     <!-- How informal you can be -->
     <g style="fill: #262626" transform="translate(15.935625 206.284125) rotate(-90) scale(0.12 -0.12)">
      <defs>
       <path id="ArialMT-48" d="M 513 0 
L 513 4581 
L 1119 4581 
L 1119 2700 
L 3500 2700 
L 3500 4581 
L 4106 4581 
L 4106 0 
L 3500 0 
L 3500 2159 
L 1119 2159 
L 1119 0 
L 513 0 
z
" transform="scale(0.015625)"/>
       <path id="ArialMT-6f" d="M 213 1659 
Q 213 2581 725 3025 
Q 1153 3394 1769 3394 
Q 2453 3394 2887 2945 
Q 3322 2497 3322 1706 
Q 3322 1066 3130 698 
Q 2938 331 2570 128 
Q 2203 -75 1769 -75 
Q 1072 -75 642 372 
Q 213 819 213 1659 
z
M 791 1659 
Q 791 1022 1069 705 
Q 1347 388 1769 388 
Q 2188 388 2466 706 
Q 2744 1025 2744 1678 
Q 2744 2294 2464 2611 
Q 2184 2928 1769 2928 
Q 1347 2928 1069 2612 
Q 791 2297 791 1659 
z
" transform="scale(0.015625)"/>
       <path id="ArialMT-77" d="M 1034 0 
L 19 3319 
L 600 3319 
L 1128 1403 
L 1325 691 
Q 1338 744 1497 1375 
L 2025 3319 
L 2603 3319 
L 3100 1394 
L 3266 759 
L 3456 1400 
L 4025 3319 
L 4572 3319 
L 3534 0 
L 2950 0 
L 2422 1988 
L 2294 2553 
L 1622 0 
L 1034 0 
z
" transform="scale(0.015625)"/>
       <path id="ArialMT-20" transform="scale(0.015625)"/>
       <path id="ArialMT-69" d="M 425 3934 
L 425 4581 
L 988 4581 
L 988 3934 
L 425 3934 
z
M 425 0 
L 425 3319 
L 988 3319 
L 988 0 
L 425 0 
z
" transform="scale(0.015625)"/>
       <path id="ArialMT-6e" d="M 422 0 
L 422 3319 
L 928 3319 
L 928 2847 
Q 1294 3394 1984 3394 
Q 2284 3394 2536 3286 
Q 2788 3178 2913 3003 
Q 3038 2828 3088 2588 
Q 3119 2431 3119 2041 
L 3119 0 
L 2556 0 
L 2556 2019 
Q 2556 2363 2490 2533 
Q 2425 2703 2258 2804 
Q 2091 2906 1866 2906 
Q 1506 2906 1245 2678 
Q 984 2450 984 1813 
L 984 0 
L 422 0 
z
" transform="scale(0.015625)"/>
       <path id="ArialMT-66" d="M 556 0 
L 556 2881 
L 59 2881 
L 59 3319 
L 556 3319 
L 556 3672 
Q 556 4006 616 4169 
Q 697 4388 901 4523 
Q 1106 4659 1475 4659 
Q 1713 4659 2000 4603 
L 1916 4113 
Q 1741 4144 1584 4144 
Q 1328 4144 1222 4034 
Q 1116 3925 1116 3625 
L 1116 3319 
L 1763 3319 
L 1763 2881 
L 1116 2881 
L 1116 0 
L 556 0 
z
" transform="scale(0.015625)"/>
       <path id="ArialMT-72" d="M 416 0 
L 416 3319 
L 922 3319 
L 922 2816 
Q 1116 3169 1280 3281 
Q 1444 3394 1641 3394 
Q 1925 3394 2219 3213 
L 2025 2691 
Q 1819 2813 1613 2813 
Q 1428 2813 1281 2702 
Q 1134 2591 1072 2394 
Q 978 2094 978 1738 
L 978 0 
L 416 0 
z
" transform="scale(0.015625)"/>
       <path id="ArialMT-6d" d="M 422 0 
L 422 3319 
L 925 3319 
L 925 2853 
Q 1081 3097 1340 3245 
Q 1600 3394 1931 3394 
Q 2300 3394 2536 3241 
Q 2772 3088 2869 2813 
Q 3263 3394 3894 3394 
Q 4388 3394 4653 3120 
Q 4919 2847 4919 2278 
L 4919 0 
L 4359 0 
L 4359 2091 
Q 4359 2428 4304 2576 
Q 4250 2725 4106 2815 
Q 3963 2906 3769 2906 
Q 3419 2906 3187 2673 
Q 2956 2441 2956 1928 
L 2956 0 
L 2394 0 
L 2394 2156 
Q 2394 2531 2256 2718 
Q 2119 2906 1806 2906 
Q 1569 2906 1367 2781 
Q 1166 2656 1075 2415 
Q 984 2175 984 1722 
L 984 0 
L 422 0 
z
" transform="scale(0.015625)"/>
       <path id="ArialMT-61" d="M 2588 409 
Q 2275 144 1986 34 
Q 1697 -75 1366 -75 
Q 819 -75 525 192 
Q 231 459 231 875 
Q 231 1119 342 1320 
Q 453 1522 633 1644 
Q 813 1766 1038 1828 
Q 1203 1872 1538 1913 
Q 2219 1994 2541 2106 
Q 2544 2222 2544 2253 
Q 2544 2597 2384 2738 
Q 2169 2928 1744 2928 
Q 1347 2928 1158 2789 
Q 969 2650 878 2297 
L 328 2372 
Q 403 2725 575 2942 
Q 747 3159 1072 3276 
Q 1397 3394 1825 3394 
Q 2250 3394 2515 3294 
Q 2781 3194 2906 3042 
Q 3031 2891 3081 2659 
Q 3109 2516 3109 2141 
L 3109 1391 
Q 3109 606 3145 398 
Q 3181 191 3288 0 
L 2700 0 
Q 2613 175 2588 409 
z
M 2541 1666 
Q 2234 1541 1622 1453 
Q 1275 1403 1131 1340 
Q 988 1278 909 1158 
Q 831 1038 831 891 
Q 831 666 1001 516 
Q 1172 366 1500 366 
Q 1825 366 2078 508 
Q 2331 650 2450 897 
Q 2541 1088 2541 1459 
L 2541 1666 
z
" transform="scale(0.015625)"/>
       <path id="ArialMT-6c" d="M 409 0 
L 409 4581 
L 972 4581 
L 972 0 
L 409 0 
z
" transform="scale(0.015625)"/>
       <path id="ArialMT-79" d="M 397 -1278 
L 334 -750 
Q 519 -800 656 -800 
Q 844 -800 956 -737 
Q 1069 -675 1141 -563 
Q 1194 -478 1313 -144 
Q 1328 -97 1363 -6 
L 103 3319 
L 709 3319 
L 1400 1397 
Q 1534 1031 1641 628 
Q 1738 1016 1872 1384 
L 2581 3319 
L 3144 3319 
L 1881 -56 
Q 1678 -603 1566 -809 
Q 1416 -1088 1222 -1217 
Q 1028 -1347 759 -1347 
Q 597 -1347 397 -1278 
z
" transform="scale(0.015625)"/>
       <path id="ArialMT-75" d="M 2597 0 
L 2597 488 
Q 2209 -75 1544 -75 
Q 1250 -75 995 37 
Q 741 150 617 320 
Q 494 491 444 738 
Q 409 903 409 1263 
L 409 3319 
L 972 3319 
L 972 1478 
Q 972 1038 1006 884 
Q 1059 663 1231 536 
Q 1403 409 1656 409 
Q 1909 409 2131 539 
Q 2353 669 2445 892 
Q 2538 1116 2538 1541 
L 2538 3319 
L 3100 3319 
L 3100 0 
L 2597 0 
z
" transform="scale(0.015625)"/>
       <path id="ArialMT-63" d="M 2588 1216 
L 3141 1144 
Q 3050 572 2676 248 
Q 2303 -75 1759 -75 
Q 1078 -75 664 370 
Q 250 816 250 1647 
Q 250 2184 428 2587 
Q 606 2991 970 3192 
Q 1334 3394 1763 3394 
Q 2303 3394 2647 3120 
Q 2991 2847 3088 2344 
L 2541 2259 
Q 2463 2594 2264 2762 
Q 2066 2931 1784 2931 
Q 1359 2931 1093 2626 
Q 828 2322 828 1663 
Q 828 994 1084 691 
Q 1341 388 1753 388 
Q 2084 388 2306 591 
Q 2528 794 2588 1216 
z
" transform="scale(0.015625)"/>
       <path id="ArialMT-62" d="M 941 0 
L 419 0 
L 419 4581 
L 981 4581 
L 981 2947 
Q 1338 3394 1891 3394 
Q 2197 3394 2470 3270 
Q 2744 3147 2920 2923 
Q 3097 2700 3197 2384 
Q 3297 2069 3297 1709 
Q 3297 856 2875 390 
Q 2453 -75 1863 -75 
Q 1275 -75 941 416 
L 941 0 
z
M 934 1684 
Q 934 1088 1097 822 
Q 1363 388 1816 388 
Q 2184 388 2453 708 
Q 2722 1028 2722 1663 
Q 2722 2313 2464 2622 
Q 2206 2931 1841 2931 
Q 1472 2931 1203 2611 
Q 934 2291 934 1684 
z
" transform="scale(0.015625)"/>
      </defs>
      <use xlink:href="#ArialMT-48"/>
      <use xlink:href="#ArialMT-6f" x="72.216797"/>
      <use xlink:href="#ArialMT-77" x="127.832031"/>
      <use xlink:href="#ArialMT-20" x="200.048828"/>
      <use xlink:href="#ArialMT-69" x="227.832031"/>
      <use xlink:href="#ArialMT-6e" x="250.048828"/>
      <use xlink:href="#ArialMT-66" x="305.664062"/>
      <use xlink:href="#ArialMT-6f" x="333.447266"/>
      <use xlink:href="#ArialMT-72" x="389.0625"/>
      <use xlink:href="#ArialMT-6d" x="422.363281"/>
      <use xlink:href="#ArialMT-61" x="505.664062"/>
      <use xlink:href="#ArialMT-6c" x="561.279297"/>
      <use xlink:href="#ArialMT-20" x="583.496094"/>
      <use xlink:href="#ArialMT-79" x="611.279297"/>
      <use xlink:href="#ArialMT-6f" x="661.279297"/>
      <use xlink:href="#ArialMT-75" x="716.894531"/>
      <use xlink:href="#ArialMT-20" x="772.509766"/>
      <use xlink:href="#ArialMT-63" x="800.292969"/>
      <use xlink:href="#ArialMT-61" x="850.292969"/>
      <use xlink:href="#ArialMT-6e" x="905.908203"/>
      <use xlink:href="#ArialMT-20" x="961.523438"/>
      <use xlink:href="#ArialMT-62" x="989.306641"/>
      <use xlink:href="#ArialMT-65" x="1044.921875"/>
     </g>
    </g>
   </g>
   <g id="PathCollection_1">
    <defs>
     <path id="C0_0_2a4162aa8b" d="M 0 3 
C 0.795609 3 1.55874 2.683901 2.12132 2.12132 
C 2.683901 1.55874 3 0.795609 3 -0 
C 3 -0.795609 2.683901 -1.55874 2.12132 -2.12132 
C 1.55874 -2.683901 0.795609 -3 0 -3 
C -0.795609 -3 -1.55874 -2.683901 -2.12132 -2.12132 
C -2.683901 -1.55874 -3 -0.795609 -3 0 
C -3 0.795609 -2.683901 1.55874 -2.12132 2.12132 
C -1.55874 2.683901 -0.795609 3 0 3 
z
"/>
    </defs>
    <g clip-path="url(#pb0f89aa716)">
     <use xlink:href="#C0_0_2a4162aa8b" x="134.213164" y="87.433828" style="fill: #fde725; stroke: #ffffff; stroke-width: 0.48"/>
    </g>
    <g clip-path="url(#pb0f89aa716)">
     <use xlink:href="#C0_0_2a4162aa8b" x="385.082585" y="48.927218" style="fill: #440154; stroke: #ffffff; stroke-width: 0.48"/>
    </g>
    <g clip-path="url(#pb0f89aa716)">
     <use xlink:href="#C0_0_2a4162aa8b" x="303.918949" y="73.931117" style="fill: #21918c; stroke: #ffffff; stroke-width: 0.48"/>
    </g>
    <g clip-path="url(#pb0f89aa716)">
     <use xlink:href="#C0_0_2a4162aa8b" x="148.970189" y="44.629216" style="fill: #5ec962; stroke: #ffffff; stroke-width: 0.48"/>
    </g>
    <g clip-path="url(#pb0f89aa716)">
     <use xlink:href="#C0_0_2a4162aa8b" x="296.540436" y="111.239401" style="fill: #3b528b; stroke: #ffffff; stroke-width: 0.48"/>
    </g>
    <g clip-path="url(#pb0f89aa716)">
     <use xlink:href="#C0_0_2a4162aa8b" x="163.727213" y="52.431552" style="fill: #fde725; stroke: #ffffff; stroke-width: 0.48"/>
    </g>
    <g clip-path="url(#pb0f89aa716)">
     <use xlink:href="#C0_0_2a4162aa8b" x="215.3768" y="64.211138" style="fill: #3b528b; stroke: #ffffff; stroke-width: 0.48"/>
    </g>
    <g clip-path="url(#pb0f89aa716)">
     <use xlink:href="#C0_0_2a4162aa8b" x="112.077627" y="104.312475" style="fill: #3b528b; stroke: #ffffff; stroke-width: 0.48"/>
    </g>
    <g clip-path="url(#pb0f89aa716)">
     <use xlink:href="#C0_0_2a4162aa8b" x="377.704073" y="28.221915" style="fill: #fde725; stroke: #ffffff; stroke-width: 0.48"/>
    </g>
    <g clip-path="url(#pb0f89aa716)">
     <use xlink:href="#C0_0_2a4162aa8b" x="89.942089" y="64.068508" style="fill: #440154; stroke: #ffffff; stroke-width: 0.48"/>
    </g>
    <g clip-path="url(#pb0f89aa716)">
     <use xlink:href="#C0_0_2a4162aa8b" x="348.190023" y="98.858728" style="fill: #440154; stroke: #ffffff; stroke-width: 0.48"/>
    </g>
    <g clip-path="url(#pb0f89aa716)">
     <use xlink:href="#C0_0_2a4162aa8b" x="252.269362" y="22.731013" style="fill: #5ec962; stroke: #ffffff; stroke-width: 0.48"/>
    </g>
    <g clip-path="url(#pb0f89aa716)">
     <use xlink:href="#C0_0_2a4162aa8b" x="163.727213" y="82.044514" style="fill: #3b528b; stroke: #ffffff; stroke-width: 0.48"/>
    </g>
    <g clip-path="url(#pb0f89aa716)">
     <use xlink:href="#C0_0_2a4162aa8b" x="82.563577" y="104.324918" style="fill: #21918c; stroke: #ffffff; stroke-width: 0.48"/>
    </g>
    <g clip-path="url(#pb0f89aa716)">
     <use xlink:href="#C0_0_2a4162aa8b" x="82.563577" y="79.069466" style="fill: #fde725; stroke: #ffffff; stroke-width: 0.48"/>
    </g>
    <g clip-path="url(#pb0f89aa716)">
     <use xlink:href="#C0_0_2a4162aa8b" x="97.320602" y="77.288572" style="fill: #440154; stroke: #ffffff; stroke-width: 0.48"/>
    </g>
    <g clip-path="url(#pb0f89aa716)">
     <use xlink:href="#C0_0_2a4162aa8b" x="318.675974" y="53.159138" style="fill: #440154; stroke: #ffffff; stroke-width: 0.48"/>
    </g>
    <g clip-path="url(#pb0f89aa716)">
     <use xlink:href="#C0_0_2a4162aa8b" x="163.727213" y="76.236333" style="fill: #21918c; stroke: #ffffff; stroke-width: 0.48"/>
    </g>
    <g clip-path="url(#pb0f89aa716)">
     <use xlink:href="#C0_0_2a4162aa8b" x="244.89085" y="92.05614" style="fill: #3b528b; stroke: #ffffff; stroke-width: 0.48"/>
    </g>
    <g clip-path="url(#pb0f89aa716)">
     <use xlink:href="#C0_0_2a4162aa8b" x="200.619775" y="68.428495" style="fill: #5ec962; stroke: #ffffff; stroke-width: 0.48"/>
    </g>
    <g clip-path="url(#pb0f89aa716)">
     <use xlink:href="#C0_0_2a4162aa8b" x="141.591676" y="87.379433" style="fill: #5ec962; stroke: #ffffff; stroke-width: 0.48"/>
    </g>
    <g clip-path="url(#pb0f89aa716)">
     <use xlink:href="#C0_0_2a4162aa8b" x="318.675974" y="44.862629" style="fill: #fde725; stroke: #ffffff; stroke-width: 0.48"/>
    </g>
    <g clip-path="url(#pb0f89aa716)">
     <use xlink:href="#C0_0_2a4162aa8b" x="333.432998" y="64.974539" style="fill: #fde725; stroke: #ffffff; stroke-width: 0.48"/>
    </g>
    <g clip-path="url(#pb0f89aa716)">
     <use xlink:href="#C0_0_2a4162aa8b" x="230.133825" y="53.373292" style="fill: #3b528b; stroke: #ffffff; stroke-width: 0.48"/>
    </g>
    <g clip-path="url(#pb0f89aa716)">
     <use xlink:href="#C0_0_2a4162aa8b" x="311.297461" y="101.448938" style="fill: #21918c; stroke: #ffffff; stroke-width: 0.48"/>
    </g>
    <g clip-path="url(#pb0f89aa716)">
     <use xlink:href="#C0_0_2a4162aa8b" x="370.32556" y="77.698664" style="fill: #3b528b; stroke: #ffffff; stroke-width: 0.48"/>
    </g>
    <g clip-path="url(#pb0f89aa716)">
     <use xlink:href="#C0_0_2a4162aa8b" x="333.432998" y="53.167454" style="fill: #3b528b; stroke: #ffffff; stroke-width: 0.48"/>
    </g>
    <g clip-path="url(#pb0f89aa716)">
     <use xlink:href="#C0_0_2a4162aa8b" x="222.755313" y="87.517347" style="fill: #21918c; stroke: #ffffff; stroke-width: 0.48"/>
    </g>
    <g clip-path="url(#pb0f89aa716)">
     <use xlink:href="#C0_0_2a4162aa8b" x="97.320602" y="41.319839" style="fill: #5ec962; stroke: #ffffff; stroke-width: 0.48"/>
    </g>
    <g clip-path="url(#pb0f89aa716)">
     <use xlink:href="#C0_0_2a4162aa8b" x="89.942089" y="65.022613" style="fill: #fde725; stroke: #ffffff; stroke-width: 0.48"/>
    </g>
    <g clip-path="url(#pb0f89aa716)">
     <use xlink:href="#C0_0_2a4162aa8b" x="303.918949" y="74.850403" style="fill: #fde725; stroke: #ffffff; stroke-width: 0.48"/>
    </g>
    <g clip-path="url(#pb0f89aa716)">
     <use xlink:href="#C0_0_2a4162aa8b" x="281.783412" y="71.875652" style="fill: #21918c; stroke: #ffffff; stroke-width: 0.48"/>
    </g>
    <g clip-path="url(#pb0f89aa716)">
     <use xlink:href="#C0_0_2a4162aa8b" x="104.699114" y="45.372395" style="fill: #3b528b; stroke: #ffffff; stroke-width: 0.48"/>
    </g>
    <g clip-path="url(#pb0f89aa716)">
     <use xlink:href="#C0_0_2a4162aa8b" x="134.213164" y="81.844912" style="fill: #440154; stroke: #ffffff; stroke-width: 0.48"/>
    </g>
    <g clip-path="url(#pb0f89aa716)">
     <use xlink:href="#C0_0_2a4162aa8b" x="148.970189" y="44.398343" style="fill: #440154; stroke: #ffffff; stroke-width: 0.48"/>
    </g>
    <g clip-path="url(#pb0f89aa716)">
     <use xlink:href="#C0_0_2a4162aa8b" x="126.834651" y="80.563233" style="fill: #440154; stroke: #ffffff; stroke-width: 0.48"/>
    </g>
    <g clip-path="url(#pb0f89aa716)">
     <use xlink:href="#C0_0_2a4162aa8b" x="171.105726" y="71.842418" style="fill: #21918c; stroke: #ffffff; stroke-width: 0.48"/>
    </g>
    <g clip-path="url(#pb0f89aa716)">
     <use xlink:href="#C0_0_2a4162aa8b" x="237.512337" y="72.854505" style="fill: #3b528b; stroke: #ffffff; stroke-width: 0.48"/>
    </g>
    <g clip-path="url(#pb0f89aa716)">
     <use xlink:href="#C0_0_2a4162aa8b" x="230.133825" y="73.702598" style="fill: #440154; stroke: #ffffff; stroke-width: 0.48"/>
    </g>
    <g clip-path="url(#pb0f89aa716)">
     <use xlink:href="#C0_0_2a4162aa8b" x="104.699114" y="71.181636" style="fill: #440154; stroke: #ffffff; stroke-width: 0.48"/>
    </g>
    <g clip-path="url(#pb0f89aa716)">
     <use xlink:href="#C0_0_2a4162aa8b" x="340.811511" y="77.204508" style="fill: #440154; stroke: #ffffff; stroke-width: 0.48"/>
    </g>
    <g clip-path="url(#pb0f89aa716)">
     <use xlink:href="#C0_0_2a4162aa8b" x="362.947048" y="56.48999" style="fill: #fde725; stroke: #ffffff; stroke-width: 0.48"/>
    </g>
    <g clip-path="url(#pb0f89aa716)">
     <use xlink:href="#C0_0_2a4162aa8b" x="237.512337" y="50.507673" style="fill: #440154; stroke: #ffffff; stroke-width: 0.48"/>
    </g>
    <g clip-path="url(#pb0f89aa716)">
     <use xlink:href="#C0_0_2a4162aa8b" x="311.297461" y="57.695827" style="fill: #21918c; stroke: #ffffff; stroke-width: 0.48"/>
    </g>
    <g clip-path="url(#pb0f89aa716)">
     <use xlink:href="#C0_0_2a4162aa8b" x="311.297461" y="55.35745" style="fill: #3b528b; stroke: #ffffff; stroke-width: 0.48"/>
    </g>
    <g clip-path="url(#pb0f89aa716)">
     <use xlink:href="#C0_0_2a4162aa8b" x="178.484238" y="13.457447" style="fill: #21918c; stroke: #ffffff; stroke-width: 0.48"/>
    </g>
    <g clip-path="url(#pb0f89aa716)">
     <use xlink:href="#C0_0_2a4162aa8b" x="274.404899" y="73.816501" style="fill: #3b528b; stroke: #ffffff; stroke-width: 0.48"/>
    </g>
    <g clip-path="url(#pb0f89aa716)">
     <use xlink:href="#C0_0_2a4162aa8b" x="237.512337" y="45.225212" style="fill: #440154; stroke: #ffffff; stroke-width: 0.48"/>
    </g>
    <g clip-path="url(#pb0f89aa716)">
     <use xlink:href="#C0_0_2a4162aa8b" x="75.185065" y="62.97809" style="fill: #fde725; stroke: #ffffff; stroke-width: 0.48"/>
    </g>
    <g clip-path="url(#pb0f89aa716)">
     <use xlink:href="#C0_0_2a4162aa8b" x="333.432998" y="93.482354" style="fill: #21918c; stroke: #ffffff; stroke-width: 0.48"/>
    </g>
    <g clip-path="url(#pb0f89aa716)">
     <use xlink:href="#C0_0_2a4162aa8b" x="267.026387" y="58.556326" style="fill: #5ec962; stroke: #ffffff; stroke-width: 0.48"/>
    </g>
    <g clip-path="url(#pb0f89aa716)">
     <use xlink:href="#C0_0_2a4162aa8b" x="289.161924" y="99.038865" style="fill: #fde725; stroke: #ffffff; stroke-width: 0.48"/>
    </g>
    <g clip-path="url(#pb0f89aa716)">
     <use xlink:href="#C0_0_2a4162aa8b" x="141.591676" y="86.158458" style="fill: #3b528b; stroke: #ffffff; stroke-width: 0.48"/>
    </g>
    <g clip-path="url(#pb0f89aa716)">
     <use xlink:href="#C0_0_2a4162aa8b" x="215.3768" y="77.549309" style="fill: #21918c; stroke: #ffffff; stroke-width: 0.48"/>
    </g>
    <g clip-path="url(#pb0f89aa716)">
     <use xlink:href="#C0_0_2a4162aa8b" x="303.918949" y="57.455708" style="fill: #440154; stroke: #ffffff; stroke-width: 0.48"/>
    </g>
    <g clip-path="url(#pb0f89aa716)">
     <use xlink:href="#C0_0_2a4162aa8b" x="303.918949" y="104.951678" style="fill: #3b528b; stroke: #ffffff; stroke-width: 0.48"/>
    </g>
    <g clip-path="url(#pb0f89aa716)">
     <use xlink:href="#C0_0_2a4162aa8b" x="252.269362" y="138.606395" style="fill: #440154; stroke: #ffffff; stroke-width: 0.48"/>
    </g>
    <g clip-path="url(#pb0f89aa716)">
     <use xlink:href="#C0_0_2a4162aa8b" x="274.404899" y="65.890984" style="fill: #5ec962; stroke: #ffffff; stroke-width: 0.48"/>
    </g>
    <g clip-path="url(#pb0f89aa716)">
     <use xlink:href="#C0_0_2a4162aa8b" x="377.704073" y="68.813464" style="fill: #5ec962; stroke: #ffffff; stroke-width: 0.48"/>
    </g>
    <g clip-path="url(#pb0f89aa716)">
     <use xlink:href="#C0_0_2a4162aa8b" x="89.942089" y="61.597586" style="fill: #21918c; stroke: #ffffff; stroke-width: 0.48"/>
    </g>
    <g clip-path="url(#pb0f89aa716)">
     <use xlink:href="#C0_0_2a4162aa8b" x="185.862751" y="42.15758" style="fill: #5ec962; stroke: #ffffff; stroke-width: 0.48"/>
    </g>
    <g clip-path="url(#pb0f89aa716)">
     <use xlink:href="#C0_0_2a4162aa8b" x="311.297461" y="91.585164" style="fill: #5ec962; stroke: #ffffff; stroke-width: 0.48"/>
    </g>
    <g clip-path="url(#pb0f89aa716)">
     <use xlink:href="#C0_0_2a4162aa8b" x="163.727213" y="74.178909" style="fill: #3b528b; stroke: #ffffff; stroke-width: 0.48"/>
    </g>
    <g clip-path="url(#pb0f89aa716)">
     <use xlink:href="#C0_0_2a4162aa8b" x="230.133825" y="57.103213" style="fill: #21918c; stroke: #ffffff; stroke-width: 0.48"/>
    </g>
    <g clip-path="url(#pb0f89aa716)">
     <use xlink:href="#C0_0_2a4162aa8b" x="178.484238" y="87.95654" style="fill: #21918c; stroke: #ffffff; stroke-width: 0.48"/>
    </g>
    <g clip-path="url(#pb0f89aa716)">
     <use xlink:href="#C0_0_2a4162aa8b" x="267.026387" y="51.796386" style="fill: #fde725; stroke: #ffffff; stroke-width: 0.48"/>
    </g>
    <g clip-path="url(#pb0f89aa716)">
     <use xlink:href="#C0_0_2a4162aa8b" x="348.190023" y="64.964131" style="fill: #21918c; stroke: #ffffff; stroke-width: 0.48"/>
    </g>
    <g clip-path="url(#pb0f89aa716)">
     <use xlink:href="#C0_0_2a4162aa8b" x="75.185065" y="69.203184" style="fill: #5ec962; stroke: #ffffff; stroke-width: 0.48"/>
    </g>
    <g clip-path="url(#pb0f89aa716)">
     <use xlink:href="#C0_0_2a4162aa8b" x="89.942089" y="62.037482" style="fill: #21918c; stroke: #ffffff; stroke-width: 0.48"/>
    </g>
    <g clip-path="url(#pb0f89aa716)">
     <use xlink:href="#C0_0_2a4162aa8b" x="82.563577" y="77.949031" style="fill: #21918c; stroke: #ffffff; stroke-width: 0.48"/>
    </g>
    <g clip-path="url(#pb0f89aa716)">
     <use xlink:href="#C0_0_2a4162aa8b" x="326.054486" y="53.970628" style="fill: #5ec962; stroke: #ffffff; stroke-width: 0.48"/>
    </g>
    <g clip-path="url(#pb0f89aa716)">
     <use xlink:href="#C0_0_2a4162aa8b" x="119.456139" y="55.834781" style="fill: #5ec962; stroke: #ffffff; stroke-width: 0.48"/>
    </g>
    <g clip-path="url(#pb0f89aa716)">
     <use xlink:href="#C0_0_2a4162aa8b" x="267.026387" y="77.516193" style="fill: #fde725; stroke: #ffffff; stroke-width: 0.48"/>
    </g>
    <g clip-path="url(#pb0f89aa716)">
     <use xlink:href="#C0_0_2a4162aa8b" x="281.783412" y="49.023901" style="fill: #5ec962; stroke: #ffffff; stroke-width: 0.48"/>
    </g>
    <g clip-path="url(#pb0f89aa716)">
     <use xlink:href="#C0_0_2a4162aa8b" x="119.456139" y="57.730261" style="fill: #440154; stroke: #ffffff; stroke-width: 0.48"/>
    </g>
    <g clip-path="url(#pb0f89aa716)">
     <use xlink:href="#C0_0_2a4162aa8b" x="303.918949" y="71.389007" style="fill: #21918c; stroke: #ffffff; stroke-width: 0.48"/>
    </g>
    <g clip-path="url(#pb0f89aa716)">
     <use xlink:href="#C0_0_2a4162aa8b" x="178.484238" y="64.28926" style="fill: #440154; stroke: #ffffff; stroke-width: 0.48"/>
    </g>
    <g clip-path="url(#pb0f89aa716)">
     <use xlink:href="#C0_0_2a4162aa8b" x="267.026387" y="73.833447" style="fill: #fde725; stroke: #ffffff; stroke-width: 0.48"/>
    </g>
    <g clip-path="url(#pb0f89aa716)">
     <use xlink:href="#C0_0_2a4162aa8b" x="156.348701" y="76.392867" style="fill: #21918c; stroke: #ffffff; stroke-width: 0.48"/>
    </g>
    <g clip-path="url(#pb0f89aa716)">
     <use xlink:href="#C0_0_2a4162aa8b" x="60.42804" y="31.101142" style="fill: #3b528b; stroke: #ffffff; stroke-width: 0.48"/>
    </g>
    <g clip-path="url(#pb0f89aa716)">
     <use xlink:href="#C0_0_2a4162aa8b" x="82.563577" y="97.151493" style="fill: #3b528b; stroke: #ffffff; stroke-width: 0.48"/>
    </g>
    <g clip-path="url(#pb0f89aa716)">
     <use xlink:href="#C0_0_2a4162aa8b" x="281.783412" y="55.169316" style="fill: #3b528b; stroke: #ffffff; stroke-width: 0.48"/>
    </g>
    <g clip-path="url(#pb0f89aa716)">
     <use xlink:href="#C0_0_2a4162aa8b" x="259.647874" y="76.574592" style="fill: #fde725; stroke: #ffffff; stroke-width: 0.48"/>
    </g>
    <g clip-path="url(#pb0f89aa716)">
     <use xlink:href="#C0_0_2a4162aa8b" x="141.591676" y="40.138471" style="fill: #fde725; stroke: #ffffff; stroke-width: 0.48"/>
    </g>
    <g clip-path="url(#pb0f89aa716)">
     <use xlink:href="#C0_0_2a4162aa8b" x="141.591676" y="108.531445" style="fill: #21918c; stroke: #ffffff; stroke-width: 0.48"/>
    </g>
    <g clip-path="url(#pb0f89aa716)">
     <use xlink:href="#C0_0_2a4162aa8b" x="348.190023" y="73.17823" style="fill: #21918c; stroke: #ffffff; stroke-width: 0.48"/>
    </g>
    <g clip-path="url(#pb0f89aa716)">
     <use xlink:href="#C0_0_2a4162aa8b" x="134.213164" y="83.232605" style="fill: #21918c; stroke: #ffffff; stroke-width: 0.48"/>
    </g>
    <g clip-path="url(#pb0f89aa716)">
     <use xlink:href="#C0_0_2a4162aa8b" x="178.484238" y="50.199476" style="fill: #440154; stroke: #ffffff; stroke-width: 0.48"/>
    </g>
    <g clip-path="url(#pb0f89aa716)">
     <use xlink:href="#C0_0_2a4162aa8b" x="104.699114" y="73.164373" style="fill: #21918c; stroke: #ffffff; stroke-width: 0.48"/>
    </g>
    <g clip-path="url(#pb0f89aa716)">
     <use xlink:href="#C0_0_2a4162aa8b" x="289.161924" y="67.255894" style="fill: #5ec962; stroke: #ffffff; stroke-width: 0.48"/>
    </g>
    <g clip-path="url(#pb0f89aa716)">
     <use xlink:href="#C0_0_2a4162aa8b" x="340.811511" y="74.895853" style="fill: #3b528b; stroke: #ffffff; stroke-width: 0.48"/>
    </g>
    <g clip-path="url(#pb0f89aa716)">
     <use xlink:href="#C0_0_2a4162aa8b" x="207.998288" y="89.302808" style="fill: #5ec962; stroke: #ffffff; stroke-width: 0.48"/>
    </g>
    <g clip-path="url(#pb0f89aa716)">
     <use xlink:href="#C0_0_2a4162aa8b" x="200.619775" y="59.13369" style="fill: #5ec962; stroke: #ffffff; stroke-width: 0.48"/>
    </g>
    <g clip-path="url(#pb0f89aa716)">
     <use xlink:href="#C0_0_2a4162aa8b" x="237.512337" y="76.041362" style="fill: #440154; stroke: #ffffff; stroke-width: 0.48"/>
    </g>
    <g clip-path="url(#pb0f89aa716)">
     <use xlink:href="#C0_0_2a4162aa8b" x="348.190023" y="79.826963" style="fill: #440154; stroke: #ffffff; stroke-width: 0.48"/>
    </g>
    <g clip-path="url(#pb0f89aa716)">
     <use xlink:href="#C0_0_2a4162aa8b" x="178.484238" y="110.333835" style="fill: #5ec962; stroke: #ffffff; stroke-width: 0.48"/>
    </g>
    <g clip-path="url(#pb0f89aa716)">
     <use xlink:href="#C0_0_2a4162aa8b" x="163.727213" y="69.66163" style="fill: #5ec962; stroke: #ffffff; stroke-width: 0.48"/>
    </g>
    <g clip-path="url(#pb0f89aa716)">
     <use xlink:href="#C0_0_2a4162aa8b" x="185.862751" y="71.360042" style="fill: #440154; stroke: #ffffff; stroke-width: 0.48"/>
    </g>
    <g clip-path="url(#pb0f89aa716)">
     <use xlink:href="#C0_0_2a4162aa8b" x="222.755313" y="66.568013" style="fill: #3b528b; stroke: #ffffff; stroke-width: 0.48"/>
    </g>
    <g clip-path="url(#pb0f89aa716)">
     <use xlink:href="#C0_0_2a4162aa8b" x="82.563577" y="104.379327" style="fill: #21918c; stroke: #ffffff; stroke-width: 0.48"/>
    </g>
   </g>
   <g id="line2d_13"/>
   <g id="line2d_14"/>
   <g id="line2d_15"/>
   <g id="line2d_16"/>
   <g id="line2d_17"/>
   <g id="patch_3">
    <path d="M 44.195313 273.312 
L 44.195313 7.2 
" style="fill: none; stroke: #cccccc; stroke-width: 1.25; stroke-linejoin: miter; stroke-linecap: square"/>
   </g>
   <g id="patch_4">
    <path d="M 401.315313 273.312 
L 401.315313 7.2 
" style="fill: none; stroke: #cccccc; stroke-width: 1.25; stroke-linejoin: miter; stroke-linecap: square"/>
   </g>
   <g id="patch_5">
    <path d="M 44.195313 273.312 
L 401.315313 273.312 
" style="fill: none; stroke: #cccccc; stroke-width: 1.25; stroke-linejoin: miter; stroke-linecap: square"/>
   </g>
   <g id="patch_6">
    <path d="M 44.195313 7.2 
L 401.315313 7.2 
" style="fill: none; stroke: #cccccc; stroke-width: 1.25; stroke-linejoin: miter; stroke-linecap: square"/>
   </g>
   <g id="legend_1">
    <g id="patch_7">
     <path d="M 306.44375 267.812 
L 393.615313 267.812 
Q 395.815313 267.812 395.815313 265.612 
L 395.815313 171.893719 
Q 395.815313 169.693719 393.615313 169.693719 
L 306.44375 169.693719 
Q 304.24375 169.693719 304.24375 171.893719 
L 304.24375 265.612 
Q 304.24375 267.812 306.44375 267.812 
z
" style="fill: #ffffff; opacity: 0.8; stroke: #cccccc; stroke-linejoin: miter"/>
    </g>
    <g id="text_15">
     <!-- Seniority -->
     <g style="fill: #262626" transform="translate(326.686719 182.829344) scale(0.12 -0.12)">
      <defs>
       <path id="ArialMT-53" d="M 288 1472 
L 859 1522 
Q 900 1178 1048 958 
Q 1197 738 1509 602 
Q 1822 466 2213 466 
Q 2559 466 2825 569 
Q 3091 672 3220 851 
Q 3350 1031 3350 1244 
Q 3350 1459 3225 1620 
Q 3100 1781 2813 1891 
Q 2628 1963 1997 2114 
Q 1366 2266 1113 2400 
Q 784 2572 623 2826 
Q 463 3081 463 3397 
Q 463 3744 659 4045 
Q 856 4347 1234 4503 
Q 1613 4659 2075 4659 
Q 2584 4659 2973 4495 
Q 3363 4331 3572 4012 
Q 3781 3694 3797 3291 
L 3216 3247 
Q 3169 3681 2898 3903 
Q 2628 4125 2100 4125 
Q 1550 4125 1298 3923 
Q 1047 3722 1047 3438 
Q 1047 3191 1225 3031 
Q 1400 2872 2139 2705 
Q 2878 2538 3153 2413 
Q 3553 2228 3743 1945 
Q 3934 1663 3934 1294 
Q 3934 928 3725 604 
Q 3516 281 3123 101 
Q 2731 -78 2241 -78 
Q 1619 -78 1198 103 
Q 778 284 539 648 
Q 300 1013 288 1472 
z
" transform="scale(0.015625)"/>
       <path id="ArialMT-74" d="M 1650 503 
L 1731 6 
Q 1494 -44 1306 -44 
Q 1000 -44 831 53 
Q 663 150 594 308 
Q 525 466 525 972 
L 525 2881 
L 113 2881 
L 113 3319 
L 525 3319 
L 525 4141 
L 1084 4478 
L 1084 3319 
L 1650 3319 
L 1650 2881 
L 1084 2881 
L 1084 941 
Q 1084 700 1114 631 
Q 1144 563 1211 522 
Q 1278 481 1403 481 
Q 1497 481 1650 503 
z
" transform="scale(0.015625)"/>
      </defs>
      <use xlink:href="#ArialMT-53"/>
      <use xlink:href="#ArialMT-65" x="66.699219"/>
      <use xlink:href="#ArialMT-6e" x="122.314453"/>
      <use xlink:href="#ArialMT-69" x="177.929688"/>
      <use xlink:href="#ArialMT-6f" x="200.146484"/>
      <use xlink:href="#ArialMT-72" x="255.761719"/>
      <use xlink:href="#ArialMT-69" x="289.0625"/>
      <use xlink:href="#ArialMT-74" x="311.279297"/>
      <use xlink:href="#ArialMT-79" x="339.0625"/>
     </g>
    </g>
    <g id="PathCollection_2">
     <path d="M 319.64375 198.841062 
C 320.439359 198.841062 321.20249 198.524964 321.76507 197.962383 
C 322.327651 197.399802 322.64375 196.636672 322.64375 195.841062 
C 322.64375 195.045453 322.327651 194.282323 321.76507 193.719742 
C 321.20249 193.157161 320.439359 192.841062 319.64375 192.841062 
C 318.848141 192.841062 318.08501 193.157161 317.52243 193.719742 
C 316.959849 194.282323 316.64375 195.045453 316.64375 195.841062 
C 316.64375 196.636672 316.959849 197.399802 317.52243 197.962383 
C 318.08501 198.524964 318.848141 198.841062 319.64375 198.841062 
z
" style="fill: #fde725; stroke: #ffffff; stroke-width: 0.48"/>
    </g>
    <g id="text_16">
     <!-- Undergrad -->
     <g style="fill: #262626" transform="translate(339.44375 198.728562) scale(0.11 -0.11)">
      <defs>
       <path id="ArialMT-55" d="M 3500 4581 
L 4106 4581 
L 4106 1934 
Q 4106 1244 3950 837 
Q 3794 431 3386 176 
Q 2978 -78 2316 -78 
Q 1672 -78 1262 144 
Q 853 366 678 786 
Q 503 1206 503 1934 
L 503 4581 
L 1109 4581 
L 1109 1938 
Q 1109 1341 1220 1058 
Q 1331 775 1601 622 
Q 1872 469 2263 469 
Q 2931 469 3215 772 
Q 3500 1075 3500 1938 
L 3500 4581 
z
" transform="scale(0.015625)"/>
       <path id="ArialMT-64" d="M 2575 0 
L 2575 419 
Q 2259 -75 1647 -75 
Q 1250 -75 917 144 
Q 584 363 401 755 
Q 219 1147 219 1656 
Q 219 2153 384 2558 
Q 550 2963 881 3178 
Q 1213 3394 1622 3394 
Q 1922 3394 2156 3267 
Q 2391 3141 2538 2938 
L 2538 4581 
L 3097 4581 
L 3097 0 
L 2575 0 
z
M 797 1656 
Q 797 1019 1065 703 
Q 1334 388 1700 388 
Q 2069 388 2326 689 
Q 2584 991 2584 1609 
Q 2584 2291 2321 2609 
Q 2059 2928 1675 2928 
Q 1300 2928 1048 2622 
Q 797 2316 797 1656 
z
" transform="scale(0.015625)"/>
      </defs>
      <use xlink:href="#ArialMT-55"/>
      <use xlink:href="#ArialMT-6e" x="72.216797"/>
      <use xlink:href="#ArialMT-64" x="127.832031"/>
      <use xlink:href="#ArialMT-65" x="183.447266"/>
      <use xlink:href="#ArialMT-72" x="239.0625"/>
      <use xlink:href="#ArialMT-67" x="272.363281"/>
      <use xlink:href="#ArialMT-72" x="327.978516"/>
      <use xlink:href="#ArialMT-61" x="361.279297"/>
      <use xlink:href="#ArialMT-64" x="416.894531"/>
     </g>
    </g>
    <g id="line2d_18">
     <defs>
      <path id="mb0f30068c4" d="M 0 3 
C 0.795609 3 1.55874 2.683901 2.12132 2.12132 
C 2.683901 1.55874 3 0.795609 3 0 
C 3 -0.795609 2.683901 -1.55874 2.12132 -2.12132 
C 1.55874 -2.683901 0.795609 -3 0 -3 
C -0.795609 -3 -1.55874 -2.683901 -2.12132 -2.12132 
C -2.683901 -1.55874 -3 -0.795609 -3 0 
C -3 0.795609 -2.683901 1.55874 -2.12132 2.12132 
C -1.55874 2.683901 -0.795609 3 0 3 
z
" style="stroke: #ffffff; stroke-width: 0.48"/>
     </defs>
     <g>
      <use xlink:href="#mb0f30068c4" x="319.64375" y="210.567312" style="fill: #440154; stroke: #ffffff; stroke-width: 0.48"/>
     </g>
    </g>
    <g id="text_17">
     <!-- Postgrad -->
     <g style="fill: #262626" transform="translate(339.44375 214.417312) scale(0.11 -0.11)">
      <defs>
       <path id="ArialMT-50" d="M 494 0 
L 494 4581 
L 2222 4581 
Q 2678 4581 2919 4538 
Q 3256 4481 3484 4323 
Q 3713 4166 3852 3881 
Q 3991 3597 3991 3256 
Q 3991 2672 3619 2267 
Q 3247 1863 2275 1863 
L 1100 1863 
L 1100 0 
L 494 0 
z
M 1100 2403 
L 2284 2403 
Q 2872 2403 3119 2622 
Q 3366 2841 3366 3238 
Q 3366 3525 3220 3729 
Q 3075 3934 2838 4000 
Q 2684 4041 2272 4041 
L 1100 4041 
L 1100 2403 
z
" transform="scale(0.015625)"/>
       <path id="ArialMT-73" d="M 197 991 
L 753 1078 
Q 800 744 1014 566 
Q 1228 388 1613 388 
Q 2000 388 2187 545 
Q 2375 703 2375 916 
Q 2375 1106 2209 1216 
Q 2094 1291 1634 1406 
Q 1016 1563 777 1677 
Q 538 1791 414 1992 
Q 291 2194 291 2438 
Q 291 2659 392 2848 
Q 494 3038 669 3163 
Q 800 3259 1026 3326 
Q 1253 3394 1513 3394 
Q 1903 3394 2198 3281 
Q 2494 3169 2634 2976 
Q 2775 2784 2828 2463 
L 2278 2388 
Q 2241 2644 2061 2787 
Q 1881 2931 1553 2931 
Q 1166 2931 1000 2803 
Q 834 2675 834 2503 
Q 834 2394 903 2306 
Q 972 2216 1119 2156 
Q 1203 2125 1616 2013 
Q 2213 1853 2448 1751 
Q 2684 1650 2818 1456 
Q 2953 1263 2953 975 
Q 2953 694 2789 445 
Q 2625 197 2315 61 
Q 2006 -75 1616 -75 
Q 969 -75 630 194 
Q 291 463 197 991 
z
" transform="scale(0.015625)"/>
      </defs>
      <use xlink:href="#ArialMT-50"/>
      <use xlink:href="#ArialMT-6f" x="66.699219"/>
      <use xlink:href="#ArialMT-73" x="122.314453"/>
      <use xlink:href="#ArialMT-74" x="172.314453"/>
      <use xlink:href="#ArialMT-67" x="200.097656"/>
      <use xlink:href="#ArialMT-72" x="255.712891"/>
      <use xlink:href="#ArialMT-61" x="289.013672"/>
      <use xlink:href="#ArialMT-64" x="344.628906"/>
     </g>
    </g>
    <g id="line2d_19">
     <defs>
      <path id="m47cd631886" d="M 0 3 
C 0.795609 3 1.55874 2.683901 2.12132 2.12132 
C 2.683901 1.55874 3 0.795609 3 0 
C 3 -0.795609 2.683901 -1.55874 2.12132 -2.12132 
C 1.55874 -2.683901 0.795609 -3 0 -3 
C -0.795609 -3 -1.55874 -2.683901 -2.12132 -2.12132 
C -2.683901 -1.55874 -3 -0.795609 -3 0 
C -3 0.795609 -2.683901 1.55874 -2.12132 2.12132 
C -1.55874 2.683901 -0.795609 3 0 3 
z
" style="stroke: #ffffff; stroke-width: 0.48"/>
     </defs>
     <g>
      <use xlink:href="#m47cd631886" x="319.64375" y="226.256062" style="fill: #3b528b; stroke: #ffffff; stroke-width: 0.48"/>
     </g>
    </g>
    <g id="text_18">
     <!-- PhD -->
     <g style="fill: #262626" transform="translate(339.44375 230.106062) scale(0.11 -0.11)">
      <defs>
       <path id="ArialMT-68" d="M 422 0 
L 422 4581 
L 984 4581 
L 984 2938 
Q 1378 3394 1978 3394 
Q 2347 3394 2619 3248 
Q 2891 3103 3008 2847 
Q 3125 2591 3125 2103 
L 3125 0 
L 2563 0 
L 2563 2103 
Q 2563 2525 2380 2717 
Q 2197 2909 1863 2909 
Q 1613 2909 1392 2779 
Q 1172 2650 1078 2428 
Q 984 2206 984 1816 
L 984 0 
L 422 0 
z
" transform="scale(0.015625)"/>
       <path id="ArialMT-44" d="M 494 0 
L 494 4581 
L 2072 4581 
Q 2606 4581 2888 4516 
Q 3281 4425 3559 4188 
Q 3922 3881 4101 3404 
Q 4281 2928 4281 2316 
Q 4281 1794 4159 1391 
Q 4038 988 3847 723 
Q 3656 459 3429 307 
Q 3203 156 2883 78 
Q 2563 0 2147 0 
L 494 0 
z
M 1100 541 
L 2078 541 
Q 2531 541 2789 625 
Q 3047 709 3200 863 
Q 3416 1078 3536 1442 
Q 3656 1806 3656 2325 
Q 3656 3044 3420 3430 
Q 3184 3816 2847 3947 
Q 2603 4041 2063 4041 
L 1100 4041 
L 1100 541 
z
" transform="scale(0.015625)"/>
      </defs>
      <use xlink:href="#ArialMT-50"/>
      <use xlink:href="#ArialMT-68" x="66.699219"/>
      <use xlink:href="#ArialMT-44" x="122.314453"/>
     </g>
    </g>
    <g id="line2d_20">
     <defs>
      <path id="ma85b78a0e8" d="M 0 3 
C 0.795609 3 1.55874 2.683901 2.12132 2.12132 
C 2.683901 1.55874 3 0.795609 3 0 
C 3 -0.795609 2.683901 -1.55874 2.12132 -2.12132 
C 1.55874 -2.683901 0.795609 -3 0 -3 
C -0.795609 -3 -1.55874 -2.683901 -2.12132 -2.12132 
C -2.683901 -1.55874 -3 -0.795609 -3 0 
C -3 0.795609 -2.683901 1.55874 -2.12132 2.12132 
C -1.55874 2.683901 -0.795609 3 0 3 
z
" style="stroke: #ffffff; stroke-width: 0.48"/>
     </defs>
     <g>
      <use xlink:href="#ma85b78a0e8" x="319.64375" y="241.815906" style="fill: #21918c; stroke: #ffffff; stroke-width: 0.48"/>
     </g>
    </g>
    <g id="text_19">
     <!-- Postdoc -->
     <g style="fill: #262626" transform="translate(339.44375 245.665906) scale(0.11 -0.11)">
      <use xlink:href="#ArialMT-50"/>
      <use xlink:href="#ArialMT-6f" x="66.699219"/>
      <use xlink:href="#ArialMT-73" x="122.314453"/>
      <use xlink:href="#ArialMT-74" x="172.314453"/>
      <use xlink:href="#ArialMT-64" x="200.097656"/>
      <use xlink:href="#ArialMT-6f" x="255.712891"/>
      <use xlink:href="#ArialMT-63" x="311.328125"/>
     </g>
    </g>
    <g id="line2d_21">
     <defs>
      <path id="m639a314efc" d="M 0 3 
C 0.795609 3 1.55874 2.683901 2.12132 2.12132 
C 2.683901 1.55874 3 0.795609 3 0 
C 3 -0.795609 2.683901 -1.55874 2.12132 -2.12132 
C 1.55874 -2.683901 0.795609 -3 0 -3 
C -0.795609 -3 -1.55874 -2.683901 -2.12132 -2.12132 
C -2.683901 -1.55874 -3 -0.795609 -3 0 
C -3 0.795609 -2.683901 1.55874 -2.12132 2.12132 
C -1.55874 2.683901 -0.795609 3 0 3 
z
" style="stroke: #ffffff; stroke-width: 0.48"/>
     </defs>
     <g>
      <use xlink:href="#m639a314efc" x="319.64375" y="257.37575" style="fill: #5ec962; stroke: #ffffff; stroke-width: 0.48"/>
     </g>
    </g>
    <g id="text_20">
     <!-- Professor -->
     <g style="fill: #262626" transform="translate(339.44375 261.22575) scale(0.11 -0.11)">
      <use xlink:href="#ArialMT-50"/>
      <use xlink:href="#ArialMT-72" x="66.699219"/>
      <use xlink:href="#ArialMT-6f" x="100"/>
      <use xlink:href="#ArialMT-66" x="155.615234"/>
      <use xlink:href="#ArialMT-65" x="183.398438"/>
      <use xlink:href="#ArialMT-73" x="239.013672"/>
      <use xlink:href="#ArialMT-73" x="289.013672"/>
      <use xlink:href="#ArialMT-6f" x="339.013672"/>
      <use xlink:href="#ArialMT-72" x="394.628906"/>
     </g>
    </g>
   </g>
  </g>
 </g>
 <defs>
  <clipPath id="pb0f89aa716">
   <rect x="44.195313" y="7.2" width="357.12" height="266.112"/>
  </clipPath>
 </defs>
</svg>
