<?xml version="1.0" encoding="utf-8" standalone="no"?>
<!DOCTYPE svg PUBLIC "-//W3C//DTD SVG 1.1//EN"
  "http://www.w3.org/Graphics/SVG/1.1/DTD/svg11.dtd">
<svg xmlns:xlink="http://www.w3.org/1999/xlink" width="417.401406pt" height="315.186844pt" viewBox="0 0 417.401406 315.186844" xmlns="http://www.w3.org/2000/svg" version="1.1">
 <metadata>
  <rdf:RDF xmlns:dc="http://purl.org/dc/elements/1.1/" xmlns:cc="http://creativecommons.org/ns#" xmlns:rdf="http://www.w3.org/1999/02/22-rdf-syntax-ns#">
   <cc:Work>
    <dc:type rdf:resource="http://purl.org/dc/dcmitype/StillImage"/>
    <dc:date>2024-04-25T15:47:33.200549</dc:date>
    <dc:format>image/svg+xml</dc:format>
    <dc:creator>
     <cc:Agent>
      <dc:title>Matplotlib v3.8.3, https://matplotlib.org/</dc:title>
     </cc:Agent>
    </dc:creator>
   </cc:Work>
  </rdf:RDF>
 </metadata>
 <defs>
  <style type="text/css">*{stroke-linejoin: round; stroke-linecap: butt}</style>
 </defs>
 <g id="figure_1">
  <g id="patch_1">
   <path d="M 0 315.186844 
L 417.401406 315.186844 
L 417.401406 0 
L 0 0 
z
" style="fill: #ffffff"/>
  </g>
  <g id="axes_1">
   <g id="patch_2">
    <path d="M 53.081406 273.312 
L 410.201406 273.312 
L 410.201406 7.2 
L 53.081406 7.2 
z
" style="fill: #ffffff"/>
   </g>
   <g id="matplotlib.axis_1">
    <g id="xtick_1">
     <g id="line2d_1">
      <path d="M 69.314134 273.312 
L 69.314134 7.2 
" clip-path="url(#p99bb76dfa0)" style="fill: none; stroke: #cccccc; stroke-linecap: round"/>
     </g>
     <g id="text_1">
      <!-- 0 -->
      <g style="fill: #262626" transform="translate(66.255618 290.685594) scale(0.11 -0.11)">
       <defs>
        <path id="ArialMT-30" d="M 266 2259 
Q 266 3072 433 3567 
Q 600 4063 929 4331 
Q 1259 4600 1759 4600 
Q 2128 4600 2406 4451 
Q 2684 4303 2865 4023 
Q 3047 3744 3150 3342 
Q 3253 2941 3253 2259 
Q 3253 1453 3087 958 
Q 2922 463 2592 192 
Q 2263 -78 1759 -78 
Q 1097 -78 719 397 
Q 266 969 266 2259 
z
M 844 2259 
Q 844 1131 1108 757 
Q 1372 384 1759 384 
Q 2147 384 2411 759 
Q 2675 1134 2675 2259 
Q 2675 3391 2411 3762 
Q 2147 4134 1753 4134 
Q 1366 4134 1134 3806 
Q 844 3388 844 2259 
z
" transform="scale(0.015625)"/>
       </defs>
       <use xlink:href="#ArialMT-30"/>
      </g>
     </g>
    </g>
    <g id="xtick_2">
     <g id="line2d_2">
      <path d="M 112.891925 273.312 
L 112.891925 7.2 
" clip-path="url(#p99bb76dfa0)" style="fill: none; stroke: #cccccc; stroke-linecap: round"/>
     </g>
     <g id="text_2">
      <!-- 20 -->
      <g style="fill: #262626" transform="translate(106.774894 290.685594) scale(0.11 -0.11)">
       <defs>
        <path id="ArialMT-32" d="M 3222 541 
L 3222 0 
L 194 0 
Q 188 203 259 391 
Q 375 700 629 1000 
Q 884 1300 1366 1694 
Q 2113 2306 2375 2664 
Q 2638 3022 2638 3341 
Q 2638 3675 2398 3904 
Q 2159 4134 1775 4134 
Q 1369 4134 1125 3890 
Q 881 3647 878 3216 
L 300 3275 
Q 359 3922 746 4261 
Q 1134 4600 1788 4600 
Q 2447 4600 2831 4234 
Q 3216 3869 3216 3328 
Q 3216 3053 3103 2787 
Q 2991 2522 2730 2228 
Q 2469 1934 1863 1422 
Q 1356 997 1212 845 
Q 1069 694 975 541 
L 3222 541 
z
" transform="scale(0.015625)"/>
       </defs>
       <use xlink:href="#ArialMT-32"/>
       <use xlink:href="#ArialMT-30" x="55.615234"/>
      </g>
     </g>
    </g>
    <g id="xtick_3">
     <g id="line2d_3">
      <path d="M 156.469716 273.312 
L 156.469716 7.2 
" clip-path="url(#p99bb76dfa0)" style="fill: none; stroke: #cccccc; stroke-linecap: round"/>
     </g>
     <g id="text_3">
      <!-- 40 -->
      <g style="fill: #262626" transform="translate(150.352685 290.685594) scale(0.11 -0.11)">
       <defs>
        <path id="ArialMT-34" d="M 2069 0 
L 2069 1097 
L 81 1097 
L 81 1613 
L 2172 4581 
L 2631 4581 
L 2631 1613 
L 3250 1613 
L 3250 1097 
L 2631 1097 
L 2631 0 
L 2069 0 
z
M 2069 1613 
L 2069 3678 
L 634 1613 
L 2069 1613 
z
" transform="scale(0.015625)"/>
       </defs>
       <use xlink:href="#ArialMT-34"/>
       <use xlink:href="#ArialMT-30" x="55.615234"/>
      </g>
     </g>
    </g>
    <g id="xtick_4">
     <g id="line2d_4">
      <path d="M 200.047508 273.312 
L 200.047508 7.2 
" clip-path="url(#p99bb76dfa0)" style="fill: none; stroke: #cccccc; stroke-linecap: round"/>
     </g>
     <g id="text_4">
      <!-- 60 -->
      <g style="fill: #262626" transform="translate(193.930476 290.685594) scale(0.11 -0.11)">
       <defs>
        <path id="ArialMT-36" d="M 3184 3459 
L 2625 3416 
Q 2550 3747 2413 3897 
Q 2184 4138 1850 4138 
Q 1581 4138 1378 3988 
Q 1113 3794 959 3422 
Q 806 3050 800 2363 
Q 1003 2672 1297 2822 
Q 1591 2972 1913 2972 
Q 2475 2972 2870 2558 
Q 3266 2144 3266 1488 
Q 3266 1056 3080 686 
Q 2894 316 2569 119 
Q 2244 -78 1831 -78 
Q 1128 -78 684 439 
Q 241 956 241 2144 
Q 241 3472 731 4075 
Q 1159 4600 1884 4600 
Q 2425 4600 2770 4297 
Q 3116 3994 3184 3459 
z
M 888 1484 
Q 888 1194 1011 928 
Q 1134 663 1356 523 
Q 1578 384 1822 384 
Q 2178 384 2434 671 
Q 2691 959 2691 1453 
Q 2691 1928 2437 2201 
Q 2184 2475 1800 2475 
Q 1419 2475 1153 2201 
Q 888 1928 888 1484 
z
" transform="scale(0.015625)"/>
       </defs>
       <use xlink:href="#ArialMT-36"/>
       <use xlink:href="#ArialMT-30" x="55.615234"/>
      </g>
     </g>
    </g>
    <g id="xtick_5">
     <g id="line2d_5">
      <path d="M 243.625299 273.312 
L 243.625299 7.2 
" clip-path="url(#p99bb76dfa0)" style="fill: none; stroke: #cccccc; stroke-linecap: round"/>
     </g>
     <g id="text_5">
      <!-- 80 -->
      <g style="fill: #262626" transform="translate(237.508268 290.685594) scale(0.11 -0.11)">
       <defs>
        <path id="ArialMT-38" d="M 1131 2484 
Q 781 2613 612 2850 
Q 444 3088 444 3419 
Q 444 3919 803 4259 
Q 1163 4600 1759 4600 
Q 2359 4600 2725 4251 
Q 3091 3903 3091 3403 
Q 3091 3084 2923 2848 
Q 2756 2613 2416 2484 
Q 2838 2347 3058 2040 
Q 3278 1734 3278 1309 
Q 3278 722 2862 322 
Q 2447 -78 1769 -78 
Q 1091 -78 675 323 
Q 259 725 259 1325 
Q 259 1772 486 2073 
Q 713 2375 1131 2484 
z
M 1019 3438 
Q 1019 3113 1228 2906 
Q 1438 2700 1772 2700 
Q 2097 2700 2305 2904 
Q 2513 3109 2513 3406 
Q 2513 3716 2298 3927 
Q 2084 4138 1766 4138 
Q 1444 4138 1231 3931 
Q 1019 3725 1019 3438 
z
M 838 1322 
Q 838 1081 952 856 
Q 1066 631 1291 507 
Q 1516 384 1775 384 
Q 2178 384 2440 643 
Q 2703 903 2703 1303 
Q 2703 1709 2433 1975 
Q 2163 2241 1756 2241 
Q 1359 2241 1098 1978 
Q 838 1716 838 1322 
z
" transform="scale(0.015625)"/>
       </defs>
       <use xlink:href="#ArialMT-38"/>
       <use xlink:href="#ArialMT-30" x="55.615234"/>
      </g>
     </g>
    </g>
    <g id="xtick_6">
     <g id="line2d_6">
      <path d="M 287.20309 273.312 
L 287.20309 7.2 
" clip-path="url(#p99bb76dfa0)" style="fill: none; stroke: #cccccc; stroke-linecap: round"/>
     </g>
     <g id="text_6">
      <!-- 100 -->
      <g style="fill: #262626" transform="translate(278.027543 290.685594) scale(0.11 -0.11)">
       <defs>
        <path id="ArialMT-31" d="M 2384 0 
L 1822 0 
L 1822 3584 
Q 1619 3391 1289 3197 
Q 959 3003 697 2906 
L 697 3450 
Q 1169 3672 1522 3987 
Q 1875 4303 2022 4600 
L 2384 4600 
L 2384 0 
z
" transform="scale(0.015625)"/>
       </defs>
       <use xlink:href="#ArialMT-31"/>
       <use xlink:href="#ArialMT-30" x="55.615234"/>
       <use xlink:href="#ArialMT-30" x="111.230469"/>
      </g>
     </g>
    </g>
    <g id="xtick_7">
     <g id="line2d_7">
      <path d="M 330.780882 273.312 
L 330.780882 7.2 
" clip-path="url(#p99bb76dfa0)" style="fill: none; stroke: #cccccc; stroke-linecap: round"/>
     </g>
     <g id="text_7">
      <!-- 120 -->
      <g style="fill: #262626" transform="translate(321.605335 290.685594) scale(0.11 -0.11)">
       <use xlink:href="#ArialMT-31"/>
       <use xlink:href="#ArialMT-32" x="55.615234"/>
       <use xlink:href="#ArialMT-30" x="111.230469"/>
      </g>
     </g>
    </g>
    <g id="xtick_8">
     <g id="line2d_8">
      <path d="M 374.358673 273.312 
L 374.358673 7.2 
" clip-path="url(#p99bb76dfa0)" style="fill: none; stroke: #cccccc; stroke-linecap: round"/>
     </g>
     <g id="text_8">
      <!-- 140 -->
      <g style="fill: #262626" transform="translate(365.183126 290.685594) scale(0.11 -0.11)">
       <use xlink:href="#ArialMT-31"/>
       <use xlink:href="#ArialMT-34" x="55.615234"/>
       <use xlink:href="#ArialMT-30" x="111.230469"/>
      </g>
     </g>
    </g>
    <g id="text_9">
     <!-- day -->
     <g style="fill: #262626" transform="translate(221.968281 305.461219) scale(0.12 -0.12)">
      <defs>
       <path id="ArialMT-64" d="M 2575 0 
L 2575 419 
Q 2259 -75 1647 -75 
Q 1250 -75 917 144 
Q 584 363 401 755 
Q 219 1147 219 1656 
Q 219 2153 384 2558 
Q 550 2963 881 3178 
Q 1213 3394 1622 3394 
Q 1922 3394 2156 3267 
Q 2391 3141 2538 2938 
L 2538 4581 
L 3097 4581 
L 3097 0 
L 2575 0 
z
M 797 1656 
Q 797 1019 1065 703 
Q 1334 388 1700 388 
Q 2069 388 2326 689 
Q 2584 991 2584 1609 
Q 2584 2291 2321 2609 
Q 2059 2928 1675 2928 
Q 1300 2928 1048 2622 
Q 797 2316 797 1656 
z
" transform="scale(0.015625)"/>
       <path id="ArialMT-61" d="M 2588 409 
Q 2275 144 1986 34 
Q 1697 -75 1366 -75 
Q 819 -75 525 192 
Q 231 459 231 875 
Q 231 1119 342 1320 
Q 453 1522 633 1644 
Q 813 1766 1038 1828 
Q 1203 1872 1538 1913 
Q 2219 1994 2541 2106 
Q 2544 2222 2544 2253 
Q 2544 2597 2384 2738 
Q 2169 2928 1744 2928 
Q 1347 2928 1158 2789 
Q 969 2650 878 2297 
L 328 2372 
Q 403 2725 575 2942 
Q 747 3159 1072 3276 
Q 1397 3394 1825 3394 
Q 2250 3394 2515 3294 
Q 2781 3194 2906 3042 
Q 3031 2891 3081 2659 
Q 3109 2516 3109 2141 
L 3109 1391 
Q 3109 606 3145 398 
Q 3181 191 3288 0 
L 2700 0 
Q 2613 175 2588 409 
z
M 2541 1666 
Q 2234 1541 1622 1453 
Q 1275 1403 1131 1340 
Q 988 1278 909 1158 
Q 831 1038 831 891 
Q 831 666 1001 516 
Q 1172 366 1500 366 
Q 1825 366 2078 508 
Q 2331 650 2450 897 
Q 2541 1088 2541 1459 
L 2541 1666 
z
" transform="scale(0.015625)"/>
       <path id="ArialMT-79" d="M 397 -1278 
L 334 -750 
Q 519 -800 656 -800 
Q 844 -800 956 -737 
Q 1069 -675 1141 -563 
Q 1194 -478 1313 -144 
Q 1328 -97 1363 -6 
L 103 3319 
L 709 3319 
L 1400 1397 
Q 1534 1031 1641 628 
Q 1738 1016 1872 1384 
L 2581 3319 
L 3144 3319 
L 1881 -56 
Q 1678 -603 1566 -809 
Q 1416 -1088 1222 -1217 
Q 1028 -1347 759 -1347 
Q 597 -1347 397 -1278 
z
" transform="scale(0.015625)"/>
      </defs>
      <use xlink:href="#ArialMT-64"/>
      <use xlink:href="#ArialMT-61" x="55.615234"/>
      <use xlink:href="#ArialMT-79" x="111.230469"/>
     </g>
    </g>
   </g>
   <g id="matplotlib.axis_2">
    <g id="ytick_1">
     <g id="line2d_9">
      <path d="M 53.081406 273.312 
L 410.201406 273.312 
" clip-path="url(#p99bb76dfa0)" style="fill: none; stroke: #cccccc; stroke-linecap: round"/>
     </g>
     <g id="text_10">
      <!-- 0.00 -->
      <g style="fill: #262626" transform="translate(22.174375 277.248797) scale(0.11 -0.11)">
       <defs>
        <path id="ArialMT-2e" d="M 581 0 
L 581 641 
L 1222 641 
L 1222 0 
L 581 0 
z
" transform="scale(0.015625)"/>
       </defs>
       <use xlink:href="#ArialMT-30"/>
       <use xlink:href="#ArialMT-2e" x="55.615234"/>
       <use xlink:href="#ArialMT-30" x="83.398438"/>
       <use xlink:href="#ArialMT-30" x="139.013672"/>
      </g>
     </g>
    </g>
    <g id="ytick_2">
     <g id="line2d_10">
      <path d="M 53.081406 240.784487 
L 410.201406 240.784487 
" clip-path="url(#p99bb76dfa0)" style="fill: none; stroke: #cccccc; stroke-linecap: round"/>
     </g>
     <g id="text_11">
      <!-- 0.25 -->
      <g style="fill: #262626" transform="translate(22.174375 244.721284) scale(0.11 -0.11)">
       <defs>
        <path id="ArialMT-35" d="M 266 1200 
L 856 1250 
Q 922 819 1161 601 
Q 1400 384 1738 384 
Q 2144 384 2425 690 
Q 2706 997 2706 1503 
Q 2706 1984 2436 2262 
Q 2166 2541 1728 2541 
Q 1456 2541 1237 2417 
Q 1019 2294 894 2097 
L 366 2166 
L 809 4519 
L 3088 4519 
L 3088 3981 
L 1259 3981 
L 1013 2750 
Q 1425 3038 1878 3038 
Q 2478 3038 2890 2622 
Q 3303 2206 3303 1553 
Q 3303 931 2941 478 
Q 2500 -78 1738 -78 
Q 1113 -78 717 272 
Q 322 622 266 1200 
z
" transform="scale(0.015625)"/>
       </defs>
       <use xlink:href="#ArialMT-30"/>
       <use xlink:href="#ArialMT-2e" x="55.615234"/>
       <use xlink:href="#ArialMT-32" x="83.398438"/>
       <use xlink:href="#ArialMT-35" x="139.013672"/>
      </g>
     </g>
    </g>
    <g id="ytick_3">
     <g id="line2d_11">
      <path d="M 53.081406 208.256974 
L 410.201406 208.256974 
" clip-path="url(#p99bb76dfa0)" style="fill: none; stroke: #cccccc; stroke-linecap: round"/>
     </g>
     <g id="text_12">
      <!-- 0.50 -->
      <g style="fill: #262626" transform="translate(22.174375 212.193771) scale(0.11 -0.11)">
       <use xlink:href="#ArialMT-30"/>
       <use xlink:href="#ArialMT-2e" x="55.615234"/>
       <use xlink:href="#ArialMT-35" x="83.398438"/>
       <use xlink:href="#ArialMT-30" x="139.013672"/>
      </g>
     </g>
    </g>
    <g id="ytick_4">
     <g id="line2d_12">
      <path d="M 53.081406 175.729461 
L 410.201406 175.729461 
" clip-path="url(#p99bb76dfa0)" style="fill: none; stroke: #cccccc; stroke-linecap: round"/>
     </g>
     <g id="text_13">
      <!-- 0.75 -->
      <g style="fill: #262626" transform="translate(22.174375 179.666258) scale(0.11 -0.11)">
       <defs>
        <path id="ArialMT-37" d="M 303 3981 
L 303 4522 
L 3269 4522 
L 3269 4084 
Q 2831 3619 2401 2847 
Q 1972 2075 1738 1259 
Q 1569 684 1522 0 
L 944 0 
Q 953 541 1156 1306 
Q 1359 2072 1739 2783 
Q 2119 3494 2547 3981 
L 303 3981 
z
" transform="scale(0.015625)"/>
       </defs>
       <use xlink:href="#ArialMT-30"/>
       <use xlink:href="#ArialMT-2e" x="55.615234"/>
       <use xlink:href="#ArialMT-37" x="83.398438"/>
       <use xlink:href="#ArialMT-35" x="139.013672"/>
      </g>
     </g>
    </g>
    <g id="ytick_5">
     <g id="line2d_13">
      <path d="M 53.081406 143.201948 
L 410.201406 143.201948 
" clip-path="url(#p99bb76dfa0)" style="fill: none; stroke: #cccccc; stroke-linecap: round"/>
     </g>
     <g id="text_14">
      <!-- 1.00 -->
      <g style="fill: #262626" transform="translate(22.174375 147.138745) scale(0.11 -0.11)">
       <use xlink:href="#ArialMT-31"/>
       <use xlink:href="#ArialMT-2e" x="55.615234"/>
       <use xlink:href="#ArialMT-30" x="83.398438"/>
       <use xlink:href="#ArialMT-30" x="139.013672"/>
      </g>
     </g>
    </g>
    <g id="ytick_6">
     <g id="line2d_14">
      <path d="M 53.081406 110.674435 
L 410.201406 110.674435 
" clip-path="url(#p99bb76dfa0)" style="fill: none; stroke: #cccccc; stroke-linecap: round"/>
     </g>
     <g id="text_15">
      <!-- 1.25 -->
      <g style="fill: #262626" transform="translate(22.174375 114.611232) scale(0.11 -0.11)">
       <use xlink:href="#ArialMT-31"/>
       <use xlink:href="#ArialMT-2e" x="55.615234"/>
       <use xlink:href="#ArialMT-32" x="83.398438"/>
       <use xlink:href="#ArialMT-35" x="139.013672"/>
      </g>
     </g>
    </g>
    <g id="ytick_7">
     <g id="line2d_15">
      <path d="M 53.081406 78.146922 
L 410.201406 78.146922 
" clip-path="url(#p99bb76dfa0)" style="fill: none; stroke: #cccccc; stroke-linecap: round"/>
     </g>
     <g id="text_16">
      <!-- 1.50 -->
      <g style="fill: #262626" transform="translate(22.174375 82.083719) scale(0.11 -0.11)">
       <use xlink:href="#ArialMT-31"/>
       <use xlink:href="#ArialMT-2e" x="55.615234"/>
       <use xlink:href="#ArialMT-35" x="83.398438"/>
       <use xlink:href="#ArialMT-30" x="139.013672"/>
      </g>
     </g>
    </g>
    <g id="ytick_8">
     <g id="line2d_16">
      <path d="M 53.081406 45.619409 
L 410.201406 45.619409 
" clip-path="url(#p99bb76dfa0)" style="fill: none; stroke: #cccccc; stroke-linecap: round"/>
     </g>
     <g id="text_17">
      <!-- 1.75 -->
      <g style="fill: #262626" transform="translate(22.174375 49.556205) scale(0.11 -0.11)">
       <use xlink:href="#ArialMT-31"/>
       <use xlink:href="#ArialMT-2e" x="55.615234"/>
       <use xlink:href="#ArialMT-37" x="83.398438"/>
       <use xlink:href="#ArialMT-35" x="139.013672"/>
      </g>
     </g>
    </g>
    <g id="ytick_9">
     <g id="line2d_17">
      <path d="M 53.081406 13.091896 
L 410.201406 13.091896 
" clip-path="url(#p99bb76dfa0)" style="fill: none; stroke: #cccccc; stroke-linecap: round"/>
     </g>
     <g id="text_18">
      <!-- 2.00 -->
      <g style="fill: #262626" transform="translate(22.174375 17.028692) scale(0.11 -0.11)">
       <use xlink:href="#ArialMT-32"/>
       <use xlink:href="#ArialMT-2e" x="55.615234"/>
       <use xlink:href="#ArialMT-30" x="83.398438"/>
       <use xlink:href="#ArialMT-30" x="139.013672"/>
      </g>
     </g>
    </g>
    <g id="text_19">
     <!-- value -->
     <g style="fill: #262626" transform="translate(15.789375 154.598813) rotate(-90) scale(0.12 -0.12)">
      <defs>
       <path id="ArialMT-76" d="M 1344 0 
L 81 3319 
L 675 3319 
L 1388 1331 
Q 1503 1009 1600 663 
Q 1675 925 1809 1294 
L 2547 3319 
L 3125 3319 
L 1869 0 
L 1344 0 
z
" transform="scale(0.015625)"/>
       <path id="ArialMT-6c" d="M 409 0 
L 409 4581 
L 972 4581 
L 972 0 
L 409 0 
z
" transform="scale(0.015625)"/>
       <path id="ArialMT-75" d="M 2597 0 
L 2597 488 
Q 2209 -75 1544 -75 
Q 1250 -75 995 37 
Q 741 150 617 320 
Q 494 491 444 738 
Q 409 903 409 1263 
L 409 3319 
L 972 3319 
L 972 1478 
Q 972 1038 1006 884 
Q 1059 663 1231 536 
Q 1403 409 1656 409 
Q 1909 409 2131 539 
Q 2353 669 2445 892 
Q 2538 1116 2538 1541 
L 2538 3319 
L 3100 3319 
L 3100 0 
L 2597 0 
z
" transform="scale(0.015625)"/>
       <path id="ArialMT-65" d="M 2694 1069 
L 3275 997 
Q 3138 488 2766 206 
Q 2394 -75 1816 -75 
Q 1088 -75 661 373 
Q 234 822 234 1631 
Q 234 2469 665 2931 
Q 1097 3394 1784 3394 
Q 2450 3394 2872 2941 
Q 3294 2488 3294 1666 
Q 3294 1616 3291 1516 
L 816 1516 
Q 847 969 1125 678 
Q 1403 388 1819 388 
Q 2128 388 2347 550 
Q 2566 713 2694 1069 
z
M 847 1978 
L 2700 1978 
Q 2663 2397 2488 2606 
Q 2219 2931 1791 2931 
Q 1403 2931 1139 2672 
Q 875 2413 847 1978 
z
" transform="scale(0.015625)"/>
      </defs>
      <use xlink:href="#ArialMT-76"/>
      <use xlink:href="#ArialMT-61" x="50"/>
      <use xlink:href="#ArialMT-6c" x="105.615234"/>
      <use xlink:href="#ArialMT-75" x="127.832031"/>
      <use xlink:href="#ArialMT-65" x="183.447266"/>
     </g>
    </g>
   </g>
   <g id="PolyCollection_1"/>
   <g id="PolyCollection_2"/>
   <g id="line2d_18">
    <path d="M 69.314134 45.925121 
L 71.493023 84.351012 
L 73.671913 41.263149 
L 75.850802 34.216919 
L 78.029692 103.08444 
L 80.208581 32.507439 
L 82.387471 128.613123 
L 84.56636 32.831569 
L 86.74525 65.143788 
L 88.92414 48.846548 
L 91.103029 78.018746 
L 93.281919 39.195997 
L 95.460808 129.36619 
L 97.639698 109.426797 
L 99.818587 98.68981 
L 101.997477 66.791648 
L 104.176367 85.226322 
L 106.355256 111.065369 
L 108.534146 61.662884 
L 110.713035 37.559845 
L 112.891925 104.004369 
L 115.070814 138.516235 
L 117.249704 89.844143 
L 119.428594 142.033239 
L 121.607483 30.813631 
L 123.786373 70.743493 
L 125.965262 71.140643 
L 128.144152 22.028289 
L 130.323041 112.225036 
L 132.501931 83.677863 
L 134.680821 61.713259 
L 136.85971 24.110948 
L 139.0386 95.366861 
L 141.217489 100.078998 
L 143.396379 54.296314 
L 145.575268 133.9313 
L 147.754158 25.9556 
L 149.933047 33.748849 
L 152.111937 42.00444 
L 154.290827 18.991178 
L 156.469716 58.503204 
L 158.648606 32.982049 
L 160.827495 66.203259 
L 163.006385 116.676746 
L 165.185274 129.344115 
L 167.364164 115.51834 
L 169.543054 36.967082 
L 171.721943 106.288034 
L 173.900833 51.8714 
L 176.079722 64.317698 
L 178.258612 133.693297 
L 180.437501 111.806769 
L 182.616391 25.086745 
L 184.795281 61.401099 
L 186.97417 129.499359 
L 189.15306 55.799178 
L 191.331949 36.260999 
L 193.510839 31.269971 
L 195.689728 138.314529 
L 197.868618 141.771951 
L 200.047508 52.426861 
L 202.226397 128.716607 
L 204.405287 126.087803 
L 206.584176 75.996025 
L 208.763066 128.239758 
L 210.941955 102.415542 
L 213.120845 25.793385 
L 215.299734 89.955498 
L 217.478624 104.62146 
L 219.657514 116.969312 
L 221.836403 67.250118 
L 224.015293 36.067943 
L 226.194182 58.40827 
L 228.373072 40.338309 
L 230.551961 128.571681 
L 232.730851 33.539426 
L 234.909741 81.271215 
L 237.08863 78.471865 
L 239.26752 100.921404 
L 241.446409 136.415802 
L 243.625299 126.850043 
L 245.804188 79.644511 
L 247.983078 19.853759 
L 250.161968 119.476954 
L 252.340857 70.450742 
L 254.519747 130.194947 
L 256.698636 83.907832 
L 258.877526 92.682501 
L 261.056415 139.357628 
L 263.235305 94.95093 
L 265.414195 72.877766 
L 267.593084 104.634046 
L 269.771974 66.990615 
L 271.950863 107.773313 
L 274.129753 33.342226 
L 276.308642 129.219568 
L 278.487532 57.38955 
L 280.666422 127.633357 
L 282.845311 97.235517 
L 285.024201 50.476172 
L 287.20309 132.594118 
L 289.38198 59.671814 
L 291.560869 132.753261 
L 293.739759 77.327652 
L 295.918648 88.656996 
L 298.097538 88.309393 
L 300.276428 109.223472 
L 302.455317 123.365997 
L 304.634207 128.441497 
L 306.813096 33.361301 
L 308.991986 130.30644 
L 311.170875 104.938057 
L 313.349765 74.295957 
L 315.528655 139.207321 
L 317.707544 60.906111 
L 319.886434 117.865214 
L 322.065323 123.623906 
L 324.244213 96.977166 
L 326.423102 29.195858 
L 328.601992 61.865648 
L 330.780882 136.327659 
L 332.959771 142.977962 
L 335.138661 69.026877 
L 337.31755 21.137431 
L 339.49644 76.901041 
L 341.675329 14.827337 
L 343.854219 103.203486 
L 346.033109 119.367096 
L 348.211998 67.439786 
L 350.390888 57.503438 
L 352.569777 85.178042 
L 356.927556 126.008578 
L 359.106446 18.312737 
L 361.285335 38.60414 
L 363.464225 136.638004 
L 365.643115 85.441111 
L 367.822004 72.926964 
L 370.000894 71.84942 
L 372.179783 92.749217 
L 374.358673 20.031058 
L 376.537562 40.938064 
L 378.716452 58.741672 
L 380.895342 75.411233 
L 383.074231 100.410378 
L 385.253121 38.88882 
L 387.43201 86.661304 
L 389.6109 91.895707 
L 391.789789 127.239337 
L 393.968679 80.938065 
L 393.968679 80.938065 
" clip-path="url(#p99bb76dfa0)" style="fill: none; stroke: #4c72b0; stroke-width: 1.5; stroke-linecap: round"/>
   </g>
   <g id="line2d_19">
    <path d="M 69.314134 128.180916 
L 71.493023 125.648975 
L 73.671913 111.985236 
L 75.850802 83.241465 
L 78.029692 27.375687 
L 80.208581 65.340687 
L 82.387471 18.424445 
L 84.56636 99.786233 
L 86.74525 45.00896 
L 88.92414 68.560022 
L 91.103029 111.663518 
L 93.281919 39.471815 
L 95.460808 63.218274 
L 97.639698 99.418765 
L 99.818587 52.850597 
L 101.997477 118.742989 
L 104.176367 21.641741 
L 106.355256 70.572134 
L 108.534146 49.374872 
L 110.713035 42.153659 
L 112.891925 82.694615 
L 115.070814 121.034966 
L 117.249704 116.429023 
L 119.428594 99.715268 
L 121.607483 50.654016 
L 123.786373 74.891415 
L 125.965262 102.693914 
L 128.144152 127.144502 
L 130.323041 76.00189 
L 132.501931 15.9348 
L 134.680821 34.410165 
L 136.85971 64.472967 
L 139.0386 46.242388 
L 141.217489 103.503374 
L 143.396379 37.293748 
L 145.575268 76.623955 
L 147.754158 68.345421 
L 149.933047 118.345999 
L 152.111937 108.559154 
L 154.290827 115.936643 
L 156.469716 126.444247 
L 158.648606 66.400292 
L 160.827495 143.133252 
L 163.006385 122.041628 
L 165.185274 41.542959 
L 167.364164 47.417499 
L 169.543054 68.730953 
L 171.721943 40.480162 
L 173.900833 84.160644 
L 176.079722 41.266033 
L 178.258612 64.766545 
L 180.437501 116.541519 
L 182.616391 15.189198 
L 184.795281 138.676423 
L 186.97417 54.896379 
L 189.15306 107.515783 
L 191.331949 141.911345 
L 193.510839 32.385962 
L 195.689728 52.323117 
L 197.868618 120.112178 
L 200.047508 28.10253 
L 202.226397 53.72942 
L 204.405287 44.593942 
L 206.584176 22.899759 
L 208.763066 143.113213 
L 210.941955 88.040079 
L 213.120845 123.992509 
L 215.299734 80.302492 
L 217.478624 19.454549 
L 219.657514 92.434326 
L 221.836403 42.008891 
L 224.015293 42.307852 
L 226.194182 46.927991 
L 228.373072 91.172672 
L 230.551961 14.077396 
L 232.730851 103.824961 
L 234.909741 41.162474 
L 237.08863 123.081312 
L 239.26752 27.264361 
L 241.446409 125.420236 
L 243.625299 24.133403 
L 245.804188 127.496446 
L 247.983078 131.888918 
L 250.161968 65.912708 
L 252.340857 72.077127 
L 254.519747 37.796325 
L 256.698636 77.076393 
L 258.877526 121.591588 
L 261.056415 75.357882 
L 263.235305 18.13481 
L 265.414195 97.658877 
L 267.593084 141.244082 
L 269.771974 90.584377 
L 271.950863 129.647938 
L 274.129753 47.162815 
L 276.308642 110.041313 
L 278.487532 101.904182 
L 280.666422 92.967313 
L 282.845311 123.522606 
L 285.024201 43.937451 
L 287.20309 25.762563 
L 289.38198 98.132274 
L 291.560869 136.546316 
L 293.739759 18.022361 
L 295.918648 40.770781 
L 298.097538 14.688483 
L 300.276428 75.732911 
L 302.455317 20.070309 
L 304.634207 121.912505 
L 306.813096 50.920665 
L 308.991986 35.281177 
L 311.170875 23.057719 
L 313.349765 97.292754 
L 315.528655 38.292469 
L 317.707544 51.142836 
L 319.886434 38.297067 
L 322.065323 18.807722 
L 324.244213 71.360588 
L 326.423102 45.470817 
L 328.601992 125.391333 
L 330.780882 38.459044 
L 332.959771 114.337405 
L 335.138661 51.026006 
L 337.31755 69.171866 
L 339.49644 136.478479 
L 341.675329 119.838399 
L 343.854219 91.241318 
L 346.033109 124.921792 
L 348.211998 92.292824 
L 350.390888 64.47492 
L 352.569777 138.786148 
L 354.748667 59.798372 
L 356.927556 62.12894 
L 359.106446 117.575318 
L 361.285335 13.673012 
L 363.464225 27.703096 
L 365.643115 89.258716 
L 367.822004 32.718705 
L 370.000894 28.25267 
L 372.179783 94.691257 
L 374.358673 22.175179 
L 376.537562 114.58405 
L 378.716452 131.744407 
L 380.895342 130.163801 
L 383.074231 124.751873 
L 385.253121 78.216356 
L 387.43201 15.482284 
L 389.6109 24.308614 
L 391.789789 48.166889 
L 393.968679 50.474605 
L 393.968679 50.474605 
" clip-path="url(#p99bb76dfa0)" style="fill: none; stroke: #dd8452; stroke-width: 1.5; stroke-linecap: round"/>
   </g>
   <g id="line2d_20"/>
   <g id="line2d_21"/>
   <g id="patch_3">
    <path d="M 53.081406 273.312 
L 53.081406 7.2 
" style="fill: none; stroke: #cccccc; stroke-width: 1.25; stroke-linejoin: miter; stroke-linecap: square"/>
   </g>
   <g id="patch_4">
    <path d="M 410.201406 273.312 
L 410.201406 7.2 
" style="fill: none; stroke: #cccccc; stroke-width: 1.25; stroke-linejoin: miter; stroke-linecap: square"/>
   </g>
   <g id="patch_5">
    <path d="M 53.081406 273.312 
L 410.201406 273.312 
" style="fill: none; stroke: #cccccc; stroke-width: 1.25; stroke-linejoin: miter; stroke-linecap: square"/>
   </g>
   <g id="patch_6">
    <path d="M 53.081406 7.2 
L 410.201406 7.2 
" style="fill: none; stroke: #cccccc; stroke-width: 1.25; stroke-linejoin: miter; stroke-linecap: square"/>
   </g>
   <g id="legend_1">
    <g id="patch_7">
     <path d="M 60.781406 267.812 
L 155.290313 267.812 
Q 157.490313 267.812 157.490313 265.612 
L 157.490313 219.117937 
Q 157.490313 216.917937 155.290313 216.917937 
L 60.781406 216.917937 
Q 58.581406 216.917937 58.581406 219.117937 
L 58.581406 265.612 
Q 58.581406 267.812 60.781406 267.812 
z
" style="fill: #ffffff; opacity: 0.8; stroke: #cccccc; stroke-linejoin: miter"/>
    </g>
    <g id="text_20">
     <!-- weather -->
     <g style="fill: #262626" transform="translate(86.691797 229.907312) scale(0.12 -0.12)">
      <defs>
       <path id="ArialMT-77" d="M 1034 0 
L 19 3319 
L 600 3319 
L 1128 1403 
L 1325 691 
Q 1338 744 1497 1375 
L 2025 3319 
L 2603 3319 
L 3100 1394 
L 3266 759 
L 3456 1400 
L 4025 3319 
L 4572 3319 
L 3534 0 
L 2950 0 
L 2422 1988 
L 2294 2553 
L 1622 0 
L 1034 0 
z
" transform="scale(0.015625)"/>
       <path id="ArialMT-74" d="M 1650 503 
L 1731 6 
Q 1494 -44 1306 -44 
Q 1000 -44 831 53 
Q 663 150 594 308 
Q 525 466 525 972 
L 525 2881 
L 113 2881 
L 113 3319 
L 525 3319 
L 525 4141 
L 1084 4478 
L 1084 3319 
L 1650 3319 
L 1650 2881 
L 1084 2881 
L 1084 941 
Q 1084 700 1114 631 
Q 1144 563 1211 522 
Q 1278 481 1403 481 
Q 1497 481 1650 503 
z
" transform="scale(0.015625)"/>
       <path id="ArialMT-68" d="M 422 0 
L 422 4581 
L 984 4581 
L 984 2938 
Q 1378 3394 1978 3394 
Q 2347 3394 2619 3248 
Q 2891 3103 3008 2847 
Q 3125 2591 3125 2103 
L 3125 0 
L 2563 0 
L 2563 2103 
Q 2563 2525 2380 2717 
Q 2197 2909 1863 2909 
Q 1613 2909 1392 2779 
Q 1172 2650 1078 2428 
Q 984 2206 984 1816 
L 984 0 
L 422 0 
z
" transform="scale(0.015625)"/>
       <path id="ArialMT-72" d="M 416 0 
L 416 3319 
L 922 3319 
L 922 2816 
Q 1116 3169 1280 3281 
Q 1444 3394 1641 3394 
Q 1925 3394 2219 3213 
L 2025 2691 
Q 1819 2813 1613 2813 
Q 1428 2813 1281 2702 
Q 1134 2591 1072 2394 
Q 978 2094 978 1738 
L 978 0 
L 416 0 
z
" transform="scale(0.015625)"/>
      </defs>
      <use xlink:href="#ArialMT-77"/>
      <use xlink:href="#ArialMT-65" x="72.216797"/>
      <use xlink:href="#ArialMT-61" x="127.832031"/>
      <use xlink:href="#ArialMT-74" x="183.447266"/>
      <use xlink:href="#ArialMT-68" x="211.230469"/>
      <use xlink:href="#ArialMT-65" x="266.845703"/>
      <use xlink:href="#ArialMT-72" x="322.460938"/>
     </g>
    </g>
    <g id="line2d_22">
     <path d="M 62.981406 241.815906 
L 73.981406 241.815906 
L 84.981406 241.815906 
" style="fill: none; stroke: #4c72b0; stroke-width: 1.5; stroke-linecap: round"/>
    </g>
    <g id="text_21">
     <!-- wind -->
     <g style="fill: #262626" transform="translate(93.781406 245.665906) scale(0.11 -0.11)">
      <defs>
       <path id="ArialMT-69" d="M 425 3934 
L 425 4581 
L 988 4581 
L 988 3934 
L 425 3934 
z
M 425 0 
L 425 3319 
L 988 3319 
L 988 0 
L 425 0 
z
" transform="scale(0.015625)"/>
       <path id="ArialMT-6e" d="M 422 0 
L 422 3319 
L 928 3319 
L 928 2847 
Q 1294 3394 1984 3394 
Q 2284 3394 2536 3286 
Q 2788 3178 2913 3003 
Q 3038 2828 3088 2588 
Q 3119 2431 3119 2041 
L 3119 0 
L 2556 0 
L 2556 2019 
Q 2556 2363 2490 2533 
Q 2425 2703 2258 2804 
Q 2091 2906 1866 2906 
Q 1506 2906 1245 2678 
Q 984 2450 984 1813 
L 984 0 
L 422 0 
z
" transform="scale(0.015625)"/>
      </defs>
      <use xlink:href="#ArialMT-77"/>
      <use xlink:href="#ArialMT-69" x="72.216797"/>
      <use xlink:href="#ArialMT-6e" x="94.433594"/>
      <use xlink:href="#ArialMT-64" x="150.048828"/>
     </g>
    </g>
    <g id="line2d_23">
     <path d="M 62.981406 257.37575 
L 73.981406 257.37575 
L 84.981406 257.37575 
" style="fill: none; stroke: #dd8452; stroke-width: 1.5; stroke-linecap: round"/>
    </g>
    <g id="text_22">
     <!-- precipitation -->
     <g style="fill: #262626" transform="translate(93.781406 261.22575) scale(0.11 -0.11)">
      <defs>
       <path id="ArialMT-70" d="M 422 -1272 
L 422 3319 
L 934 3319 
L 934 2888 
Q 1116 3141 1344 3267 
Q 1572 3394 1897 3394 
Q 2322 3394 2647 3175 
Q 2972 2956 3137 2557 
Q 3303 2159 3303 1684 
Q 3303 1175 3120 767 
Q 2938 359 2589 142 
Q 2241 -75 1856 -75 
Q 1575 -75 1351 44 
Q 1128 163 984 344 
L 984 -1272 
L 422 -1272 
z
M 931 1641 
Q 931 1000 1190 694 
Q 1450 388 1819 388 
Q 2194 388 2461 705 
Q 2728 1022 2728 1688 
Q 2728 2322 2467 2637 
Q 2206 2953 1844 2953 
Q 1484 2953 1207 2617 
Q 931 2281 931 1641 
z
" transform="scale(0.015625)"/>
       <path id="ArialMT-63" d="M 2588 1216 
L 3141 1144 
Q 3050 572 2676 248 
Q 2303 -75 1759 -75 
Q 1078 -75 664 370 
Q 250 816 250 1647 
Q 250 2184 428 2587 
Q 606 2991 970 3192 
Q 1334 3394 1763 3394 
Q 2303 3394 2647 3120 
Q 2991 2847 3088 2344 
L 2541 2259 
Q 2463 2594 2264 2762 
Q 2066 2931 1784 2931 
Q 1359 2931 1093 2626 
Q 828 2322 828 1663 
Q 828 994 1084 691 
Q 1341 388 1753 388 
Q 2084 388 2306 591 
Q 2528 794 2588 1216 
z
" transform="scale(0.015625)"/>
       <path id="ArialMT-6f" d="M 213 1659 
Q 213 2581 725 3025 
Q 1153 3394 1769 3394 
Q 2453 3394 2887 2945 
Q 3322 2497 3322 1706 
Q 3322 1066 3130 698 
Q 2938 331 2570 128 
Q 2203 -75 1769 -75 
Q 1072 -75 642 372 
Q 213 819 213 1659 
z
M 791 1659 
Q 791 1022 1069 705 
Q 1347 388 1769 388 
Q 2188 388 2466 706 
Q 2744 1025 2744 1678 
Q 2744 2294 2464 2611 
Q 2184 2928 1769 2928 
Q 1347 2928 1069 2612 
Q 791 2297 791 1659 
z
" transform="scale(0.015625)"/>
      </defs>
      <use xlink:href="#ArialMT-70"/>
      <use xlink:href="#ArialMT-72" x="55.615234"/>
      <use xlink:href="#ArialMT-65" x="88.916016"/>
      <use xlink:href="#ArialMT-63" x="144.53125"/>
      <use xlink:href="#ArialMT-69" x="194.53125"/>
      <use xlink:href="#ArialMT-70" x="216.748047"/>
      <use xlink:href="#ArialMT-69" x="272.363281"/>
      <use xlink:href="#ArialMT-74" x="294.580078"/>
      <use xlink:href="#ArialMT-61" x="322.363281"/>
      <use xlink:href="#ArialMT-74" x="377.978516"/>
      <use xlink:href="#ArialMT-69" x="405.761719"/>
      <use xlink:href="#ArialMT-6f" x="427.978516"/>
      <use xlink:href="#ArialMT-6e" x="483.59375"/>
     </g>
    </g>
   </g>
  </g>
 </g>
 <defs>
  <clipPath id="p99bb76dfa0">
   <rect x="53.081406" y="7.2" width="357.12" height="266.112"/>
  </clipPath>
 </defs>
</svg>
